G04 #@! TF.GenerationSoftware,KiCad,Pcbnew,7.0.6*
G04 #@! TF.CreationDate,2023-08-11T00:36:40+02:00*
G04 #@! TF.ProjectId,ADS868_Test,41445338-3638-45f5-9465-73742e6b6963,rev?*
G04 #@! TF.SameCoordinates,Original*
G04 #@! TF.FileFunction,Copper,L1,Top*
G04 #@! TF.FilePolarity,Positive*
%FSLAX46Y46*%
G04 Gerber Fmt 4.6, Leading zero omitted, Abs format (unit mm)*
G04 Created by KiCad (PCBNEW 7.0.6) date 2023-08-11 00:36:40*
%MOMM*%
%LPD*%
G01*
G04 APERTURE LIST*
G04 Aperture macros list*
%AMRoundRect*
0 Rectangle with rounded corners*
0 $1 Rounding radius*
0 $2 $3 $4 $5 $6 $7 $8 $9 X,Y pos of 4 corners*
0 Add a 4 corners polygon primitive as box body*
4,1,4,$2,$3,$4,$5,$6,$7,$8,$9,$2,$3,0*
0 Add four circle primitives for the rounded corners*
1,1,$1+$1,$2,$3*
1,1,$1+$1,$4,$5*
1,1,$1+$1,$6,$7*
1,1,$1+$1,$8,$9*
0 Add four rect primitives between the rounded corners*
20,1,$1+$1,$2,$3,$4,$5,0*
20,1,$1+$1,$4,$5,$6,$7,0*
20,1,$1+$1,$6,$7,$8,$9,0*
20,1,$1+$1,$8,$9,$2,$3,0*%
G04 Aperture macros list end*
G04 #@! TA.AperFunction,SMDPad,CuDef*
%ADD10RoundRect,0.200000X0.200000X1.150000X-0.200000X1.150000X-0.200000X-1.150000X0.200000X-1.150000X0*%
G04 #@! TD*
G04 #@! TA.AperFunction,SMDPad,CuDef*
%ADD11RoundRect,0.237500X-0.300000X-0.237500X0.300000X-0.237500X0.300000X0.237500X-0.300000X0.237500X0*%
G04 #@! TD*
G04 #@! TA.AperFunction,ComponentPad*
%ADD12R,1.700000X1.700000*%
G04 #@! TD*
G04 #@! TA.AperFunction,ComponentPad*
%ADD13O,1.700000X1.700000*%
G04 #@! TD*
G04 #@! TA.AperFunction,SMDPad,CuDef*
%ADD14RoundRect,0.250000X-0.475000X0.337500X-0.475000X-0.337500X0.475000X-0.337500X0.475000X0.337500X0*%
G04 #@! TD*
G04 #@! TA.AperFunction,SMDPad,CuDef*
%ADD15RoundRect,0.237500X-0.237500X0.300000X-0.237500X-0.300000X0.237500X-0.300000X0.237500X0.300000X0*%
G04 #@! TD*
G04 #@! TA.AperFunction,SMDPad,CuDef*
%ADD16RoundRect,0.237500X0.237500X-0.250000X0.237500X0.250000X-0.237500X0.250000X-0.237500X-0.250000X0*%
G04 #@! TD*
G04 #@! TA.AperFunction,SMDPad,CuDef*
%ADD17RoundRect,0.237500X-0.237500X0.250000X-0.237500X-0.250000X0.237500X-0.250000X0.237500X0.250000X0*%
G04 #@! TD*
G04 #@! TA.AperFunction,SMDPad,CuDef*
%ADD18RoundRect,0.250000X-0.337500X-0.475000X0.337500X-0.475000X0.337500X0.475000X-0.337500X0.475000X0*%
G04 #@! TD*
G04 #@! TA.AperFunction,SMDPad,CuDef*
%ADD19RoundRect,0.100000X-0.637500X-0.100000X0.637500X-0.100000X0.637500X0.100000X-0.637500X0.100000X0*%
G04 #@! TD*
G04 #@! TA.AperFunction,SMDPad,CuDef*
%ADD20R,0.650000X0.400000*%
G04 #@! TD*
G04 #@! TA.AperFunction,SMDPad,CuDef*
%ADD21RoundRect,0.237500X0.237500X-0.300000X0.237500X0.300000X-0.237500X0.300000X-0.237500X-0.300000X0*%
G04 #@! TD*
G04 #@! TA.AperFunction,SMDPad,CuDef*
%ADD22RoundRect,0.237500X-0.250000X-0.237500X0.250000X-0.237500X0.250000X0.237500X-0.250000X0.237500X0*%
G04 #@! TD*
G04 #@! TA.AperFunction,ViaPad*
%ADD23C,0.500000*%
G04 #@! TD*
G04 #@! TA.AperFunction,Conductor*
%ADD24C,0.381000*%
G04 #@! TD*
G04 #@! TA.AperFunction,Conductor*
%ADD25C,0.254000*%
G04 #@! TD*
G04 #@! TA.AperFunction,Conductor*
%ADD26C,0.127000*%
G04 #@! TD*
G04 #@! TA.AperFunction,Conductor*
%ADD27C,0.508000*%
G04 #@! TD*
G04 APERTURE END LIST*
D10*
G04 #@! TO.P,L101,1,1*
G04 #@! TO.N,+3V3*
X134069000Y-53086000D03*
G04 #@! TO.P,L101,2,2*
G04 #@! TO.N,Net-(U103-SW)*
X131869000Y-53086000D03*
G04 #@! TD*
D11*
G04 #@! TO.P,C105,1*
G04 #@! TO.N,Net-(C105-Pad1)*
X122708500Y-70104000D03*
G04 #@! TO.P,C105,2*
G04 #@! TO.N,GND*
X124433500Y-70104000D03*
G04 #@! TD*
D12*
G04 #@! TO.P,J105,1,Pin_1*
G04 #@! TO.N,+3V3*
X141500000Y-55630000D03*
D13*
G04 #@! TO.P,J105,2,Pin_2*
X144040000Y-55630000D03*
G04 #@! TO.P,J105,3,Pin_3*
G04 #@! TO.N,GND*
X141500000Y-58170000D03*
G04 #@! TO.P,J105,4,Pin_4*
X144040000Y-58170000D03*
G04 #@! TO.P,J105,5,Pin_5*
G04 #@! TO.N,/ADC1_RVS*
X141500000Y-60710000D03*
G04 #@! TO.P,J105,6,Pin_6*
G04 #@! TO.N,/ADC1_SDO-1*
X144040000Y-60710000D03*
G04 #@! TO.P,J105,7,Pin_7*
G04 #@! TO.N,/ADC1_SDO-0*
X141500000Y-63250000D03*
G04 #@! TO.P,J105,8,Pin_8*
G04 #@! TO.N,/ADC1_SCLK*
X144040000Y-63250000D03*
G04 #@! TO.P,J105,9,Pin_9*
G04 #@! TO.N,/ADC1_~{CS}*
X141500000Y-65790000D03*
G04 #@! TO.P,J105,10,Pin_10*
G04 #@! TO.N,/ADC1_SDI*
X144040000Y-65790000D03*
G04 #@! TO.P,J105,11,Pin_11*
G04 #@! TO.N,unconnected-(J105-Pin_11-Pad11)*
X141500000Y-68330000D03*
G04 #@! TO.P,J105,12,Pin_12*
G04 #@! TO.N,unconnected-(J105-Pin_12-Pad12)*
X144040000Y-68330000D03*
G04 #@! TD*
D14*
G04 #@! TO.P,C110,1*
G04 #@! TO.N,+5V*
X129286000Y-55477500D03*
G04 #@! TO.P,C110,2*
G04 #@! TO.N,GND*
X129286000Y-57552500D03*
G04 #@! TD*
D15*
G04 #@! TO.P,C102,1*
G04 #@! TO.N,Net-(J103-Pin_1)*
X115189000Y-84227500D03*
G04 #@! TO.P,C102,2*
G04 #@! TO.N,GND*
X115189000Y-85952500D03*
G04 #@! TD*
D12*
G04 #@! TO.P,J101,1,Pin_1*
G04 #@! TO.N,Net-(J101-Pin_1)*
X104140000Y-58420000D03*
G04 #@! TD*
D16*
G04 #@! TO.P,R104,1*
G04 #@! TO.N,+3V3*
X127127000Y-86637500D03*
G04 #@! TO.P,R104,2*
G04 #@! TO.N,Net-(U102-~{RST})*
X127127000Y-84812500D03*
G04 #@! TD*
D12*
G04 #@! TO.P,J104,1,Pin_1*
G04 #@! TO.N,GND*
X104140000Y-88900000D03*
G04 #@! TD*
D15*
G04 #@! TO.P,C104,1*
G04 #@! TO.N,GND*
X115189000Y-79655500D03*
G04 #@! TO.P,C104,2*
G04 #@! TO.N,Net-(U102-REFIO)*
X115189000Y-81380500D03*
G04 #@! TD*
D17*
G04 #@! TO.P,R105,1*
G04 #@! TO.N,+3V3*
X127127000Y-62968500D03*
G04 #@! TO.P,R105,2*
G04 #@! TO.N,/ADC1_SDO-0*
X127127000Y-64793500D03*
G04 #@! TD*
D15*
G04 #@! TO.P,C103,1*
G04 #@! TO.N,GND*
X114935000Y-62637500D03*
G04 #@! TO.P,C103,2*
G04 #@! TO.N,Net-(U101-REFIO)*
X114935000Y-64362500D03*
G04 #@! TD*
D16*
G04 #@! TO.P,R103,1*
G04 #@! TO.N,+3V3*
X127127000Y-69619500D03*
G04 #@! TO.P,R103,2*
G04 #@! TO.N,Net-(U101-~{RST})*
X127127000Y-67794500D03*
G04 #@! TD*
D12*
G04 #@! TO.P,J106,1,Pin_1*
G04 #@! TO.N,+3V3*
X141500000Y-76320000D03*
D13*
G04 #@! TO.P,J106,2,Pin_2*
X144040000Y-76320000D03*
G04 #@! TO.P,J106,3,Pin_3*
G04 #@! TO.N,GND*
X141500000Y-78860000D03*
G04 #@! TO.P,J106,4,Pin_4*
X144040000Y-78860000D03*
G04 #@! TO.P,J106,5,Pin_5*
G04 #@! TO.N,/ADC2_RVS*
X141500000Y-81400000D03*
G04 #@! TO.P,J106,6,Pin_6*
G04 #@! TO.N,/ADC2_SDO-1*
X144040000Y-81400000D03*
G04 #@! TO.P,J106,7,Pin_7*
G04 #@! TO.N,/ADC2_SDO-0*
X141500000Y-83940000D03*
G04 #@! TO.P,J106,8,Pin_8*
G04 #@! TO.N,/ADC2_SCLK*
X144040000Y-83940000D03*
G04 #@! TO.P,J106,9,Pin_9*
G04 #@! TO.N,/ADC2_~{CS}*
X141500000Y-86480000D03*
G04 #@! TO.P,J106,10,Pin_10*
G04 #@! TO.N,/ADC2_SDI*
X144040000Y-86480000D03*
G04 #@! TO.P,J106,11,Pin_11*
G04 #@! TO.N,unconnected-(J106-Pin_11-Pad11)*
X141500000Y-89020000D03*
G04 #@! TO.P,J106,12,Pin_12*
G04 #@! TO.N,unconnected-(J106-Pin_12-Pad12)*
X144040000Y-89020000D03*
G04 #@! TD*
D12*
G04 #@! TO.P,J103,1,Pin_1*
G04 #@! TO.N,Net-(J103-Pin_1)*
X104140000Y-78740000D03*
G04 #@! TD*
D18*
G04 #@! TO.P,C106,1*
G04 #@! TO.N,Net-(C105-Pad1)*
X122533500Y-72898000D03*
G04 #@! TO.P,C106,2*
G04 #@! TO.N,GND*
X124608500Y-72898000D03*
G04 #@! TD*
D19*
G04 #@! TO.P,U101,1,DGND*
G04 #@! TO.N,GND*
X118549500Y-63225000D03*
G04 #@! TO.P,U101,2,AVDD*
G04 #@! TO.N,+5V*
X118549500Y-63875000D03*
G04 #@! TO.P,U101,3,AGND*
G04 #@! TO.N,GND*
X118549500Y-64525000D03*
G04 #@! TO.P,U101,4,REFIO*
G04 #@! TO.N,Net-(U101-REFIO)*
X118549500Y-65175000D03*
G04 #@! TO.P,U101,5,REFGND*
G04 #@! TO.N,GND*
X118549500Y-65825000D03*
G04 #@! TO.P,U101,6,REFCAP*
G04 #@! TO.N,Net-(U101-REFCAP)*
X118549500Y-66475000D03*
G04 #@! TO.P,U101,7,AIN_P*
G04 #@! TO.N,Net-(J101-Pin_1)*
X118549500Y-67125000D03*
G04 #@! TO.P,U101,8,AIN_GND*
G04 #@! TO.N,GND*
X118549500Y-67775000D03*
G04 #@! TO.P,U101,9,~{RST}*
G04 #@! TO.N,Net-(U101-~{RST})*
X124274500Y-67775000D03*
G04 #@! TO.P,U101,10,SDI*
G04 #@! TO.N,/ADC1_SDI*
X124274500Y-67125000D03*
G04 #@! TO.P,U101,11,CONVST/~{CS}*
G04 #@! TO.N,/ADC1_~{CS}*
X124274500Y-66475000D03*
G04 #@! TO.P,U101,12,SCLK*
G04 #@! TO.N,/ADC1_SCLK*
X124274500Y-65825000D03*
G04 #@! TO.P,U101,13,SDO-0*
G04 #@! TO.N,/ADC1_SDO-0*
X124274500Y-65175000D03*
G04 #@! TO.P,U101,14,SDO-1*
G04 #@! TO.N,/ADC1_SDO-1*
X124274500Y-64525000D03*
G04 #@! TO.P,U101,15,RVS*
G04 #@! TO.N,/ADC1_RVS*
X124274500Y-63875000D03*
G04 #@! TO.P,U101,16,DVDD*
G04 #@! TO.N,+3V3*
X124274500Y-63225000D03*
G04 #@! TD*
D12*
G04 #@! TO.P,J102,1,Pin_1*
G04 #@! TO.N,GND*
X104140000Y-68580000D03*
G04 #@! TD*
D18*
G04 #@! TO.P,C108,1*
G04 #@! TO.N,Net-(C107-Pad1)*
X122787500Y-89789000D03*
G04 #@! TO.P,C108,2*
G04 #@! TO.N,GND*
X124862500Y-89789000D03*
G04 #@! TD*
D20*
G04 #@! TO.P,U103,1,~{SHDN}*
G04 #@! TO.N,Net-(U103-~{SHDN})*
X133919000Y-57165000D03*
G04 #@! TO.P,U103,2,GND*
G04 #@! TO.N,GND*
X133919000Y-56515000D03*
G04 #@! TO.P,U103,3,VIN*
G04 #@! TO.N,+3V3*
X133919000Y-55865000D03*
G04 #@! TO.P,U103,4,VOUT*
G04 #@! TO.N,+5V*
X132019000Y-55865000D03*
G04 #@! TO.P,U103,5,GND*
G04 #@! TO.N,GND*
X132019000Y-56515000D03*
G04 #@! TO.P,U103,6,SW*
G04 #@! TO.N,Net-(U103-SW)*
X132019000Y-57165000D03*
G04 #@! TD*
D21*
G04 #@! TO.P,C109,1*
G04 #@! TO.N,+3V3*
X136525000Y-53948500D03*
G04 #@! TO.P,C109,2*
G04 #@! TO.N,GND*
X136525000Y-52223500D03*
G04 #@! TD*
D17*
G04 #@! TO.P,R107,1*
G04 #@! TO.N,+3V3*
X136525000Y-55602500D03*
G04 #@! TO.P,R107,2*
G04 #@! TO.N,Net-(U103-~{SHDN})*
X136525000Y-57427500D03*
G04 #@! TD*
D19*
G04 #@! TO.P,U102,1,DGND*
G04 #@! TO.N,GND*
X118803500Y-80148000D03*
G04 #@! TO.P,U102,2,AVDD*
G04 #@! TO.N,+5V*
X118803500Y-80798000D03*
G04 #@! TO.P,U102,3,AGND*
G04 #@! TO.N,GND*
X118803500Y-81448000D03*
G04 #@! TO.P,U102,4,REFIO*
G04 #@! TO.N,Net-(U102-REFIO)*
X118803500Y-82098000D03*
G04 #@! TO.P,U102,5,REFGND*
G04 #@! TO.N,GND*
X118803500Y-82748000D03*
G04 #@! TO.P,U102,6,REFCAP*
G04 #@! TO.N,Net-(U102-REFCAP)*
X118803500Y-83398000D03*
G04 #@! TO.P,U102,7,AIN_P*
G04 #@! TO.N,Net-(J103-Pin_1)*
X118803500Y-84048000D03*
G04 #@! TO.P,U102,8,AIN_GND*
G04 #@! TO.N,GND*
X118803500Y-84698000D03*
G04 #@! TO.P,U102,9,~{RST}*
G04 #@! TO.N,Net-(U102-~{RST})*
X124528500Y-84698000D03*
G04 #@! TO.P,U102,10,SDI*
G04 #@! TO.N,/ADC2_SDI*
X124528500Y-84048000D03*
G04 #@! TO.P,U102,11,CONVST/~{CS}*
G04 #@! TO.N,/ADC2_~{CS}*
X124528500Y-83398000D03*
G04 #@! TO.P,U102,12,SCLK*
G04 #@! TO.N,/ADC2_SCLK*
X124528500Y-82748000D03*
G04 #@! TO.P,U102,13,SDO-0*
G04 #@! TO.N,/ADC2_SDO-0*
X124528500Y-82098000D03*
G04 #@! TO.P,U102,14,SDO-1*
G04 #@! TO.N,/ADC2_SDO-1*
X124528500Y-81448000D03*
G04 #@! TO.P,U102,15,RVS*
G04 #@! TO.N,/ADC2_RVS*
X124528500Y-80798000D03*
G04 #@! TO.P,U102,16,DVDD*
G04 #@! TO.N,+3V3*
X124528500Y-80148000D03*
G04 #@! TD*
D15*
G04 #@! TO.P,C101,1*
G04 #@! TO.N,Net-(J101-Pin_1)*
X114935000Y-67209500D03*
G04 #@! TO.P,C101,2*
G04 #@! TO.N,GND*
X114935000Y-68934500D03*
G04 #@! TD*
D22*
G04 #@! TO.P,R102,1*
G04 #@! TO.N,Net-(U102-REFCAP)*
X119483500Y-86995000D03*
G04 #@! TO.P,R102,2*
G04 #@! TO.N,Net-(C107-Pad1)*
X121308500Y-86995000D03*
G04 #@! TD*
D11*
G04 #@! TO.P,C107,1*
G04 #@! TO.N,Net-(C107-Pad1)*
X122962500Y-86995000D03*
G04 #@! TO.P,C107,2*
G04 #@! TO.N,GND*
X124687500Y-86995000D03*
G04 #@! TD*
D17*
G04 #@! TO.P,R106,1*
G04 #@! TO.N,+3V3*
X127127000Y-79859500D03*
G04 #@! TO.P,R106,2*
G04 #@! TO.N,/ADC2_SDO-0*
X127127000Y-81684500D03*
G04 #@! TD*
D22*
G04 #@! TO.P,R101,1*
G04 #@! TO.N,Net-(U101-REFCAP)*
X119229500Y-70104000D03*
G04 #@! TO.P,R101,2*
G04 #@! TO.N,Net-(C105-Pad1)*
X121054500Y-70104000D03*
G04 #@! TD*
D23*
G04 #@! TO.N,+5V*
X129286000Y-54737000D03*
X117348000Y-63881000D03*
G04 #@! TO.N,GND*
X130937000Y-56515000D03*
X135255000Y-56515000D03*
G04 #@! TO.N,+3V3*
X127127000Y-62230000D03*
X127127000Y-70358000D03*
G04 #@! TO.N,+5V*
X117203000Y-80663000D03*
G04 #@! TO.N,+3V3*
X127127000Y-79121000D03*
X127127000Y-87376000D03*
G04 #@! TO.N,GND*
X117000000Y-68800000D03*
X120015000Y-63246000D03*
X120015000Y-64516000D03*
X120015000Y-65786000D03*
X120142000Y-80137000D03*
X120142000Y-81407000D03*
X120142000Y-82677000D03*
X118200000Y-85800000D03*
G04 #@! TD*
D24*
G04 #@! TO.N,+5V*
X117203000Y-80663000D02*
X117338000Y-80798000D01*
X117338000Y-80798000D02*
X118803500Y-80798000D01*
D25*
G04 #@! TO.N,GND*
X117000000Y-68800000D02*
X118100000Y-68800000D01*
X118100000Y-68800000D02*
X118549500Y-68350500D01*
X118549500Y-68350500D02*
X118549500Y-67775000D01*
X118200000Y-85800000D02*
X118600000Y-85800000D01*
X118803500Y-85596500D02*
X118803500Y-84698000D01*
X118600000Y-85800000D02*
X118803500Y-85596500D01*
D26*
G04 #@! TO.N,/ADC2_SDO-0*
X124528500Y-82098000D02*
X125928000Y-82098000D01*
X125928000Y-82098000D02*
X126341500Y-81684500D01*
X126341500Y-81684500D02*
X127127000Y-81684500D01*
G04 #@! TO.N,/ADC2_SDO-1*
X124528500Y-81448000D02*
X125825215Y-81448000D01*
X125825215Y-81448000D02*
X126374215Y-80899000D01*
X126374215Y-80899000D02*
X138557000Y-80899000D01*
X138557000Y-80899000D02*
X140335000Y-82677000D01*
X140335000Y-82677000D02*
X142763000Y-82677000D01*
X142763000Y-82677000D02*
X144040000Y-81400000D01*
G04 #@! TO.N,/ADC1_SDO-0*
X141500000Y-63250000D02*
X139956500Y-64793500D01*
X139956500Y-64793500D02*
X126468500Y-64793500D01*
X126468500Y-64793500D02*
X126087000Y-65175000D01*
X126087000Y-65175000D02*
X124274500Y-65175000D01*
G04 #@! TO.N,/ADC1_RVS*
X124274500Y-63875000D02*
X126111000Y-63875000D01*
X126111000Y-63875000D02*
X126232000Y-63754000D01*
X126232000Y-63754000D02*
X138456000Y-63754000D01*
X138456000Y-63754000D02*
X141500000Y-60710000D01*
G04 #@! TO.N,/ADC1_SDO-1*
X124274500Y-64525000D02*
X126175717Y-64525000D01*
X126175717Y-64525000D02*
X126692717Y-64008000D01*
X126692717Y-64008000D02*
X138850255Y-64008000D01*
X138850255Y-64008000D02*
X140882255Y-61976000D01*
X140882255Y-61976000D02*
X142774000Y-61976000D01*
X142774000Y-61976000D02*
X144040000Y-60710000D01*
G04 #@! TO.N,/ADC2_SCLK*
X124528500Y-82748000D02*
X125801000Y-82748000D01*
X125801000Y-82748000D02*
X126111000Y-83058000D01*
X126111000Y-83058000D02*
X137668000Y-83058000D01*
X137668000Y-83058000D02*
X139827000Y-85217000D01*
X139827000Y-85217000D02*
X142763000Y-85217000D01*
X142763000Y-85217000D02*
X144040000Y-83940000D01*
D24*
G04 #@! TO.N,Net-(U101-REFIO)*
X118549500Y-65175000D02*
X116610000Y-65175000D01*
X116610000Y-65175000D02*
X115797500Y-64362500D01*
X115797500Y-64362500D02*
X114935000Y-64362500D01*
G04 #@! TO.N,Net-(U102-REFIO)*
X118803500Y-82098000D02*
X116769000Y-82098000D01*
X116769000Y-82098000D02*
X116051500Y-81380500D01*
X116051500Y-81380500D02*
X115189000Y-81380500D01*
D27*
G04 #@! TO.N,+3V3*
X127127000Y-69619500D02*
X127127000Y-70358000D01*
X127127000Y-79859500D02*
X127127000Y-79121000D01*
X127127000Y-86637500D02*
X127127000Y-87376000D01*
D24*
G04 #@! TO.N,Net-(J101-Pin_1)*
X114935000Y-67209500D02*
X110262500Y-67209500D01*
X110262500Y-67209500D02*
X104140000Y-61087000D01*
X104140000Y-61087000D02*
X104140000Y-58420000D01*
G04 #@! TO.N,Net-(J103-Pin_1)*
X115189000Y-84227500D02*
X111913500Y-84227500D01*
X111913500Y-84227500D02*
X106426000Y-78740000D01*
X106426000Y-78740000D02*
X104140000Y-78740000D01*
X118803500Y-84048000D02*
X115368500Y-84048000D01*
X115368500Y-84048000D02*
X115189000Y-84227500D01*
G04 #@! TO.N,Net-(J101-Pin_1)*
X118549500Y-67125000D02*
X115019500Y-67125000D01*
X115019500Y-67125000D02*
X114935000Y-67209500D01*
D27*
G04 #@! TO.N,+5V*
X129286000Y-55477500D02*
X129286000Y-54737000D01*
D24*
X117354000Y-63875000D02*
X117348000Y-63881000D01*
X118549500Y-63875000D02*
X117354000Y-63875000D01*
D27*
G04 #@! TO.N,+3V3*
X141500000Y-55630000D02*
X136552500Y-55630000D01*
X136552500Y-55630000D02*
X136525000Y-55602500D01*
D24*
G04 #@! TO.N,+5V*
X132019000Y-55865000D02*
X131430000Y-55865000D01*
X131430000Y-55865000D02*
X131042500Y-55477500D01*
X131042500Y-55477500D02*
X129286000Y-55477500D01*
G04 #@! TO.N,GND*
X132019000Y-56515000D02*
X130937000Y-56515000D01*
X133919000Y-56515000D02*
X135255000Y-56515000D01*
G04 #@! TO.N,Net-(U103-~{SHDN})*
X133919000Y-57165000D02*
X134635000Y-57165000D01*
X134635000Y-57165000D02*
X134897500Y-57427500D01*
X134897500Y-57427500D02*
X136525000Y-57427500D01*
G04 #@! TO.N,Net-(U103-SW)*
X132019000Y-57165000D02*
X132700000Y-57165000D01*
X132700000Y-57165000D02*
X132969000Y-56896000D01*
X132969000Y-56896000D02*
X132969000Y-55245000D01*
X132969000Y-55245000D02*
X131869000Y-54145000D01*
X131869000Y-54145000D02*
X131869000Y-53086000D01*
D27*
G04 #@! TO.N,+3V3*
X136525000Y-53948500D02*
X135863500Y-53948500D01*
X135863500Y-53948500D02*
X135001000Y-53086000D01*
X135001000Y-53086000D02*
X134069000Y-53086000D01*
D24*
X136525000Y-55602500D02*
X136525000Y-53948500D01*
X133919000Y-55865000D02*
X135016000Y-55865000D01*
X135016000Y-55865000D02*
X135278500Y-55602500D01*
X135278500Y-55602500D02*
X136525000Y-55602500D01*
D27*
X127127000Y-62968500D02*
X127127000Y-62230000D01*
D25*
X124274500Y-63225000D02*
X125730000Y-63225000D01*
X127127000Y-62968500D02*
X125986500Y-62968500D01*
X125986500Y-62968500D02*
X125730000Y-63225000D01*
G04 #@! TO.N,Net-(U101-~{RST})*
X127127000Y-67794500D02*
X124294000Y-67794500D01*
X124294000Y-67794500D02*
X124274500Y-67775000D01*
G04 #@! TO.N,+3V3*
X124528500Y-80148000D02*
X125984000Y-80148000D01*
X127127000Y-79859500D02*
X126272500Y-79859500D01*
X126272500Y-79859500D02*
X125984000Y-80148000D01*
G04 #@! TO.N,Net-(U102-~{RST})*
X127127000Y-84812500D02*
X127012500Y-84698000D01*
X127012500Y-84698000D02*
X124528500Y-84698000D01*
D26*
G04 #@! TO.N,/ADC2_SDI*
X124528500Y-84048000D02*
X125756000Y-84048000D01*
X125756000Y-84048000D02*
X126111000Y-83693000D01*
X140566255Y-87757000D02*
X142763000Y-87757000D01*
X126111000Y-83693000D02*
X136502255Y-83693000D01*
X136502255Y-83693000D02*
X140566255Y-87757000D01*
X142763000Y-87757000D02*
X144040000Y-86480000D01*
G04 #@! TO.N,/ADC2_~{CS}*
X124528500Y-83398000D02*
X137119000Y-83398000D01*
X137119000Y-83398000D02*
X140201000Y-86480000D01*
X140201000Y-86480000D02*
X141500000Y-86480000D01*
G04 #@! TO.N,/ADC1_~{CS}*
X124274500Y-66475000D02*
X125697790Y-66475000D01*
X125697790Y-66475000D02*
X126005790Y-66167000D01*
X126005790Y-66167000D02*
X141123000Y-66167000D01*
X141123000Y-66167000D02*
X141500000Y-65790000D01*
G04 #@! TO.N,/ADC1_SDI*
X124274500Y-67125000D02*
X124332500Y-67183000D01*
X124332500Y-67183000D02*
X125476000Y-67183000D01*
X125476000Y-67183000D02*
X126111000Y-66548000D01*
X126111000Y-66548000D02*
X140116255Y-66548000D01*
X140116255Y-66548000D02*
X140624255Y-67056000D01*
X140624255Y-67056000D02*
X142774000Y-67056000D01*
X142774000Y-67056000D02*
X144040000Y-65790000D01*
G04 #@! TO.N,/ADC2_SDO-0*
X127127000Y-81684500D02*
X138072500Y-81684500D01*
X138072500Y-81684500D02*
X140328000Y-83940000D01*
X140328000Y-83940000D02*
X141500000Y-83940000D01*
G04 #@! TO.N,/ADC2_RVS*
X124528500Y-80798000D02*
X125831000Y-80798000D01*
X125831000Y-80798000D02*
X125984000Y-80645000D01*
X125984000Y-80645000D02*
X139446000Y-80645000D01*
X139446000Y-80645000D02*
X140201000Y-81400000D01*
X140201000Y-81400000D02*
X141500000Y-81400000D01*
D25*
G04 #@! TO.N,GND*
X119994000Y-63225000D02*
X120015000Y-63246000D01*
X118549500Y-63225000D02*
X119994000Y-63225000D01*
X120006000Y-64525000D02*
X120015000Y-64516000D01*
X118549500Y-64525000D02*
X120006000Y-64525000D01*
X119976000Y-65825000D02*
X120015000Y-65786000D01*
X118549500Y-65825000D02*
X119976000Y-65825000D01*
X120131000Y-80148000D02*
X120142000Y-80137000D01*
X118803500Y-80148000D02*
X120131000Y-80148000D01*
X120101000Y-81448000D02*
X120142000Y-81407000D01*
X118803500Y-81448000D02*
X120101000Y-81448000D01*
X120071000Y-82748000D02*
X120142000Y-82677000D01*
X118803500Y-82748000D02*
X120071000Y-82748000D01*
D26*
G04 #@! TO.N,/ADC1_SCLK*
X124274500Y-65825000D02*
X124313500Y-65786000D01*
X140906500Y-64516000D02*
X142774000Y-64516000D01*
X124313500Y-65786000D02*
X139636500Y-65786000D01*
X139636500Y-65786000D02*
X140906500Y-64516000D01*
X142774000Y-64516000D02*
X144040000Y-63250000D01*
D25*
G04 #@! TO.N,Net-(U101-REFCAP)*
X119229500Y-70104000D02*
X119229500Y-69238500D01*
X119229500Y-69238500D02*
X119761000Y-68707000D01*
X119761000Y-66802000D02*
X119434000Y-66475000D01*
X119761000Y-68707000D02*
X119761000Y-66802000D01*
X119434000Y-66475000D02*
X118549500Y-66475000D01*
D27*
G04 #@! TO.N,Net-(C105-Pad1)*
X122708500Y-70104000D02*
X121054500Y-70104000D01*
X122533500Y-72898000D02*
X122533500Y-70279000D01*
X122533500Y-70279000D02*
X122708500Y-70104000D01*
G04 #@! TO.N,Net-(C107-Pad1)*
X122962500Y-86995000D02*
X121308500Y-86995000D01*
X122787500Y-89789000D02*
X122787500Y-87170000D01*
X122787500Y-87170000D02*
X122962500Y-86995000D01*
D25*
G04 #@! TO.N,Net-(U102-REFCAP)*
X119483500Y-86995000D02*
X119483500Y-85875500D01*
X119483500Y-85875500D02*
X120142000Y-85217000D01*
X120142000Y-83693000D02*
X119847000Y-83398000D01*
X120142000Y-85217000D02*
X120142000Y-83693000D01*
X119847000Y-83398000D02*
X118803500Y-83398000D01*
G04 #@! TD*
G04 #@! TA.AperFunction,Conductor*
G04 #@! TO.N,GND*
G36*
X147264306Y-51018306D02*
G01*
X147481694Y-51235694D01*
X147500000Y-51279888D01*
X147500000Y-93720111D01*
X147481694Y-93764305D01*
X147264306Y-93981694D01*
X147220112Y-94000000D01*
X98779888Y-94000000D01*
X98735694Y-93981694D01*
X98518306Y-93764306D01*
X98500000Y-93720112D01*
X98500000Y-89762507D01*
X103162999Y-89762507D01*
X103170369Y-89799553D01*
X103170369Y-89799554D01*
X103198438Y-89841561D01*
X103240446Y-89869630D01*
X103277493Y-89877000D01*
X104013000Y-89877000D01*
X104013000Y-89386881D01*
X104104237Y-89400000D01*
X104175763Y-89400000D01*
X104266999Y-89386881D01*
X104267000Y-89877000D01*
X105002507Y-89877000D01*
X105039553Y-89869630D01*
X105039554Y-89869630D01*
X105081561Y-89841561D01*
X105109630Y-89799554D01*
X105109630Y-89799553D01*
X105117000Y-89762507D01*
X105117000Y-89027000D01*
X104623818Y-89027000D01*
X104640000Y-88971889D01*
X104640000Y-88828111D01*
X104623818Y-88773000D01*
X105117000Y-88773000D01*
X105117000Y-88037492D01*
X105109630Y-88000446D01*
X105109630Y-88000445D01*
X105081561Y-87958438D01*
X105039553Y-87930369D01*
X105002507Y-87923000D01*
X104267000Y-87923000D01*
X104266999Y-88413118D01*
X104175763Y-88400000D01*
X104104237Y-88400000D01*
X104013000Y-88413118D01*
X104013000Y-87923000D01*
X103277493Y-87923000D01*
X103240446Y-87930369D01*
X103240445Y-87930369D01*
X103198438Y-87958438D01*
X103170369Y-88000445D01*
X103170369Y-88000446D01*
X103163000Y-88037492D01*
X103163000Y-88773000D01*
X103656182Y-88773000D01*
X103640000Y-88828111D01*
X103640000Y-88971889D01*
X103656182Y-89027000D01*
X103163000Y-89027000D01*
X103163000Y-89762507D01*
X103162999Y-89762507D01*
X98500000Y-89762507D01*
X98500000Y-86079500D01*
X114587000Y-86079500D01*
X114587000Y-86287091D01*
X114597323Y-86357942D01*
X114650750Y-86467231D01*
X114736768Y-86553249D01*
X114846057Y-86606676D01*
X114916909Y-86617000D01*
X115061999Y-86617000D01*
X115062000Y-86079500D01*
X115316000Y-86079500D01*
X115316000Y-86617000D01*
X115461091Y-86617000D01*
X115531942Y-86606676D01*
X115641231Y-86553249D01*
X115727249Y-86467231D01*
X115780676Y-86357942D01*
X115791000Y-86287091D01*
X115791000Y-86079500D01*
X115316000Y-86079500D01*
X115062000Y-86079500D01*
X114587000Y-86079500D01*
X98500000Y-86079500D01*
X98500000Y-85825500D01*
X114587000Y-85825500D01*
X115061999Y-85825500D01*
X115062000Y-85288000D01*
X115316000Y-85288000D01*
X115316000Y-85825500D01*
X115791000Y-85825500D01*
X115791000Y-85617908D01*
X115780676Y-85547057D01*
X115727249Y-85437768D01*
X115641231Y-85351750D01*
X115531942Y-85298323D01*
X115461091Y-85288000D01*
X115316000Y-85288000D01*
X115062000Y-85288000D01*
X114916909Y-85288000D01*
X114846057Y-85298323D01*
X114736768Y-85351750D01*
X114650750Y-85437768D01*
X114597323Y-85547057D01*
X114587000Y-85617908D01*
X114587000Y-85825500D01*
X98500000Y-85825500D01*
X98500000Y-79615064D01*
X103035500Y-79615064D01*
X103035501Y-79615068D01*
X103050265Y-79689299D01*
X103050267Y-79689303D01*
X103106515Y-79773484D01*
X103190697Y-79829733D01*
X103190699Y-79829734D01*
X103264933Y-79844500D01*
X105015066Y-79844499D01*
X105089301Y-79829734D01*
X105173484Y-79773484D01*
X105229734Y-79689301D01*
X105244500Y-79615067D01*
X105244500Y-79247499D01*
X105262806Y-79203306D01*
X105307000Y-79185000D01*
X106215787Y-79185000D01*
X106259981Y-79203306D01*
X111579930Y-84523255D01*
X111582267Y-84525870D01*
X111607402Y-84557389D01*
X111607403Y-84557390D01*
X111607405Y-84557392D01*
X111655928Y-84590475D01*
X111692580Y-84617525D01*
X111703213Y-84625373D01*
X111703214Y-84625374D01*
X111703215Y-84625374D01*
X111703216Y-84625375D01*
X111703465Y-84625462D01*
X111718029Y-84632814D01*
X111718241Y-84632959D01*
X111774369Y-84650272D01*
X111829835Y-84669681D01*
X111830092Y-84669690D01*
X111846183Y-84672425D01*
X111846426Y-84672500D01*
X111846427Y-84672500D01*
X111905186Y-84672500D01*
X111907559Y-84672588D01*
X111963886Y-84674696D01*
X111964035Y-84674655D01*
X111964134Y-84674630D01*
X111980311Y-84672500D01*
X114437080Y-84672500D01*
X114481274Y-84690806D01*
X114495639Y-84713158D01*
X114515240Y-84765712D01*
X114515241Y-84765714D01*
X114515242Y-84765715D01*
X114600026Y-84878974D01*
X114713285Y-84963758D01*
X114845843Y-85013200D01*
X114904443Y-85019500D01*
X115473556Y-85019499D01*
X115532157Y-85013200D01*
X115664715Y-84963758D01*
X115777974Y-84878974D01*
X115818378Y-84825000D01*
X117939924Y-84825000D01*
X117952170Y-84886569D01*
X117952172Y-84886573D01*
X118002342Y-84961657D01*
X118077427Y-85011828D01*
X118077429Y-85011829D01*
X118143643Y-85024999D01*
X118143644Y-85025000D01*
X118676500Y-85025000D01*
X118676500Y-84825000D01*
X117939924Y-84825000D01*
X115818378Y-84825000D01*
X115862758Y-84765715D01*
X115912200Y-84633157D01*
X115918500Y-84574557D01*
X115918500Y-84555499D01*
X115936806Y-84511306D01*
X115981000Y-84493000D01*
X117879283Y-84493000D01*
X117923477Y-84511306D01*
X117941783Y-84555500D01*
X117940582Y-84567694D01*
X117939924Y-84570999D01*
X117939924Y-84571000D01*
X118868000Y-84571000D01*
X118912194Y-84589306D01*
X118930500Y-84633500D01*
X118930500Y-85025000D01*
X119463356Y-85025000D01*
X119463356Y-85024999D01*
X119529570Y-85011829D01*
X119529572Y-85011828D01*
X119604657Y-84961657D01*
X119646033Y-84899735D01*
X119685807Y-84873159D01*
X119732723Y-84882491D01*
X119759299Y-84922265D01*
X119760500Y-84934459D01*
X119760499Y-85033089D01*
X119742193Y-85077282D01*
X119246298Y-85573177D01*
X119236290Y-85581305D01*
X119221546Y-85590938D01*
X119198180Y-85620955D01*
X119195620Y-85623855D01*
X119191384Y-85628092D01*
X119191382Y-85628094D01*
X119177599Y-85647399D01*
X119143341Y-85691415D01*
X119140877Y-85695969D01*
X119140843Y-85695950D01*
X119138263Y-85700963D01*
X119138298Y-85700980D01*
X119136025Y-85705629D01*
X119120110Y-85759086D01*
X119102001Y-85811832D01*
X119101149Y-85816941D01*
X119101109Y-85816934D01*
X119100296Y-85822518D01*
X119100335Y-85822523D01*
X119099695Y-85827659D01*
X119102000Y-85883384D01*
X119102000Y-86238044D01*
X119083694Y-86282238D01*
X119061342Y-86296603D01*
X118995288Y-86321240D01*
X118995283Y-86321243D01*
X118882026Y-86406026D01*
X118797243Y-86519283D01*
X118797240Y-86519288D01*
X118747800Y-86651841D01*
X118741500Y-86710435D01*
X118741500Y-87279548D01*
X118741501Y-87279565D01*
X118747800Y-87338156D01*
X118747801Y-87338161D01*
X118797240Y-87470711D01*
X118797241Y-87470713D01*
X118797242Y-87470715D01*
X118882026Y-87583974D01*
X118995285Y-87668758D01*
X119127843Y-87718200D01*
X119186443Y-87724500D01*
X119780556Y-87724499D01*
X119839157Y-87718200D01*
X119971715Y-87668758D01*
X120084974Y-87583974D01*
X120169758Y-87470715D01*
X120219200Y-87338157D01*
X120225500Y-87279557D01*
X120225500Y-87279548D01*
X120566500Y-87279548D01*
X120566501Y-87279565D01*
X120572800Y-87338156D01*
X120572801Y-87338161D01*
X120622240Y-87470711D01*
X120622241Y-87470713D01*
X120622242Y-87470715D01*
X120707026Y-87583974D01*
X120820285Y-87668758D01*
X120952843Y-87718200D01*
X121011443Y-87724500D01*
X121605556Y-87724499D01*
X121664157Y-87718200D01*
X121796715Y-87668758D01*
X121909974Y-87583974D01*
X121951468Y-87528544D01*
X121992606Y-87504136D01*
X122001501Y-87503500D01*
X122216500Y-87503500D01*
X122260694Y-87521806D01*
X122279000Y-87566000D01*
X122279000Y-88795936D01*
X122260694Y-88840130D01*
X122238342Y-88854495D01*
X122205736Y-88866656D01*
X122205731Y-88866659D01*
X122089596Y-88953596D01*
X122002659Y-89069731D01*
X122002656Y-89069736D01*
X121951960Y-89205656D01*
X121945500Y-89265737D01*
X121945500Y-90312246D01*
X121945501Y-90312263D01*
X121951960Y-90372343D01*
X122002656Y-90508263D01*
X122002657Y-90508265D01*
X122002658Y-90508267D01*
X122089596Y-90624404D01*
X122205733Y-90711342D01*
X122341658Y-90762040D01*
X122401745Y-90768500D01*
X123173254Y-90768499D01*
X123233342Y-90762040D01*
X123369267Y-90711342D01*
X123485404Y-90624404D01*
X123572342Y-90508267D01*
X123623040Y-90372342D01*
X123629500Y-90312255D01*
X123629499Y-89916000D01*
X124148001Y-89916000D01*
X124148001Y-90299777D01*
X124158676Y-90373056D01*
X124158678Y-90373060D01*
X124213936Y-90486095D01*
X124302904Y-90575063D01*
X124415941Y-90630322D01*
X124489214Y-90640998D01*
X124489228Y-90640999D01*
X124735499Y-90640999D01*
X124735500Y-90640998D01*
X124735500Y-89916000D01*
X124989500Y-89916000D01*
X124989500Y-90640999D01*
X125235778Y-90640999D01*
X125309056Y-90630323D01*
X125309060Y-90630321D01*
X125422095Y-90575063D01*
X125511063Y-90486095D01*
X125566322Y-90373058D01*
X125577000Y-90299778D01*
X125577000Y-89916000D01*
X124989500Y-89916000D01*
X124735500Y-89916000D01*
X124148001Y-89916000D01*
X123629499Y-89916000D01*
X123629499Y-89661999D01*
X124147999Y-89661999D01*
X124148000Y-89662000D01*
X124735500Y-89662000D01*
X124735500Y-88937000D01*
X124989500Y-88937000D01*
X124989500Y-89662000D01*
X125576999Y-89662000D01*
X125576998Y-89278222D01*
X125566323Y-89204943D01*
X125566321Y-89204939D01*
X125511063Y-89091904D01*
X125422095Y-89002936D01*
X125309058Y-88947677D01*
X125235778Y-88937000D01*
X124989500Y-88937000D01*
X124735500Y-88937000D01*
X124489222Y-88937000D01*
X124415942Y-88947677D01*
X124415939Y-88947678D01*
X124302904Y-89002936D01*
X124213936Y-89091904D01*
X124158677Y-89204941D01*
X124148000Y-89278221D01*
X124147999Y-89661999D01*
X123629499Y-89661999D01*
X123629499Y-89265746D01*
X123623040Y-89205658D01*
X123572342Y-89069733D01*
X123485404Y-88953596D01*
X123369267Y-88866658D01*
X123369265Y-88866657D01*
X123369263Y-88866656D01*
X123336658Y-88854495D01*
X123301648Y-88821899D01*
X123296000Y-88795936D01*
X123296000Y-87782097D01*
X123314306Y-87737903D01*
X123351821Y-87719955D01*
X123368157Y-87718200D01*
X123500715Y-87668758D01*
X123613974Y-87583974D01*
X123698758Y-87470715D01*
X123748200Y-87338157D01*
X123754500Y-87279557D01*
X123754500Y-87122000D01*
X124023000Y-87122000D01*
X124023000Y-87267091D01*
X124033323Y-87337942D01*
X124086750Y-87447231D01*
X124172768Y-87533249D01*
X124282057Y-87586676D01*
X124352909Y-87597000D01*
X124560500Y-87597000D01*
X124560500Y-87122000D01*
X124814500Y-87122000D01*
X124814500Y-87597000D01*
X125022091Y-87597000D01*
X125092942Y-87586676D01*
X125202231Y-87533249D01*
X125288249Y-87447231D01*
X125341676Y-87337942D01*
X125352000Y-87267091D01*
X125352000Y-87122000D01*
X124814500Y-87122000D01*
X124560500Y-87122000D01*
X124023000Y-87122000D01*
X123754500Y-87122000D01*
X123754499Y-86934548D01*
X126397500Y-86934548D01*
X126397501Y-86934565D01*
X126403800Y-86993156D01*
X126403801Y-86993161D01*
X126453240Y-87125711D01*
X126453241Y-87125713D01*
X126453242Y-87125715D01*
X126538026Y-87238974D01*
X126592227Y-87279548D01*
X126593454Y-87280466D01*
X126617864Y-87321605D01*
X126618500Y-87330500D01*
X126618500Y-87363266D01*
X126617864Y-87372159D01*
X126617312Y-87375998D01*
X126617312Y-87375999D01*
X126617864Y-87379838D01*
X126618500Y-87388733D01*
X126618499Y-87412369D01*
X126634080Y-87520732D01*
X126634081Y-87520735D01*
X126694823Y-87653741D01*
X126694826Y-87653746D01*
X126790580Y-87764252D01*
X126913584Y-87843301D01*
X126913589Y-87843304D01*
X127053886Y-87884499D01*
X127053888Y-87884500D01*
X127053889Y-87884500D01*
X127200112Y-87884500D01*
X127200112Y-87884499D01*
X127340411Y-87843304D01*
X127435651Y-87782097D01*
X127463419Y-87764252D01*
X127486251Y-87737903D01*
X127559176Y-87653743D01*
X127619919Y-87520734D01*
X127635500Y-87412368D01*
X127635500Y-87388733D01*
X127636136Y-87379838D01*
X127636688Y-87375999D01*
X127636688Y-87375998D01*
X127636136Y-87372159D01*
X127635500Y-87363266D01*
X127635500Y-87330500D01*
X127653806Y-87286306D01*
X127660546Y-87280466D01*
X127661762Y-87279556D01*
X127715974Y-87238974D01*
X127800758Y-87125715D01*
X127850200Y-86993157D01*
X127856500Y-86934557D01*
X127856499Y-86340444D01*
X127850200Y-86281843D01*
X127800758Y-86149285D01*
X127715974Y-86036026D01*
X127602715Y-85951242D01*
X127602713Y-85951241D01*
X127602711Y-85951240D01*
X127470158Y-85901800D01*
X127411557Y-85895500D01*
X126842451Y-85895500D01*
X126842434Y-85895501D01*
X126783843Y-85901800D01*
X126783838Y-85901801D01*
X126651288Y-85951240D01*
X126651283Y-85951243D01*
X126538026Y-86036026D01*
X126453243Y-86149283D01*
X126453240Y-86149288D01*
X126403800Y-86281841D01*
X126397500Y-86340435D01*
X126397500Y-86934548D01*
X123754499Y-86934548D01*
X123754499Y-86868000D01*
X124023000Y-86868000D01*
X124560500Y-86868000D01*
X124560500Y-86393000D01*
X124814500Y-86393000D01*
X124814500Y-86868000D01*
X125352000Y-86868000D01*
X125352000Y-86722908D01*
X125341676Y-86652057D01*
X125288249Y-86542768D01*
X125202231Y-86456750D01*
X125092942Y-86403323D01*
X125022091Y-86393000D01*
X124814500Y-86393000D01*
X124560500Y-86393000D01*
X124352909Y-86393000D01*
X124282057Y-86403323D01*
X124172768Y-86456750D01*
X124086750Y-86542768D01*
X124033323Y-86652057D01*
X124023000Y-86722908D01*
X124023000Y-86868000D01*
X123754499Y-86868000D01*
X123754499Y-86710444D01*
X123748200Y-86651843D01*
X123698758Y-86519285D01*
X123613974Y-86406026D01*
X123500715Y-86321242D01*
X123500713Y-86321241D01*
X123500711Y-86321240D01*
X123368158Y-86271800D01*
X123309557Y-86265500D01*
X122615451Y-86265500D01*
X122615434Y-86265501D01*
X122556843Y-86271800D01*
X122556838Y-86271801D01*
X122424288Y-86321240D01*
X122424283Y-86321243D01*
X122375259Y-86357942D01*
X122311026Y-86406026D01*
X122269531Y-86461455D01*
X122228394Y-86485864D01*
X122219499Y-86486500D01*
X122001501Y-86486500D01*
X121957307Y-86468194D01*
X121951471Y-86461459D01*
X121909974Y-86406026D01*
X121796715Y-86321242D01*
X121796713Y-86321241D01*
X121796711Y-86321240D01*
X121664158Y-86271800D01*
X121605557Y-86265500D01*
X121011451Y-86265500D01*
X121011434Y-86265501D01*
X120952843Y-86271800D01*
X120952838Y-86271801D01*
X120820288Y-86321240D01*
X120820283Y-86321243D01*
X120707026Y-86406026D01*
X120622243Y-86519283D01*
X120622240Y-86519288D01*
X120572800Y-86651841D01*
X120566500Y-86710435D01*
X120566500Y-87279548D01*
X120225500Y-87279548D01*
X120225499Y-86710444D01*
X120219200Y-86651843D01*
X120169758Y-86519285D01*
X120084974Y-86406026D01*
X119971715Y-86321242D01*
X119971713Y-86321241D01*
X119971711Y-86321240D01*
X119905657Y-86296603D01*
X119870647Y-86264007D01*
X119864999Y-86238044D01*
X119864999Y-86162000D01*
X119864999Y-86059407D01*
X119883304Y-86015217D01*
X120379204Y-85519317D01*
X120389205Y-85511196D01*
X120403956Y-85501560D01*
X120427321Y-85471538D01*
X120429886Y-85468636D01*
X120434114Y-85464409D01*
X120440471Y-85455504D01*
X120447899Y-85445101D01*
X120472126Y-85413974D01*
X120482158Y-85401085D01*
X120482158Y-85401082D01*
X120484623Y-85396530D01*
X120484659Y-85396549D01*
X120487238Y-85391540D01*
X120487200Y-85391522D01*
X120489475Y-85386868D01*
X120492860Y-85375500D01*
X120505388Y-85333417D01*
X120523500Y-85280661D01*
X120523500Y-85280659D01*
X120524353Y-85275552D01*
X120524393Y-85275558D01*
X120525205Y-85269982D01*
X120525165Y-85269977D01*
X120525805Y-85264844D01*
X120523500Y-85209105D01*
X120523500Y-84831645D01*
X123536499Y-84831645D01*
X123546539Y-84900550D01*
X123546539Y-84900551D01*
X123598499Y-85006838D01*
X123682161Y-85090500D01*
X123721158Y-85109564D01*
X123788450Y-85142461D01*
X123857354Y-85152500D01*
X125199646Y-85152500D01*
X125268550Y-85142461D01*
X125374840Y-85090499D01*
X125374839Y-85090499D01*
X125379492Y-85088225D01*
X125379971Y-85089205D01*
X125410267Y-85079500D01*
X126338128Y-85079500D01*
X126382322Y-85097806D01*
X126400270Y-85135319D01*
X126403800Y-85168157D01*
X126403801Y-85168161D01*
X126453240Y-85300711D01*
X126453241Y-85300713D01*
X126453242Y-85300715D01*
X126538026Y-85413974D01*
X126651285Y-85498758D01*
X126783843Y-85548200D01*
X126842443Y-85554500D01*
X127411556Y-85554499D01*
X127470157Y-85548200D01*
X127602715Y-85498758D01*
X127715974Y-85413974D01*
X127800758Y-85300715D01*
X127850200Y-85168157D01*
X127856500Y-85109557D01*
X127856499Y-84515444D01*
X127850200Y-84456843D01*
X127800758Y-84324285D01*
X127715974Y-84211026D01*
X127602715Y-84126242D01*
X127602714Y-84126241D01*
X127599136Y-84123563D01*
X127600855Y-84121266D01*
X127576554Y-84091056D01*
X127581709Y-84043499D01*
X127618982Y-84013516D01*
X127636538Y-84011000D01*
X136344647Y-84011000D01*
X136388841Y-84029306D01*
X140330607Y-87971072D01*
X140332450Y-87973083D01*
X140358695Y-88004360D01*
X140394055Y-88024775D01*
X140396342Y-88026233D01*
X140429787Y-88049651D01*
X140429789Y-88049652D01*
X140435564Y-88051199D01*
X140450635Y-88057441D01*
X140455815Y-88060432D01*
X140496032Y-88067522D01*
X140498667Y-88068107D01*
X140538112Y-88078677D01*
X140578781Y-88075118D01*
X140581503Y-88075000D01*
X140735820Y-88075000D01*
X140780014Y-88093306D01*
X140798320Y-88137500D01*
X140780014Y-88181694D01*
X140777926Y-88183688D01*
X140680266Y-88272717D01*
X140680259Y-88272724D01*
X140556915Y-88436059D01*
X140556912Y-88436065D01*
X140465672Y-88619298D01*
X140409655Y-88816174D01*
X140409653Y-88816186D01*
X140390768Y-89019995D01*
X140390768Y-89020004D01*
X140409653Y-89223813D01*
X140409655Y-89223825D01*
X140425133Y-89278222D01*
X140465672Y-89420701D01*
X140556912Y-89603935D01*
X140556913Y-89603936D01*
X140556915Y-89603940D01*
X140680259Y-89767275D01*
X140680264Y-89767280D01*
X140680268Y-89767285D01*
X140761745Y-89841561D01*
X140831533Y-89905182D01*
X140831534Y-89905183D01*
X140831538Y-89905186D01*
X141005573Y-90012944D01*
X141196444Y-90086888D01*
X141397653Y-90124500D01*
X141397656Y-90124500D01*
X141602344Y-90124500D01*
X141602347Y-90124500D01*
X141803556Y-90086888D01*
X141994427Y-90012944D01*
X142168462Y-89905186D01*
X142319732Y-89767285D01*
X142323341Y-89762507D01*
X142443084Y-89603940D01*
X142443083Y-89603940D01*
X142443088Y-89603935D01*
X142534328Y-89420701D01*
X142590345Y-89223821D01*
X142592028Y-89205658D01*
X142609232Y-89020004D01*
X142930768Y-89020004D01*
X142949653Y-89223813D01*
X142949655Y-89223825D01*
X142965133Y-89278222D01*
X143005672Y-89420701D01*
X143096912Y-89603935D01*
X143096913Y-89603936D01*
X143096915Y-89603940D01*
X143220259Y-89767275D01*
X143220264Y-89767280D01*
X143220268Y-89767285D01*
X143301745Y-89841561D01*
X143371533Y-89905182D01*
X143371534Y-89905183D01*
X143371538Y-89905186D01*
X143545573Y-90012944D01*
X143736444Y-90086888D01*
X143937653Y-90124500D01*
X143937656Y-90124500D01*
X144142344Y-90124500D01*
X144142347Y-90124500D01*
X144343556Y-90086888D01*
X144534427Y-90012944D01*
X144708462Y-89905186D01*
X144859732Y-89767285D01*
X144863341Y-89762507D01*
X144983084Y-89603940D01*
X144983083Y-89603940D01*
X144983088Y-89603935D01*
X145074328Y-89420701D01*
X145130345Y-89223821D01*
X145132028Y-89205658D01*
X145149232Y-89020004D01*
X145149232Y-89019995D01*
X145130346Y-88816186D01*
X145130344Y-88816174D01*
X145094488Y-88690156D01*
X145074328Y-88619299D01*
X144983088Y-88436065D01*
X144983085Y-88436061D01*
X144983084Y-88436059D01*
X144859740Y-88272724D01*
X144859735Y-88272719D01*
X144859732Y-88272715D01*
X144759887Y-88181694D01*
X144708466Y-88134817D01*
X144708463Y-88134815D01*
X144708462Y-88134814D01*
X144534427Y-88027056D01*
X144534425Y-88027055D01*
X144465736Y-88000445D01*
X144343556Y-87953112D01*
X144343553Y-87953111D01*
X144343552Y-87953111D01*
X144142351Y-87915500D01*
X144142347Y-87915500D01*
X143937653Y-87915500D01*
X143937648Y-87915500D01*
X143736447Y-87953111D01*
X143545574Y-88027055D01*
X143371533Y-88134817D01*
X143220266Y-88272717D01*
X143220259Y-88272724D01*
X143096915Y-88436059D01*
X143096912Y-88436065D01*
X143005672Y-88619298D01*
X142949655Y-88816174D01*
X142949653Y-88816186D01*
X142930768Y-89019995D01*
X142930768Y-89020004D01*
X142609232Y-89020004D01*
X142609232Y-89019995D01*
X142590346Y-88816186D01*
X142590344Y-88816174D01*
X142554488Y-88690156D01*
X142534328Y-88619299D01*
X142443088Y-88436065D01*
X142443085Y-88436061D01*
X142443084Y-88436059D01*
X142319740Y-88272724D01*
X142319735Y-88272719D01*
X142319732Y-88272715D01*
X142222073Y-88183687D01*
X142201747Y-88140386D01*
X142217992Y-88095394D01*
X142261294Y-88075067D01*
X142264180Y-88075000D01*
X142747752Y-88075000D01*
X142750473Y-88075118D01*
X142763257Y-88076237D01*
X142791139Y-88078677D01*
X142791139Y-88078676D01*
X142791143Y-88078677D01*
X142830576Y-88068109D01*
X142833226Y-88067521D01*
X142873440Y-88060432D01*
X142878615Y-88057443D01*
X142893690Y-88051199D01*
X142899466Y-88049652D01*
X142919585Y-88035564D01*
X142932908Y-88026236D01*
X142935208Y-88024770D01*
X142935213Y-88024767D01*
X142970560Y-88004360D01*
X142996813Y-87973070D01*
X142998623Y-87971095D01*
X143481604Y-87488114D01*
X143525797Y-87469809D01*
X143548372Y-87474028D01*
X143736444Y-87546888D01*
X143937653Y-87584500D01*
X143937656Y-87584500D01*
X144142344Y-87584500D01*
X144142347Y-87584500D01*
X144343556Y-87546888D01*
X144534427Y-87472944D01*
X144708462Y-87365186D01*
X144859732Y-87227285D01*
X144983088Y-87063935D01*
X145074328Y-86880701D01*
X145130345Y-86683821D01*
X145130346Y-86683813D01*
X145149232Y-86480004D01*
X145149232Y-86479995D01*
X145130346Y-86276186D01*
X145130344Y-86276174D01*
X145095611Y-86154101D01*
X145074328Y-86079299D01*
X144983088Y-85896065D01*
X144983085Y-85896061D01*
X144983084Y-85896059D01*
X144859740Y-85732724D01*
X144859735Y-85732719D01*
X144859732Y-85732715D01*
X144759887Y-85641694D01*
X144708466Y-85594817D01*
X144708463Y-85594815D01*
X144708462Y-85594814D01*
X144534427Y-85487056D01*
X144534425Y-85487055D01*
X144475839Y-85464359D01*
X144343556Y-85413112D01*
X144343553Y-85413111D01*
X144343552Y-85413111D01*
X144142351Y-85375500D01*
X144142347Y-85375500D01*
X143937653Y-85375500D01*
X143937648Y-85375500D01*
X143736447Y-85413111D01*
X143545574Y-85487055D01*
X143371533Y-85594817D01*
X143220266Y-85732717D01*
X143220259Y-85732724D01*
X143096915Y-85896059D01*
X143096912Y-85896065D01*
X143005672Y-86079298D01*
X142949655Y-86276174D01*
X142949653Y-86276186D01*
X142930768Y-86479995D01*
X142930768Y-86480004D01*
X142949653Y-86683813D01*
X142949655Y-86683825D01*
X142987350Y-86816306D01*
X143005672Y-86880701D01*
X143032492Y-86934564D01*
X143046761Y-86963219D01*
X143050073Y-87010940D01*
X143035007Y-87035272D01*
X142649586Y-87420694D01*
X142605392Y-87439000D01*
X142248823Y-87439000D01*
X142204629Y-87420694D01*
X142186323Y-87376500D01*
X142204629Y-87332306D01*
X142206717Y-87330312D01*
X142216268Y-87321605D01*
X142319732Y-87227285D01*
X142443088Y-87063935D01*
X142534328Y-86880701D01*
X142590345Y-86683821D01*
X142590346Y-86683813D01*
X142609232Y-86480004D01*
X142609232Y-86479995D01*
X142590346Y-86276186D01*
X142590344Y-86276174D01*
X142555611Y-86154101D01*
X142534328Y-86079299D01*
X142443088Y-85896065D01*
X142443085Y-85896061D01*
X142443084Y-85896059D01*
X142319740Y-85732724D01*
X142319735Y-85732719D01*
X142319732Y-85732715D01*
X142222073Y-85643687D01*
X142201747Y-85600386D01*
X142217992Y-85555394D01*
X142261294Y-85535067D01*
X142264180Y-85535000D01*
X142747752Y-85535000D01*
X142750473Y-85535118D01*
X142763257Y-85536237D01*
X142791139Y-85538677D01*
X142791139Y-85538676D01*
X142791143Y-85538677D01*
X142830576Y-85528109D01*
X142833226Y-85527521D01*
X142873440Y-85520432D01*
X142878615Y-85517443D01*
X142893690Y-85511199D01*
X142899466Y-85509652D01*
X142919585Y-85495564D01*
X142932908Y-85486236D01*
X142935208Y-85484770D01*
X142970560Y-85464360D01*
X142996813Y-85433070D01*
X142998623Y-85431095D01*
X143481604Y-84948114D01*
X143525797Y-84929809D01*
X143548372Y-84934028D01*
X143736444Y-85006888D01*
X143736448Y-85006888D01*
X143736449Y-85006889D01*
X143803902Y-85019498D01*
X143937653Y-85044500D01*
X143937656Y-85044500D01*
X144142344Y-85044500D01*
X144142347Y-85044500D01*
X144343556Y-85006888D01*
X144534427Y-84932944D01*
X144708462Y-84825186D01*
X144859732Y-84687285D01*
X144869241Y-84674694D01*
X144983084Y-84523940D01*
X144983083Y-84523940D01*
X144983088Y-84523935D01*
X145074328Y-84340701D01*
X145130345Y-84143821D01*
X145132766Y-84117694D01*
X145149232Y-83940004D01*
X145149232Y-83939995D01*
X145130346Y-83736186D01*
X145130344Y-83736174D01*
X145109062Y-83661378D01*
X145074328Y-83539299D01*
X144983088Y-83356065D01*
X144983085Y-83356061D01*
X144983084Y-83356059D01*
X144859740Y-83192724D01*
X144859735Y-83192719D01*
X144859732Y-83192715D01*
X144758521Y-83100449D01*
X144708466Y-83054817D01*
X144708463Y-83054815D01*
X144708462Y-83054814D01*
X144534427Y-82947056D01*
X144534425Y-82947055D01*
X144475839Y-82924359D01*
X144343556Y-82873112D01*
X144343553Y-82873111D01*
X144343552Y-82873111D01*
X144142351Y-82835500D01*
X144142347Y-82835500D01*
X143937653Y-82835500D01*
X143937648Y-82835500D01*
X143736447Y-82873111D01*
X143545574Y-82947055D01*
X143371533Y-83054817D01*
X143220266Y-83192717D01*
X143220259Y-83192724D01*
X143096915Y-83356059D01*
X143096912Y-83356065D01*
X143005672Y-83539298D01*
X142949655Y-83736174D01*
X142949653Y-83736186D01*
X142930768Y-83939995D01*
X142930768Y-83940004D01*
X142949653Y-84143813D01*
X142949655Y-84143825D01*
X142998786Y-84316500D01*
X143005672Y-84340701D01*
X143029801Y-84389160D01*
X143046761Y-84423219D01*
X143050073Y-84470940D01*
X143035007Y-84495272D01*
X142649586Y-84880694D01*
X142605392Y-84899000D01*
X142248823Y-84899000D01*
X142204629Y-84880694D01*
X142186323Y-84836500D01*
X142204629Y-84792306D01*
X142206717Y-84790312D01*
X142233698Y-84765715D01*
X142319732Y-84687285D01*
X142329241Y-84674694D01*
X142443084Y-84523940D01*
X142443083Y-84523940D01*
X142443088Y-84523935D01*
X142534328Y-84340701D01*
X142590345Y-84143821D01*
X142592766Y-84117694D01*
X142609232Y-83940004D01*
X142609232Y-83939995D01*
X142590346Y-83736186D01*
X142590344Y-83736174D01*
X142569062Y-83661378D01*
X142534328Y-83539299D01*
X142443088Y-83356065D01*
X142443085Y-83356061D01*
X142443084Y-83356059D01*
X142319740Y-83192724D01*
X142319735Y-83192719D01*
X142319732Y-83192715D01*
X142222073Y-83103687D01*
X142201747Y-83060386D01*
X142217992Y-83015394D01*
X142261294Y-82995067D01*
X142264180Y-82995000D01*
X142747752Y-82995000D01*
X142750473Y-82995118D01*
X142763257Y-82996237D01*
X142791139Y-82998677D01*
X142791139Y-82998676D01*
X142791143Y-82998677D01*
X142830576Y-82988109D01*
X142833226Y-82987521D01*
X142873440Y-82980432D01*
X142878615Y-82977443D01*
X142893690Y-82971199D01*
X142899466Y-82969652D01*
X142922478Y-82953539D01*
X142932908Y-82946236D01*
X142935208Y-82944770D01*
X142937408Y-82943500D01*
X142970560Y-82924360D01*
X142996813Y-82893070D01*
X142998623Y-82891095D01*
X143481604Y-82408114D01*
X143525797Y-82389809D01*
X143548372Y-82394028D01*
X143736444Y-82466888D01*
X143736448Y-82466888D01*
X143736449Y-82466889D01*
X143837048Y-82485693D01*
X143937653Y-82504500D01*
X143937656Y-82504500D01*
X144142344Y-82504500D01*
X144142347Y-82504500D01*
X144343556Y-82466888D01*
X144534427Y-82392944D01*
X144708462Y-82285186D01*
X144859732Y-82147285D01*
X144882787Y-82116756D01*
X144983084Y-81983940D01*
X144983083Y-81983940D01*
X144983088Y-81983935D01*
X145074328Y-81800701D01*
X145130345Y-81603821D01*
X145132400Y-81581645D01*
X145149232Y-81400004D01*
X145149232Y-81399995D01*
X145130346Y-81196186D01*
X145130344Y-81196174D01*
X145092650Y-81063694D01*
X145074328Y-80999299D01*
X144983088Y-80816065D01*
X144983085Y-80816061D01*
X144983084Y-80816059D01*
X144859740Y-80652724D01*
X144859735Y-80652719D01*
X144859732Y-80652715D01*
X144764834Y-80566204D01*
X144708466Y-80514817D01*
X144708463Y-80514815D01*
X144708462Y-80514814D01*
X144534427Y-80407056D01*
X144534425Y-80407055D01*
X144478948Y-80385563D01*
X144343556Y-80333112D01*
X144343553Y-80333111D01*
X144343552Y-80333111D01*
X144142351Y-80295500D01*
X144142347Y-80295500D01*
X143937653Y-80295500D01*
X143937648Y-80295500D01*
X143736447Y-80333111D01*
X143736444Y-80333111D01*
X143736444Y-80333112D01*
X143723238Y-80338228D01*
X143545574Y-80407055D01*
X143371533Y-80514817D01*
X143235677Y-80638667D01*
X143229563Y-80644242D01*
X143220266Y-80652717D01*
X143220259Y-80652724D01*
X143096915Y-80816059D01*
X143096912Y-80816065D01*
X143005672Y-80999298D01*
X142949655Y-81196174D01*
X142949653Y-81196186D01*
X142930768Y-81399995D01*
X142930768Y-81400004D01*
X142949653Y-81603813D01*
X142949655Y-81603825D01*
X143005672Y-81800701D01*
X143046761Y-81883219D01*
X143050073Y-81930940D01*
X143035007Y-81955272D01*
X142649586Y-82340694D01*
X142605392Y-82359000D01*
X142248823Y-82359000D01*
X142204629Y-82340694D01*
X142186323Y-82296500D01*
X142204629Y-82252306D01*
X142206717Y-82250312D01*
X142211109Y-82246307D01*
X142319732Y-82147285D01*
X142342787Y-82116756D01*
X142443084Y-81983940D01*
X142443083Y-81983940D01*
X142443088Y-81983935D01*
X142534328Y-81800701D01*
X142590345Y-81603821D01*
X142592400Y-81581645D01*
X142609232Y-81400004D01*
X142609232Y-81399995D01*
X142590346Y-81196186D01*
X142590344Y-81196174D01*
X142552650Y-81063694D01*
X142534328Y-80999299D01*
X142443088Y-80816065D01*
X142443085Y-80816061D01*
X142443084Y-80816059D01*
X142319740Y-80652724D01*
X142319735Y-80652719D01*
X142319732Y-80652715D01*
X142224834Y-80566204D01*
X142168466Y-80514817D01*
X142168463Y-80514815D01*
X142168462Y-80514814D01*
X141994427Y-80407056D01*
X141994425Y-80407055D01*
X141938948Y-80385563D01*
X141803556Y-80333112D01*
X141803553Y-80333111D01*
X141803552Y-80333111D01*
X141602351Y-80295500D01*
X141602347Y-80295500D01*
X141397653Y-80295500D01*
X141397648Y-80295500D01*
X141196447Y-80333111D01*
X141196444Y-80333111D01*
X141196444Y-80333112D01*
X141183238Y-80338228D01*
X141005574Y-80407055D01*
X140831533Y-80514817D01*
X140695677Y-80638667D01*
X140689563Y-80644242D01*
X140680266Y-80652717D01*
X140680259Y-80652724D01*
X140556915Y-80816059D01*
X140556912Y-80816065D01*
X140465672Y-80999298D01*
X140455058Y-81036604D01*
X140425357Y-81074101D01*
X140394944Y-81082000D01*
X140358608Y-81082000D01*
X140314414Y-81063694D01*
X139681646Y-80430926D01*
X139679803Y-80428915D01*
X139653560Y-80397640D01*
X139618213Y-80377232D01*
X139615914Y-80375767D01*
X139594666Y-80360890D01*
X139582466Y-80352348D01*
X139582465Y-80352347D01*
X139582464Y-80352347D01*
X139576682Y-80350797D01*
X139561621Y-80344559D01*
X139561492Y-80344485D01*
X139556440Y-80341568D01*
X139516219Y-80334475D01*
X139513583Y-80333891D01*
X139487422Y-80326881D01*
X139474141Y-80323322D01*
X139438361Y-80326453D01*
X139433473Y-80326881D01*
X139430752Y-80327000D01*
X127898502Y-80327000D01*
X127854308Y-80308694D01*
X127836002Y-80264500D01*
X127839943Y-80242658D01*
X127844588Y-80230201D01*
X127850200Y-80215157D01*
X127856500Y-80156557D01*
X127856499Y-79562444D01*
X127850200Y-79503843D01*
X127800758Y-79371285D01*
X127715974Y-79258026D01*
X127715972Y-79258024D01*
X127715971Y-79258023D01*
X127660545Y-79216531D01*
X127636136Y-79175392D01*
X127635500Y-79166498D01*
X127635500Y-79133733D01*
X127636136Y-79124838D01*
X127636688Y-79120999D01*
X127636688Y-79120998D01*
X127636136Y-79117159D01*
X127635500Y-79108266D01*
X127635500Y-79084630D01*
X127621462Y-78987000D01*
X140530782Y-78987000D01*
X140537136Y-79051523D01*
X140593004Y-79235692D01*
X140683720Y-79405412D01*
X140683728Y-79405423D01*
X140805812Y-79554184D01*
X140805815Y-79554187D01*
X140954576Y-79676271D01*
X140954587Y-79676279D01*
X141124307Y-79766995D01*
X141308476Y-79822863D01*
X141373000Y-79829217D01*
X141373000Y-79346881D01*
X141464237Y-79360000D01*
X141535763Y-79360000D01*
X141627000Y-79346881D01*
X141627000Y-79829217D01*
X141691523Y-79822863D01*
X141875692Y-79766995D01*
X142045412Y-79676279D01*
X142045423Y-79676271D01*
X142194184Y-79554187D01*
X142194187Y-79554184D01*
X142316271Y-79405423D01*
X142316279Y-79405412D01*
X142406995Y-79235692D01*
X142462863Y-79051523D01*
X142469218Y-78987000D01*
X143070782Y-78987000D01*
X143077136Y-79051523D01*
X143133004Y-79235692D01*
X143223720Y-79405412D01*
X143223728Y-79405423D01*
X143345812Y-79554184D01*
X143345815Y-79554187D01*
X143494576Y-79676271D01*
X143494587Y-79676279D01*
X143664307Y-79766995D01*
X143848476Y-79822863D01*
X143913000Y-79829217D01*
X143913000Y-79346881D01*
X144004237Y-79360000D01*
X144075763Y-79360000D01*
X144167000Y-79346881D01*
X144167000Y-79829217D01*
X144231523Y-79822863D01*
X144415692Y-79766995D01*
X144585412Y-79676279D01*
X144585423Y-79676271D01*
X144734184Y-79554187D01*
X144734187Y-79554184D01*
X144856271Y-79405423D01*
X144856279Y-79405412D01*
X144946995Y-79235692D01*
X145002863Y-79051523D01*
X145009218Y-78987000D01*
X144523818Y-78987000D01*
X144540000Y-78931889D01*
X144540000Y-78788111D01*
X144523818Y-78733000D01*
X145009217Y-78733000D01*
X145002863Y-78668476D01*
X144946995Y-78484307D01*
X144856279Y-78314587D01*
X144856271Y-78314576D01*
X144734187Y-78165815D01*
X144734184Y-78165812D01*
X144585423Y-78043728D01*
X144585412Y-78043720D01*
X144415692Y-77953004D01*
X144231524Y-77897136D01*
X144167000Y-77890780D01*
X144167000Y-78373118D01*
X144075763Y-78360000D01*
X144004237Y-78360000D01*
X143913000Y-78373118D01*
X143913000Y-77890781D01*
X143912999Y-77890780D01*
X143848475Y-77897136D01*
X143664307Y-77953004D01*
X143494587Y-78043720D01*
X143494576Y-78043728D01*
X143345815Y-78165812D01*
X143345812Y-78165815D01*
X143223728Y-78314576D01*
X143223720Y-78314587D01*
X143133004Y-78484307D01*
X143077136Y-78668476D01*
X143070782Y-78733000D01*
X143556182Y-78733000D01*
X143540000Y-78788111D01*
X143540000Y-78931889D01*
X143556182Y-78987000D01*
X143070782Y-78987000D01*
X142469218Y-78987000D01*
X141983818Y-78987000D01*
X142000000Y-78931889D01*
X142000000Y-78788111D01*
X141983818Y-78733000D01*
X142469217Y-78733000D01*
X142462863Y-78668476D01*
X142406995Y-78484307D01*
X142316279Y-78314587D01*
X142316271Y-78314576D01*
X142194187Y-78165815D01*
X142194184Y-78165812D01*
X142045423Y-78043728D01*
X142045412Y-78043720D01*
X141875692Y-77953004D01*
X141691524Y-77897136D01*
X141627000Y-77890780D01*
X141627000Y-78373118D01*
X141535763Y-78360000D01*
X141464237Y-78360000D01*
X141373000Y-78373118D01*
X141373000Y-77890780D01*
X141372999Y-77890780D01*
X141308475Y-77897136D01*
X141124307Y-77953004D01*
X140954587Y-78043720D01*
X140954576Y-78043728D01*
X140805815Y-78165812D01*
X140805812Y-78165815D01*
X140683728Y-78314576D01*
X140683720Y-78314587D01*
X140593004Y-78484307D01*
X140537136Y-78668476D01*
X140530782Y-78733000D01*
X141016182Y-78733000D01*
X141000000Y-78788111D01*
X141000000Y-78931889D01*
X141016182Y-78987000D01*
X140530782Y-78987000D01*
X127621462Y-78987000D01*
X127619919Y-78976267D01*
X127619918Y-78976264D01*
X127559176Y-78843258D01*
X127559176Y-78843257D01*
X127463638Y-78733000D01*
X127463419Y-78732747D01*
X127340415Y-78653698D01*
X127340406Y-78653694D01*
X127200113Y-78612500D01*
X127200111Y-78612500D01*
X127053889Y-78612500D01*
X127053887Y-78612500D01*
X126913593Y-78653694D01*
X126913584Y-78653698D01*
X126790580Y-78732747D01*
X126694826Y-78843253D01*
X126694823Y-78843258D01*
X126634081Y-78976264D01*
X126634080Y-78976267D01*
X126618500Y-79084630D01*
X126618500Y-79108266D01*
X126617864Y-79117159D01*
X126617312Y-79120998D01*
X126617312Y-79120999D01*
X126617864Y-79124838D01*
X126618500Y-79133733D01*
X126618500Y-79166498D01*
X126600194Y-79210692D01*
X126593455Y-79216531D01*
X126538028Y-79258023D01*
X126453243Y-79371283D01*
X126453239Y-79371290D01*
X126428604Y-79437341D01*
X126396008Y-79472352D01*
X126370045Y-79478000D01*
X126318550Y-79478000D01*
X126305725Y-79476670D01*
X126301690Y-79475824D01*
X126288483Y-79473054D01*
X126288482Y-79473054D01*
X126255971Y-79477107D01*
X126250736Y-79477760D01*
X126246870Y-79478000D01*
X126240889Y-79478000D01*
X126217493Y-79481904D01*
X126162140Y-79488803D01*
X126157181Y-79490280D01*
X126157169Y-79490242D01*
X126151795Y-79491964D01*
X126151808Y-79492002D01*
X126146915Y-79493681D01*
X126097868Y-79520223D01*
X126047754Y-79544722D01*
X126043539Y-79547732D01*
X126043516Y-79547699D01*
X126039002Y-79551065D01*
X126039027Y-79551097D01*
X126034938Y-79554279D01*
X125997169Y-79595306D01*
X125997169Y-79595307D01*
X125916198Y-79676279D01*
X125844283Y-79748194D01*
X125800089Y-79766500D01*
X125410267Y-79766500D01*
X125379971Y-79756794D01*
X125379492Y-79757775D01*
X125268550Y-79703539D01*
X125199646Y-79693500D01*
X123857354Y-79693500D01*
X123788449Y-79703539D01*
X123788448Y-79703539D01*
X123682161Y-79755499D01*
X123598499Y-79839161D01*
X123546539Y-79945448D01*
X123546539Y-79945449D01*
X123536499Y-80014354D01*
X123536499Y-80281645D01*
X123544163Y-80334242D01*
X123546539Y-80350550D01*
X123564575Y-80387443D01*
X123592982Y-80445551D01*
X123595945Y-80493294D01*
X123592982Y-80500449D01*
X123546539Y-80595450D01*
X123536499Y-80664354D01*
X123536499Y-80931645D01*
X123543927Y-80982625D01*
X123546539Y-81000550D01*
X123571011Y-81050608D01*
X123592982Y-81095551D01*
X123595945Y-81143294D01*
X123592982Y-81150449D01*
X123546539Y-81245450D01*
X123536499Y-81314354D01*
X123536499Y-81581645D01*
X123539731Y-81603825D01*
X123546539Y-81650550D01*
X123579098Y-81717151D01*
X123592982Y-81745551D01*
X123595945Y-81793294D01*
X123592982Y-81800449D01*
X123546539Y-81895450D01*
X123536499Y-81964354D01*
X123536499Y-82231645D01*
X123544415Y-82285973D01*
X123546539Y-82300550D01*
X123578423Y-82365770D01*
X123592982Y-82395551D01*
X123595945Y-82443294D01*
X123592982Y-82450449D01*
X123546539Y-82545450D01*
X123536499Y-82614354D01*
X123536499Y-82881645D01*
X123537873Y-82891072D01*
X123546539Y-82950550D01*
X123578780Y-83016500D01*
X123592982Y-83045551D01*
X123595945Y-83093294D01*
X123592982Y-83100449D01*
X123546539Y-83195450D01*
X123536499Y-83264354D01*
X123536499Y-83531645D01*
X123543930Y-83582642D01*
X123546539Y-83600550D01*
X123564845Y-83637995D01*
X123592982Y-83695551D01*
X123595945Y-83743294D01*
X123592982Y-83750449D01*
X123546539Y-83845450D01*
X123536499Y-83914354D01*
X123536499Y-84181645D01*
X123544467Y-84236329D01*
X123546539Y-84250550D01*
X123566536Y-84291455D01*
X123592982Y-84345551D01*
X123595945Y-84393294D01*
X123592982Y-84400449D01*
X123546539Y-84495450D01*
X123536499Y-84564354D01*
X123536499Y-84831645D01*
X120523500Y-84831645D01*
X120523500Y-83739049D01*
X120524830Y-83726222D01*
X120526974Y-83716000D01*
X120528445Y-83708983D01*
X120523739Y-83671235D01*
X120523500Y-83667369D01*
X120523500Y-83661394D01*
X120523500Y-83661389D01*
X120519596Y-83637995D01*
X120512696Y-83582640D01*
X120512691Y-83582631D01*
X120511217Y-83577675D01*
X120511257Y-83577662D01*
X120509541Y-83572303D01*
X120509501Y-83572317D01*
X120507818Y-83567419D01*
X120507818Y-83567414D01*
X120481270Y-83518358D01*
X120456776Y-83468254D01*
X120456775Y-83468253D01*
X120456775Y-83468252D01*
X120453768Y-83464040D01*
X120453801Y-83464016D01*
X120450433Y-83459499D01*
X120450401Y-83459524D01*
X120447220Y-83455438D01*
X120406181Y-83417659D01*
X120149322Y-83160800D01*
X120141192Y-83150788D01*
X120131561Y-83136046D01*
X120131560Y-83136044D01*
X120101539Y-83112678D01*
X120098649Y-83110126D01*
X120094409Y-83105886D01*
X120094408Y-83105885D01*
X120094407Y-83105884D01*
X120075100Y-83092099D01*
X120031084Y-83057841D01*
X120026529Y-83055376D01*
X120026547Y-83055342D01*
X120021541Y-83052764D01*
X120021524Y-83052800D01*
X120016872Y-83050526D01*
X120016870Y-83050525D01*
X119963413Y-83034610D01*
X119910661Y-83016499D01*
X119905552Y-83015647D01*
X119905558Y-83015607D01*
X119899980Y-83014794D01*
X119899975Y-83014835D01*
X119894843Y-83014194D01*
X119839116Y-83016500D01*
X119715087Y-83016500D01*
X119670893Y-82998194D01*
X119652587Y-82954000D01*
X119653788Y-82941807D01*
X119667076Y-82875000D01*
X117939924Y-82875000D01*
X117952170Y-82936569D01*
X117952171Y-82936570D01*
X117953282Y-82938233D01*
X117953672Y-82940194D01*
X117954528Y-82942261D01*
X117954117Y-82942431D01*
X117962614Y-82985150D01*
X117945509Y-83017151D01*
X117873499Y-83089161D01*
X117821539Y-83195448D01*
X117821539Y-83195449D01*
X117811500Y-83264354D01*
X117811500Y-83531651D01*
X117811663Y-83533900D01*
X117810853Y-83533958D01*
X117799731Y-83577865D01*
X117758635Y-83602348D01*
X117749630Y-83603000D01*
X115829451Y-83603000D01*
X115785257Y-83584694D01*
X115779420Y-83577958D01*
X115777974Y-83576026D01*
X115664715Y-83491242D01*
X115664713Y-83491241D01*
X115664711Y-83491240D01*
X115532158Y-83441800D01*
X115473557Y-83435500D01*
X114904451Y-83435500D01*
X114904434Y-83435501D01*
X114845843Y-83441800D01*
X114845838Y-83441801D01*
X114713288Y-83491240D01*
X114713283Y-83491243D01*
X114600026Y-83576026D01*
X114515243Y-83689283D01*
X114515240Y-83689287D01*
X114495639Y-83741842D01*
X114463043Y-83776852D01*
X114437080Y-83782500D01*
X112123713Y-83782500D01*
X112079519Y-83764194D01*
X110042873Y-81727548D01*
X114459500Y-81727548D01*
X114459501Y-81727565D01*
X114465800Y-81786156D01*
X114465801Y-81786161D01*
X114515240Y-81918711D01*
X114515241Y-81918713D01*
X114515242Y-81918715D01*
X114600026Y-82031974D01*
X114713285Y-82116758D01*
X114845843Y-82166200D01*
X114904443Y-82172500D01*
X115473556Y-82172499D01*
X115532157Y-82166200D01*
X115664715Y-82116758D01*
X115777974Y-82031974D01*
X115861330Y-81920621D01*
X115902469Y-81896213D01*
X115948819Y-81908043D01*
X115955558Y-81913883D01*
X116435430Y-82393755D01*
X116437764Y-82396367D01*
X116441802Y-82401430D01*
X116462902Y-82427889D01*
X116462903Y-82427890D01*
X116462905Y-82427892D01*
X116511428Y-82460975D01*
X116548080Y-82488025D01*
X116558713Y-82495873D01*
X116558714Y-82495874D01*
X116558715Y-82495874D01*
X116558716Y-82495875D01*
X116558965Y-82495962D01*
X116573529Y-82503314D01*
X116573741Y-82503459D01*
X116629869Y-82520772D01*
X116685335Y-82540181D01*
X116685592Y-82540190D01*
X116701683Y-82542925D01*
X116701926Y-82543000D01*
X116701927Y-82543000D01*
X116760686Y-82543000D01*
X116763159Y-82543092D01*
X116819386Y-82545196D01*
X116819637Y-82545128D01*
X116835809Y-82543000D01*
X117879283Y-82543000D01*
X117923477Y-82561306D01*
X117941783Y-82605500D01*
X117940582Y-82617694D01*
X117939924Y-82620999D01*
X117939924Y-82621000D01*
X119667076Y-82621000D01*
X119667076Y-82620999D01*
X119654829Y-82559430D01*
X119654826Y-82559424D01*
X119653719Y-82557767D01*
X119653329Y-82555809D01*
X119652472Y-82553739D01*
X119652883Y-82553568D01*
X119644384Y-82510851D01*
X119661488Y-82478850D01*
X119733499Y-82406840D01*
X119785461Y-82300550D01*
X119795500Y-82231646D01*
X119795500Y-81964354D01*
X119785461Y-81895450D01*
X119762071Y-81847605D01*
X119733500Y-81789161D01*
X119661490Y-81717151D01*
X119643184Y-81672957D01*
X119652495Y-81642268D01*
X119652473Y-81642259D01*
X119652566Y-81642033D01*
X119653721Y-81638228D01*
X119654829Y-81636569D01*
X119667076Y-81575000D01*
X117939924Y-81575000D01*
X117940582Y-81578306D01*
X117931250Y-81625223D01*
X117891477Y-81651799D01*
X117879283Y-81653000D01*
X116979213Y-81653000D01*
X116935019Y-81634694D01*
X116385068Y-81084743D01*
X116382731Y-81082128D01*
X116372815Y-81069694D01*
X116357595Y-81050608D01*
X116354060Y-81048198D01*
X116309071Y-81017524D01*
X116261784Y-80982625D01*
X116261530Y-80982536D01*
X116246970Y-80975185D01*
X116246759Y-80975041D01*
X116246758Y-80975040D01*
X116246757Y-80975040D01*
X116190630Y-80957727D01*
X116190629Y-80957726D01*
X116135165Y-80938319D01*
X116135163Y-80938318D01*
X116135161Y-80938318D01*
X116134892Y-80938308D01*
X116118836Y-80935581D01*
X116118577Y-80935501D01*
X116118575Y-80935500D01*
X116118573Y-80935500D01*
X116118569Y-80935500D01*
X116059814Y-80935500D01*
X116001116Y-80933304D01*
X116001115Y-80933304D01*
X116001114Y-80933304D01*
X116001112Y-80933304D01*
X116001108Y-80933305D01*
X116000866Y-80933370D01*
X115984689Y-80935500D01*
X115940920Y-80935500D01*
X115896726Y-80917194D01*
X115882361Y-80894842D01*
X115862759Y-80842287D01*
X115862758Y-80842286D01*
X115862758Y-80842285D01*
X115777974Y-80729026D01*
X115689773Y-80663000D01*
X116693312Y-80663000D01*
X116713957Y-80806594D01*
X116713958Y-80806597D01*
X116774222Y-80938556D01*
X116774225Y-80938561D01*
X116869226Y-81048198D01*
X116974729Y-81116000D01*
X116991268Y-81126629D01*
X117049937Y-81143855D01*
X117067533Y-81152183D01*
X117074500Y-81156933D01*
X117080429Y-81160976D01*
X117127713Y-81195873D01*
X117127714Y-81195874D01*
X117127715Y-81195874D01*
X117127716Y-81195875D01*
X117127965Y-81195962D01*
X117142529Y-81203314D01*
X117142741Y-81203459D01*
X117198869Y-81220772D01*
X117254335Y-81240181D01*
X117254592Y-81240190D01*
X117270683Y-81242925D01*
X117270926Y-81243000D01*
X117270927Y-81243000D01*
X117329686Y-81243000D01*
X117332059Y-81243088D01*
X117388386Y-81245196D01*
X117388535Y-81245155D01*
X117388634Y-81245130D01*
X117404811Y-81243000D01*
X117879283Y-81243000D01*
X117923477Y-81261306D01*
X117941783Y-81305500D01*
X117940582Y-81317694D01*
X117939924Y-81320999D01*
X117939924Y-81321000D01*
X119667076Y-81321000D01*
X119667076Y-81320999D01*
X119654829Y-81259430D01*
X119654826Y-81259424D01*
X119653719Y-81257767D01*
X119653329Y-81255809D01*
X119652472Y-81253739D01*
X119652883Y-81253568D01*
X119644384Y-81210851D01*
X119661488Y-81178850D01*
X119733499Y-81106840D01*
X119785461Y-81000550D01*
X119795500Y-80931646D01*
X119795500Y-80664354D01*
X119785461Y-80595450D01*
X119748285Y-80519405D01*
X119733500Y-80489161D01*
X119661490Y-80417151D01*
X119643184Y-80372957D01*
X119652495Y-80342268D01*
X119652473Y-80342259D01*
X119652566Y-80342033D01*
X119653721Y-80338228D01*
X119654829Y-80336569D01*
X119667076Y-80275000D01*
X117939924Y-80275000D01*
X117940582Y-80278306D01*
X117931250Y-80325223D01*
X117891477Y-80351799D01*
X117879283Y-80353000D01*
X117630476Y-80353000D01*
X117586282Y-80334694D01*
X117583242Y-80331429D01*
X117536773Y-80277801D01*
X117414736Y-80199373D01*
X117414727Y-80199369D01*
X117275538Y-80158500D01*
X117275536Y-80158500D01*
X117130464Y-80158500D01*
X117130462Y-80158500D01*
X116991272Y-80199369D01*
X116991263Y-80199373D01*
X116869226Y-80277801D01*
X116774225Y-80387438D01*
X116774222Y-80387443D01*
X116713958Y-80519402D01*
X116713957Y-80519405D01*
X116693312Y-80663000D01*
X115689773Y-80663000D01*
X115664715Y-80644242D01*
X115664713Y-80644241D01*
X115664711Y-80644240D01*
X115532158Y-80594800D01*
X115473557Y-80588500D01*
X114904451Y-80588500D01*
X114904434Y-80588501D01*
X114845843Y-80594800D01*
X114845838Y-80594801D01*
X114713288Y-80644240D01*
X114713283Y-80644243D01*
X114600026Y-80729026D01*
X114515243Y-80842283D01*
X114515240Y-80842288D01*
X114465800Y-80974841D01*
X114459500Y-81033435D01*
X114459500Y-81727548D01*
X110042873Y-81727548D01*
X108097825Y-79782500D01*
X114587000Y-79782500D01*
X114587000Y-79990091D01*
X114597323Y-80060942D01*
X114650750Y-80170231D01*
X114736768Y-80256249D01*
X114846057Y-80309676D01*
X114916909Y-80320000D01*
X115061999Y-80320000D01*
X115062000Y-79782500D01*
X115316000Y-79782500D01*
X115316000Y-80320000D01*
X115461091Y-80320000D01*
X115531942Y-80309676D01*
X115641231Y-80256249D01*
X115727249Y-80170231D01*
X115780676Y-80060942D01*
X115786496Y-80020999D01*
X117939923Y-80020999D01*
X117939924Y-80021000D01*
X118676500Y-80021000D01*
X118676500Y-79821000D01*
X118930500Y-79821000D01*
X118930500Y-80021000D01*
X119667076Y-80021000D01*
X119667076Y-80020999D01*
X119654829Y-79959430D01*
X119654827Y-79959426D01*
X119604657Y-79884342D01*
X119529572Y-79834171D01*
X119529570Y-79834170D01*
X119463356Y-79821000D01*
X118930500Y-79821000D01*
X118676500Y-79821000D01*
X118143644Y-79821000D01*
X118077429Y-79834170D01*
X118077427Y-79834171D01*
X118002342Y-79884342D01*
X117952172Y-79959426D01*
X117952170Y-79959430D01*
X117939923Y-80020999D01*
X115786496Y-80020999D01*
X115791000Y-79990091D01*
X115791000Y-79782500D01*
X115316000Y-79782500D01*
X115062000Y-79782500D01*
X114587000Y-79782500D01*
X108097825Y-79782500D01*
X107843825Y-79528500D01*
X114587000Y-79528500D01*
X115061999Y-79528500D01*
X115062000Y-78991000D01*
X115316000Y-78991000D01*
X115316000Y-79528500D01*
X115791000Y-79528500D01*
X115791000Y-79320908D01*
X115780676Y-79250057D01*
X115727249Y-79140768D01*
X115641231Y-79054750D01*
X115531942Y-79001323D01*
X115461091Y-78991000D01*
X115316000Y-78991000D01*
X115062000Y-78991000D01*
X114916909Y-78991000D01*
X114846057Y-79001323D01*
X114736768Y-79054750D01*
X114650750Y-79140768D01*
X114597323Y-79250057D01*
X114587000Y-79320908D01*
X114587000Y-79528500D01*
X107843825Y-79528500D01*
X106759568Y-78444243D01*
X106757231Y-78441628D01*
X106732094Y-78410107D01*
X106683571Y-78377024D01*
X106636284Y-78342125D01*
X106636030Y-78342036D01*
X106621470Y-78334685D01*
X106621259Y-78334541D01*
X106621258Y-78334540D01*
X106621257Y-78334540D01*
X106565130Y-78317227D01*
X106557554Y-78314576D01*
X106509665Y-78297819D01*
X106509663Y-78297818D01*
X106509661Y-78297818D01*
X106509392Y-78297808D01*
X106493336Y-78295081D01*
X106493077Y-78295001D01*
X106493075Y-78295000D01*
X106493073Y-78295000D01*
X106493069Y-78295000D01*
X106434314Y-78295000D01*
X106375616Y-78292804D01*
X106375615Y-78292804D01*
X106375614Y-78292804D01*
X106375612Y-78292804D01*
X106375608Y-78292805D01*
X106375366Y-78292870D01*
X106359189Y-78295000D01*
X105306999Y-78295000D01*
X105262805Y-78276694D01*
X105244499Y-78232500D01*
X105244499Y-77864935D01*
X105244499Y-77864933D01*
X105229734Y-77790699D01*
X105229732Y-77790696D01*
X105173484Y-77706515D01*
X105089302Y-77650266D01*
X105089300Y-77650265D01*
X105015067Y-77635500D01*
X103264935Y-77635500D01*
X103264931Y-77635501D01*
X103190700Y-77650265D01*
X103190696Y-77650267D01*
X103106515Y-77706515D01*
X103050266Y-77790697D01*
X103050265Y-77790699D01*
X103035500Y-77864932D01*
X103035500Y-79615064D01*
X98500000Y-79615064D01*
X98500000Y-77195064D01*
X140395500Y-77195064D01*
X140395501Y-77195068D01*
X140410265Y-77269299D01*
X140410267Y-77269303D01*
X140466515Y-77353484D01*
X140550697Y-77409733D01*
X140550699Y-77409734D01*
X140624933Y-77424500D01*
X142375066Y-77424499D01*
X142449301Y-77409734D01*
X142533484Y-77353484D01*
X142589734Y-77269301D01*
X142604500Y-77195067D01*
X142604500Y-76320004D01*
X142930768Y-76320004D01*
X142949653Y-76523813D01*
X142949655Y-76523825D01*
X143005671Y-76720701D01*
X143005672Y-76720701D01*
X143096912Y-76903935D01*
X143096913Y-76903936D01*
X143096915Y-76903940D01*
X143220259Y-77067275D01*
X143220264Y-77067280D01*
X143220268Y-77067285D01*
X143322870Y-77160819D01*
X143371533Y-77205182D01*
X143371534Y-77205183D01*
X143371538Y-77205186D01*
X143545573Y-77312944D01*
X143736444Y-77386888D01*
X143937653Y-77424500D01*
X143937656Y-77424500D01*
X144142344Y-77424500D01*
X144142347Y-77424500D01*
X144343556Y-77386888D01*
X144534427Y-77312944D01*
X144708462Y-77205186D01*
X144859732Y-77067285D01*
X144983088Y-76903935D01*
X145074328Y-76720701D01*
X145130345Y-76523821D01*
X145149232Y-76320000D01*
X145130345Y-76116179D01*
X145074328Y-75919299D01*
X144983088Y-75736065D01*
X144983085Y-75736061D01*
X144983084Y-75736059D01*
X144859740Y-75572724D01*
X144859735Y-75572719D01*
X144859732Y-75572715D01*
X144764834Y-75486204D01*
X144708466Y-75434817D01*
X144708463Y-75434815D01*
X144708462Y-75434814D01*
X144534427Y-75327056D01*
X144534425Y-75327055D01*
X144429781Y-75286516D01*
X144343556Y-75253112D01*
X144343553Y-75253111D01*
X144343552Y-75253111D01*
X144142351Y-75215500D01*
X144142347Y-75215500D01*
X143937653Y-75215500D01*
X143937648Y-75215500D01*
X143736447Y-75253111D01*
X143545574Y-75327055D01*
X143371533Y-75434817D01*
X143220266Y-75572717D01*
X143220259Y-75572724D01*
X143096915Y-75736059D01*
X143096912Y-75736065D01*
X143005672Y-75919298D01*
X142949655Y-76116174D01*
X142949653Y-76116186D01*
X142930768Y-76319995D01*
X142930768Y-76320004D01*
X142604500Y-76320004D01*
X142604499Y-75444934D01*
X142589734Y-75370699D01*
X142589732Y-75370696D01*
X142533484Y-75286515D01*
X142449302Y-75230266D01*
X142449300Y-75230265D01*
X142375067Y-75215500D01*
X140624935Y-75215500D01*
X140624931Y-75215501D01*
X140550700Y-75230265D01*
X140550696Y-75230267D01*
X140466515Y-75286515D01*
X140410266Y-75370697D01*
X140410265Y-75370699D01*
X140395500Y-75444932D01*
X140395500Y-77195064D01*
X98500000Y-77195064D01*
X98500000Y-69442507D01*
X103162999Y-69442507D01*
X103170369Y-69479553D01*
X103170369Y-69479554D01*
X103198438Y-69521561D01*
X103240446Y-69549630D01*
X103277493Y-69557000D01*
X104013000Y-69557000D01*
X104013000Y-69066881D01*
X104104237Y-69080000D01*
X104175763Y-69080000D01*
X104266999Y-69066881D01*
X104267000Y-69557000D01*
X105002507Y-69557000D01*
X105039553Y-69549630D01*
X105039554Y-69549630D01*
X105081561Y-69521561D01*
X105109630Y-69479554D01*
X105109630Y-69479553D01*
X105117000Y-69442507D01*
X105117000Y-69061500D01*
X114333000Y-69061500D01*
X114333000Y-69269091D01*
X114343323Y-69339942D01*
X114396750Y-69449231D01*
X114482768Y-69535249D01*
X114592057Y-69588676D01*
X114662909Y-69599000D01*
X114808000Y-69599000D01*
X115061999Y-69599000D01*
X115207091Y-69599000D01*
X115277942Y-69588676D01*
X115387231Y-69535249D01*
X115473249Y-69449231D01*
X115526676Y-69339942D01*
X115537000Y-69269091D01*
X115537000Y-69061500D01*
X115062000Y-69061500D01*
X115061999Y-69599000D01*
X114808000Y-69599000D01*
X114808000Y-69061500D01*
X114333000Y-69061500D01*
X105117000Y-69061500D01*
X105117000Y-68807500D01*
X114333000Y-68807500D01*
X114808000Y-68807500D01*
X114808000Y-68807499D01*
X115061999Y-68807499D01*
X115062000Y-68807500D01*
X115537000Y-68807500D01*
X115537000Y-68599908D01*
X115526676Y-68529057D01*
X115473249Y-68419768D01*
X115387231Y-68333750D01*
X115277942Y-68280323D01*
X115207091Y-68270000D01*
X115062000Y-68270000D01*
X115061999Y-68807499D01*
X114808000Y-68807499D01*
X114808000Y-68270000D01*
X114662909Y-68270000D01*
X114592057Y-68280323D01*
X114482768Y-68333750D01*
X114396750Y-68419768D01*
X114343323Y-68529057D01*
X114333000Y-68599908D01*
X114333000Y-68807500D01*
X105117000Y-68807500D01*
X105117000Y-68707000D01*
X104623818Y-68707000D01*
X104640000Y-68651889D01*
X104640000Y-68508111D01*
X104623818Y-68453000D01*
X105117000Y-68453000D01*
X105117000Y-67717492D01*
X105109630Y-67680446D01*
X105109630Y-67680445D01*
X105081561Y-67638438D01*
X105039553Y-67610369D01*
X105002507Y-67603000D01*
X104267000Y-67603000D01*
X104266999Y-68093118D01*
X104175763Y-68080000D01*
X104104237Y-68080000D01*
X104013000Y-68093118D01*
X104013000Y-67603000D01*
X103277493Y-67603000D01*
X103240446Y-67610369D01*
X103240445Y-67610369D01*
X103198438Y-67638438D01*
X103170369Y-67680445D01*
X103170369Y-67680446D01*
X103163000Y-67717492D01*
X103163000Y-68453000D01*
X103656182Y-68453000D01*
X103640000Y-68508111D01*
X103640000Y-68651889D01*
X103656182Y-68707000D01*
X103163000Y-68707000D01*
X103163000Y-69442507D01*
X103162999Y-69442507D01*
X98500000Y-69442507D01*
X98500000Y-59295064D01*
X103035500Y-59295064D01*
X103035501Y-59295068D01*
X103050265Y-59369299D01*
X103050267Y-59369303D01*
X103106515Y-59453484D01*
X103190697Y-59509733D01*
X103190699Y-59509734D01*
X103264933Y-59524500D01*
X103632500Y-59524499D01*
X103676694Y-59542805D01*
X103695000Y-59586999D01*
X103695000Y-61060258D01*
X103694803Y-61063760D01*
X103690289Y-61103825D01*
X103701209Y-61161543D01*
X103709966Y-61219647D01*
X103710080Y-61219882D01*
X103715178Y-61235372D01*
X103715228Y-61235634D01*
X103715228Y-61235635D01*
X103715229Y-61235636D01*
X103715229Y-61235637D01*
X103742678Y-61287573D01*
X103768170Y-61340507D01*
X103768173Y-61340512D01*
X103768351Y-61340704D01*
X103777785Y-61353998D01*
X103777911Y-61354237D01*
X103819457Y-61395783D01*
X103859413Y-61438844D01*
X103859632Y-61438971D01*
X103872581Y-61448906D01*
X109928930Y-67505255D01*
X109931267Y-67507870D01*
X109956402Y-67539389D01*
X109956403Y-67539389D01*
X109956405Y-67539392D01*
X110004934Y-67572478D01*
X110052217Y-67607375D01*
X110052456Y-67607458D01*
X110067034Y-67614818D01*
X110067241Y-67614959D01*
X110067243Y-67614960D01*
X110123371Y-67632272D01*
X110123372Y-67632273D01*
X110178835Y-67651681D01*
X110179093Y-67651690D01*
X110195178Y-67654423D01*
X110195427Y-67654500D01*
X110195431Y-67654500D01*
X110254172Y-67654500D01*
X110312887Y-67656697D01*
X110312929Y-67656685D01*
X110313136Y-67656631D01*
X110329315Y-67654500D01*
X114183080Y-67654500D01*
X114227274Y-67672806D01*
X114241639Y-67695158D01*
X114261240Y-67747712D01*
X114261241Y-67747714D01*
X114261242Y-67747715D01*
X114346026Y-67860974D01*
X114459285Y-67945758D01*
X114591843Y-67995200D01*
X114650443Y-68001500D01*
X115219556Y-68001499D01*
X115278157Y-67995200D01*
X115410715Y-67945758D01*
X115469169Y-67902000D01*
X117685924Y-67902000D01*
X117698170Y-67963569D01*
X117698172Y-67963573D01*
X117748342Y-68038657D01*
X117823427Y-68088828D01*
X117823429Y-68088829D01*
X117889643Y-68101999D01*
X117889644Y-68102000D01*
X118422500Y-68102000D01*
X118422500Y-67902000D01*
X117685924Y-67902000D01*
X115469169Y-67902000D01*
X115523974Y-67860974D01*
X115608758Y-67747715D01*
X115645950Y-67648000D01*
X115659567Y-67611493D01*
X115661711Y-67612293D01*
X115685458Y-67579339D01*
X115718323Y-67570000D01*
X117625283Y-67570000D01*
X117669477Y-67588306D01*
X117687783Y-67632500D01*
X117686582Y-67644694D01*
X117685924Y-67647999D01*
X117685924Y-67648000D01*
X118614000Y-67648000D01*
X118658194Y-67666306D01*
X118676500Y-67710500D01*
X118676500Y-68102000D01*
X119209356Y-68102000D01*
X119209356Y-68101999D01*
X119275570Y-68088829D01*
X119282275Y-68084349D01*
X119329192Y-68075016D01*
X119368966Y-68101590D01*
X119379500Y-68136315D01*
X119379500Y-68523087D01*
X119361194Y-68567281D01*
X118992298Y-68936177D01*
X118982290Y-68944305D01*
X118967546Y-68953938D01*
X118944180Y-68983955D01*
X118941620Y-68986855D01*
X118937384Y-68991092D01*
X118937382Y-68991094D01*
X118923599Y-69010399D01*
X118889341Y-69054415D01*
X118886877Y-69058969D01*
X118886843Y-69058950D01*
X118884263Y-69063963D01*
X118884298Y-69063980D01*
X118882025Y-69068629D01*
X118866110Y-69122086D01*
X118847999Y-69174842D01*
X118847147Y-69179949D01*
X118847106Y-69179942D01*
X118846295Y-69185515D01*
X118846335Y-69185520D01*
X118845694Y-69190655D01*
X118848000Y-69246384D01*
X118848000Y-69347044D01*
X118829694Y-69391238D01*
X118807342Y-69405603D01*
X118741288Y-69430240D01*
X118741283Y-69430243D01*
X118628026Y-69515026D01*
X118543243Y-69628283D01*
X118543240Y-69628288D01*
X118493800Y-69760841D01*
X118487500Y-69819435D01*
X118487500Y-70388548D01*
X118487501Y-70388565D01*
X118493800Y-70447156D01*
X118493801Y-70447161D01*
X118543240Y-70579711D01*
X118543241Y-70579713D01*
X118543242Y-70579715D01*
X118628026Y-70692974D01*
X118741285Y-70777758D01*
X118873843Y-70827200D01*
X118932443Y-70833500D01*
X119526556Y-70833499D01*
X119585157Y-70827200D01*
X119717715Y-70777758D01*
X119830974Y-70692974D01*
X119915758Y-70579715D01*
X119965200Y-70447157D01*
X119971500Y-70388557D01*
X119971500Y-70388548D01*
X120312500Y-70388548D01*
X120312501Y-70388565D01*
X120318800Y-70447156D01*
X120318801Y-70447161D01*
X120368240Y-70579711D01*
X120368241Y-70579713D01*
X120368242Y-70579715D01*
X120453026Y-70692974D01*
X120566285Y-70777758D01*
X120698843Y-70827200D01*
X120757443Y-70833500D01*
X121351556Y-70833499D01*
X121410157Y-70827200D01*
X121542715Y-70777758D01*
X121655974Y-70692974D01*
X121697468Y-70637544D01*
X121738606Y-70613136D01*
X121747501Y-70612500D01*
X121962500Y-70612500D01*
X122006694Y-70630806D01*
X122025000Y-70675000D01*
X122024999Y-71904936D01*
X122006693Y-71949130D01*
X121984342Y-71963495D01*
X121951734Y-71975657D01*
X121951731Y-71975659D01*
X121835596Y-72062596D01*
X121748659Y-72178731D01*
X121748656Y-72178736D01*
X121697960Y-72314656D01*
X121691500Y-72374737D01*
X121691500Y-73421246D01*
X121691501Y-73421263D01*
X121697960Y-73481343D01*
X121748656Y-73617263D01*
X121748657Y-73617265D01*
X121748658Y-73617267D01*
X121835596Y-73733404D01*
X121951733Y-73820342D01*
X122087658Y-73871040D01*
X122147745Y-73877500D01*
X122919254Y-73877499D01*
X122979342Y-73871040D01*
X123115267Y-73820342D01*
X123231404Y-73733404D01*
X123318342Y-73617267D01*
X123369040Y-73481342D01*
X123375500Y-73421255D01*
X123375500Y-73408777D01*
X123894000Y-73408777D01*
X123904676Y-73482056D01*
X123904678Y-73482060D01*
X123959936Y-73595095D01*
X124048904Y-73684063D01*
X124161941Y-73739322D01*
X124235214Y-73749998D01*
X124235228Y-73749999D01*
X124481499Y-73749999D01*
X124481500Y-73749998D01*
X124481500Y-73025000D01*
X124735500Y-73025000D01*
X124735500Y-73749999D01*
X124981778Y-73749999D01*
X125055056Y-73739323D01*
X125055060Y-73739321D01*
X125168095Y-73684063D01*
X125257063Y-73595095D01*
X125312322Y-73482058D01*
X125323000Y-73408778D01*
X125323000Y-73025000D01*
X124735500Y-73025000D01*
X124481500Y-73025000D01*
X123894001Y-73025000D01*
X123894000Y-73408777D01*
X123375500Y-73408777D01*
X123375499Y-72771000D01*
X123894000Y-72771000D01*
X124481500Y-72771000D01*
X124481500Y-72046000D01*
X124735500Y-72046000D01*
X124735500Y-72771000D01*
X125322999Y-72771000D01*
X125322999Y-72387222D01*
X125312323Y-72313943D01*
X125312321Y-72313939D01*
X125257063Y-72200904D01*
X125168095Y-72111936D01*
X125055058Y-72056677D01*
X124981778Y-72046000D01*
X124735500Y-72046000D01*
X124481500Y-72046000D01*
X124235222Y-72046000D01*
X124161942Y-72056677D01*
X124161939Y-72056678D01*
X124048904Y-72111936D01*
X123959936Y-72200904D01*
X123904677Y-72313941D01*
X123894000Y-72387221D01*
X123894000Y-72771000D01*
X123375499Y-72771000D01*
X123375499Y-72374746D01*
X123369040Y-72314658D01*
X123318342Y-72178733D01*
X123231404Y-72062596D01*
X123115267Y-71975658D01*
X123115265Y-71975657D01*
X123115263Y-71975656D01*
X123082658Y-71963495D01*
X123047648Y-71930899D01*
X123042000Y-71904936D01*
X123042000Y-70891097D01*
X123060306Y-70846903D01*
X123097821Y-70828955D01*
X123114157Y-70827200D01*
X123246715Y-70777758D01*
X123359974Y-70692974D01*
X123444758Y-70579715D01*
X123494200Y-70447157D01*
X123500500Y-70388557D01*
X123500500Y-70376091D01*
X123768999Y-70376091D01*
X123779323Y-70446942D01*
X123832750Y-70556231D01*
X123918768Y-70642249D01*
X124028057Y-70695676D01*
X124098909Y-70706000D01*
X124306500Y-70706000D01*
X124306500Y-70231000D01*
X124560500Y-70231000D01*
X124560500Y-70706000D01*
X124768091Y-70706000D01*
X124838942Y-70695676D01*
X124948231Y-70642249D01*
X125034249Y-70556231D01*
X125087676Y-70446942D01*
X125098000Y-70376091D01*
X125098000Y-70231000D01*
X124560500Y-70231000D01*
X124306500Y-70231000D01*
X123769000Y-70231000D01*
X123768999Y-70376091D01*
X123500500Y-70376091D01*
X123500499Y-69976999D01*
X123768999Y-69976999D01*
X123769000Y-69977000D01*
X124306500Y-69977000D01*
X124306500Y-69502000D01*
X124560500Y-69502000D01*
X124560500Y-69977000D01*
X125098000Y-69977000D01*
X125098000Y-69916548D01*
X126397500Y-69916548D01*
X126397501Y-69916565D01*
X126403800Y-69975156D01*
X126403801Y-69975161D01*
X126453240Y-70107711D01*
X126453243Y-70107716D01*
X126538027Y-70220975D01*
X126593454Y-70262466D01*
X126617864Y-70303605D01*
X126618500Y-70312500D01*
X126618500Y-70345266D01*
X126617864Y-70354159D01*
X126617312Y-70357998D01*
X126617312Y-70357999D01*
X126617864Y-70361838D01*
X126618500Y-70370733D01*
X126618499Y-70394369D01*
X126634080Y-70502732D01*
X126634081Y-70502735D01*
X126694823Y-70635741D01*
X126694826Y-70635746D01*
X126790580Y-70746252D01*
X126913584Y-70825301D01*
X126913589Y-70825304D01*
X127053886Y-70866499D01*
X127053888Y-70866500D01*
X127053889Y-70866500D01*
X127200112Y-70866500D01*
X127200112Y-70866499D01*
X127340411Y-70825304D01*
X127386577Y-70795634D01*
X127463419Y-70746252D01*
X127498298Y-70706000D01*
X127559176Y-70635743D01*
X127619919Y-70502734D01*
X127635500Y-70394368D01*
X127635500Y-70370733D01*
X127636136Y-70361838D01*
X127636688Y-70357999D01*
X127636688Y-70357998D01*
X127636136Y-70354159D01*
X127635500Y-70345266D01*
X127635500Y-70312500D01*
X127653806Y-70268306D01*
X127660546Y-70262466D01*
X127715974Y-70220974D01*
X127800758Y-70107715D01*
X127850200Y-69975157D01*
X127856500Y-69916557D01*
X127856499Y-69322444D01*
X127850200Y-69263843D01*
X127800758Y-69131285D01*
X127715974Y-69018026D01*
X127602715Y-68933242D01*
X127602713Y-68933241D01*
X127602711Y-68933240D01*
X127470158Y-68883800D01*
X127411557Y-68877500D01*
X126842451Y-68877500D01*
X126842434Y-68877501D01*
X126783843Y-68883800D01*
X126783838Y-68883801D01*
X126651288Y-68933240D01*
X126651283Y-68933243D01*
X126538026Y-69018026D01*
X126453243Y-69131283D01*
X126453240Y-69131288D01*
X126403800Y-69263841D01*
X126397500Y-69322435D01*
X126397500Y-69916548D01*
X125098000Y-69916548D01*
X125098000Y-69831908D01*
X125087676Y-69761057D01*
X125034249Y-69651768D01*
X124948231Y-69565750D01*
X124838942Y-69512323D01*
X124768091Y-69502000D01*
X124560500Y-69502000D01*
X124306500Y-69502000D01*
X124098909Y-69502000D01*
X124028057Y-69512323D01*
X123918768Y-69565750D01*
X123832750Y-69651768D01*
X123779323Y-69761057D01*
X123768999Y-69831908D01*
X123768999Y-69976999D01*
X123500499Y-69976999D01*
X123500499Y-69819444D01*
X123494200Y-69760843D01*
X123444758Y-69628285D01*
X123359974Y-69515026D01*
X123246715Y-69430242D01*
X123246713Y-69430241D01*
X123246711Y-69430240D01*
X123114158Y-69380800D01*
X123055557Y-69374500D01*
X122361451Y-69374500D01*
X122361434Y-69374501D01*
X122302843Y-69380800D01*
X122302838Y-69380801D01*
X122170288Y-69430240D01*
X122170283Y-69430243D01*
X122104411Y-69479554D01*
X122057026Y-69515026D01*
X122015531Y-69570455D01*
X121974394Y-69594864D01*
X121965499Y-69595500D01*
X121747501Y-69595500D01*
X121703307Y-69577194D01*
X121697471Y-69570459D01*
X121655974Y-69515026D01*
X121542715Y-69430242D01*
X121542713Y-69430241D01*
X121542711Y-69430240D01*
X121410158Y-69380800D01*
X121351557Y-69374500D01*
X120757451Y-69374500D01*
X120757434Y-69374501D01*
X120698843Y-69380800D01*
X120698838Y-69380801D01*
X120566288Y-69430240D01*
X120566283Y-69430243D01*
X120453026Y-69515026D01*
X120368243Y-69628283D01*
X120368240Y-69628288D01*
X120318800Y-69760841D01*
X120312500Y-69819435D01*
X120312500Y-70388548D01*
X119971500Y-70388548D01*
X119971499Y-69819444D01*
X119965200Y-69760843D01*
X119915758Y-69628285D01*
X119830974Y-69515026D01*
X119717715Y-69430242D01*
X119717713Y-69430241D01*
X119717711Y-69430240D01*
X119706549Y-69426077D01*
X119671539Y-69393481D01*
X119669832Y-69345676D01*
X119684197Y-69323324D01*
X119792339Y-69215182D01*
X119998204Y-69009317D01*
X120008205Y-69001196D01*
X120022956Y-68991560D01*
X120046321Y-68961538D01*
X120048886Y-68958636D01*
X120053114Y-68954409D01*
X120060327Y-68944305D01*
X120066899Y-68935101D01*
X120086163Y-68910349D01*
X120101158Y-68891085D01*
X120101158Y-68891082D01*
X120103623Y-68886530D01*
X120103659Y-68886549D01*
X120106238Y-68881540D01*
X120106200Y-68881522D01*
X120108475Y-68876868D01*
X120124388Y-68823417D01*
X120142500Y-68770661D01*
X120142500Y-68770659D01*
X120143353Y-68765552D01*
X120143393Y-68765558D01*
X120144205Y-68759982D01*
X120144165Y-68759977D01*
X120144805Y-68754844D01*
X120142826Y-68707000D01*
X120142500Y-68699105D01*
X120142500Y-67908645D01*
X123282499Y-67908645D01*
X123292539Y-67977550D01*
X123292539Y-67977551D01*
X123344499Y-68083838D01*
X123428161Y-68167500D01*
X123458540Y-68182351D01*
X123534450Y-68219461D01*
X123603354Y-68229500D01*
X124945646Y-68229500D01*
X125014550Y-68219461D01*
X125090459Y-68182351D01*
X125117910Y-68176000D01*
X126370045Y-68176000D01*
X126414239Y-68194306D01*
X126428604Y-68216659D01*
X126453239Y-68282709D01*
X126453241Y-68282712D01*
X126453242Y-68282715D01*
X126538026Y-68395974D01*
X126651285Y-68480758D01*
X126783843Y-68530200D01*
X126842443Y-68536500D01*
X127411556Y-68536499D01*
X127470157Y-68530200D01*
X127602715Y-68480758D01*
X127715974Y-68395974D01*
X127800758Y-68282715D01*
X127850200Y-68150157D01*
X127856500Y-68091557D01*
X127856499Y-67497444D01*
X127850200Y-67438843D01*
X127800758Y-67306285D01*
X127715974Y-67193026D01*
X127602715Y-67108242D01*
X127602713Y-67108241D01*
X127602711Y-67108240D01*
X127470158Y-67058800D01*
X127411557Y-67052500D01*
X126842451Y-67052500D01*
X126842434Y-67052501D01*
X126783843Y-67058800D01*
X126783838Y-67058801D01*
X126651288Y-67108240D01*
X126651283Y-67108243D01*
X126538026Y-67193026D01*
X126453243Y-67306283D01*
X126453239Y-67306290D01*
X126428604Y-67372341D01*
X126396008Y-67407352D01*
X126370045Y-67413000D01*
X125846607Y-67413000D01*
X125802413Y-67394694D01*
X125784107Y-67350500D01*
X125802413Y-67306306D01*
X126000477Y-67108243D01*
X126224413Y-66884306D01*
X126268608Y-66866000D01*
X139958647Y-66866000D01*
X140002841Y-66884306D01*
X140388602Y-67270066D01*
X140390445Y-67272077D01*
X140416694Y-67303359D01*
X140416697Y-67303362D01*
X140452053Y-67323774D01*
X140454353Y-67325239D01*
X140487789Y-67348651D01*
X140493562Y-67350197D01*
X140508636Y-67356442D01*
X140513815Y-67359432D01*
X140554041Y-67366524D01*
X140556671Y-67367108D01*
X140596112Y-67377677D01*
X140636781Y-67374118D01*
X140639503Y-67374000D01*
X140747886Y-67374000D01*
X140792080Y-67392306D01*
X140810386Y-67436500D01*
X140792080Y-67480694D01*
X140789992Y-67482688D01*
X140773806Y-67497444D01*
X140691498Y-67572478D01*
X140680266Y-67582717D01*
X140680259Y-67582724D01*
X140556915Y-67746059D01*
X140556912Y-67746065D01*
X140465672Y-67929298D01*
X140409655Y-68126174D01*
X140409653Y-68126186D01*
X140390768Y-68329995D01*
X140390768Y-68330004D01*
X140409653Y-68533813D01*
X140409655Y-68533825D01*
X140465671Y-68730701D01*
X140465672Y-68730701D01*
X140556912Y-68913935D01*
X140556913Y-68913936D01*
X140556915Y-68913940D01*
X140680259Y-69077275D01*
X140680264Y-69077280D01*
X140680268Y-69077285D01*
X140782870Y-69170819D01*
X140831533Y-69215182D01*
X140831534Y-69215183D01*
X140831538Y-69215186D01*
X141005573Y-69322944D01*
X141196444Y-69396888D01*
X141397653Y-69434500D01*
X141397656Y-69434500D01*
X141602344Y-69434500D01*
X141602347Y-69434500D01*
X141803556Y-69396888D01*
X141994427Y-69322944D01*
X142168462Y-69215186D01*
X142319732Y-69077285D01*
X142329780Y-69063980D01*
X142409331Y-68958636D01*
X142443088Y-68913935D01*
X142534328Y-68730701D01*
X142590345Y-68533821D01*
X142590681Y-68530198D01*
X142609232Y-68330004D01*
X142930768Y-68330004D01*
X142949653Y-68533813D01*
X142949655Y-68533825D01*
X143005672Y-68730701D01*
X143096912Y-68913935D01*
X143096913Y-68913936D01*
X143096915Y-68913940D01*
X143220259Y-69077275D01*
X143220264Y-69077280D01*
X143220268Y-69077285D01*
X143322870Y-69170819D01*
X143371533Y-69215182D01*
X143371534Y-69215183D01*
X143371538Y-69215186D01*
X143545573Y-69322944D01*
X143736444Y-69396888D01*
X143937653Y-69434500D01*
X143937656Y-69434500D01*
X144142344Y-69434500D01*
X144142347Y-69434500D01*
X144343556Y-69396888D01*
X144534427Y-69322944D01*
X144708462Y-69215186D01*
X144859732Y-69077285D01*
X144869780Y-69063980D01*
X144949331Y-68958636D01*
X144983088Y-68913935D01*
X145074328Y-68730701D01*
X145130345Y-68533821D01*
X145130681Y-68530198D01*
X145149232Y-68330004D01*
X145149232Y-68329995D01*
X145130346Y-68126186D01*
X145130344Y-68126174D01*
X145094871Y-68001500D01*
X145074328Y-67929299D01*
X144983088Y-67746065D01*
X144983085Y-67746061D01*
X144983084Y-67746059D01*
X144859740Y-67582724D01*
X144859735Y-67582719D01*
X144859732Y-67582715D01*
X144750008Y-67482688D01*
X144708466Y-67444817D01*
X144708463Y-67444815D01*
X144708462Y-67444814D01*
X144534427Y-67337056D01*
X144534425Y-67337055D01*
X144447453Y-67303362D01*
X144343556Y-67263112D01*
X144343553Y-67263111D01*
X144343552Y-67263111D01*
X144142351Y-67225500D01*
X144142347Y-67225500D01*
X143937653Y-67225500D01*
X143937648Y-67225500D01*
X143736447Y-67263111D01*
X143545574Y-67337055D01*
X143371533Y-67444817D01*
X143220266Y-67582717D01*
X143220259Y-67582724D01*
X143096915Y-67746059D01*
X143096912Y-67746065D01*
X143005672Y-67929298D01*
X142949655Y-68126174D01*
X142949653Y-68126186D01*
X142930768Y-68329995D01*
X142930768Y-68330004D01*
X142609232Y-68330004D01*
X142609232Y-68329995D01*
X142590346Y-68126186D01*
X142590344Y-68126174D01*
X142554871Y-68001500D01*
X142534328Y-67929299D01*
X142443088Y-67746065D01*
X142443085Y-67746061D01*
X142443084Y-67746059D01*
X142319740Y-67582724D01*
X142319735Y-67582719D01*
X142319732Y-67582715D01*
X142210008Y-67482688D01*
X142189681Y-67439386D01*
X142205926Y-67394394D01*
X142249228Y-67374067D01*
X142252114Y-67374000D01*
X142758752Y-67374000D01*
X142761473Y-67374118D01*
X142774257Y-67375237D01*
X142802139Y-67377677D01*
X142802139Y-67377676D01*
X142802143Y-67377677D01*
X142841576Y-67367109D01*
X142844226Y-67366521D01*
X142884440Y-67359432D01*
X142889615Y-67356443D01*
X142904690Y-67350199D01*
X142910466Y-67348652D01*
X142940603Y-67327550D01*
X142943908Y-67325236D01*
X142946208Y-67323770D01*
X142981560Y-67303360D01*
X143007813Y-67272070D01*
X143009623Y-67270095D01*
X143481604Y-66798114D01*
X143525797Y-66779809D01*
X143548372Y-66784028D01*
X143736444Y-66856888D01*
X143736448Y-66856888D01*
X143736449Y-66856889D01*
X143837048Y-66875694D01*
X143937653Y-66894500D01*
X143937656Y-66894500D01*
X144142344Y-66894500D01*
X144142347Y-66894500D01*
X144343556Y-66856888D01*
X144534427Y-66782944D01*
X144708462Y-66675186D01*
X144859732Y-66537285D01*
X144867757Y-66526659D01*
X144945432Y-66423800D01*
X144983088Y-66373935D01*
X145074328Y-66190701D01*
X145130345Y-65993821D01*
X145130346Y-65993813D01*
X145149232Y-65790004D01*
X145149232Y-65789995D01*
X145130346Y-65586186D01*
X145130344Y-65586174D01*
X145101227Y-65483840D01*
X145074328Y-65389299D01*
X144983088Y-65206065D01*
X144983085Y-65206061D01*
X144983084Y-65206059D01*
X144859740Y-65042724D01*
X144859735Y-65042719D01*
X144859732Y-65042715D01*
X144750008Y-64942688D01*
X144708466Y-64904817D01*
X144708463Y-64904815D01*
X144708462Y-64904814D01*
X144534427Y-64797056D01*
X144534425Y-64797055D01*
X144478948Y-64775563D01*
X144343556Y-64723112D01*
X144343553Y-64723111D01*
X144343552Y-64723111D01*
X144142351Y-64685500D01*
X144142347Y-64685500D01*
X143937653Y-64685500D01*
X143937648Y-64685500D01*
X143736447Y-64723111D01*
X143736444Y-64723111D01*
X143736444Y-64723112D01*
X143721764Y-64728799D01*
X143545574Y-64797055D01*
X143371533Y-64904817D01*
X143220266Y-65042717D01*
X143220259Y-65042724D01*
X143096915Y-65206059D01*
X143096912Y-65206065D01*
X143005672Y-65389298D01*
X142949655Y-65586174D01*
X142949653Y-65586186D01*
X142930768Y-65789995D01*
X142930768Y-65790004D01*
X142949653Y-65993813D01*
X142949655Y-65993825D01*
X142998690Y-66166161D01*
X143005672Y-66190701D01*
X143046377Y-66272449D01*
X143046761Y-66273219D01*
X143050073Y-66320940D01*
X143035007Y-66345272D01*
X142660586Y-66719694D01*
X142616392Y-66738000D01*
X142260890Y-66738000D01*
X142216696Y-66719694D01*
X142198390Y-66675500D01*
X142216696Y-66631306D01*
X142218784Y-66629312D01*
X142241960Y-66608183D01*
X142319732Y-66537285D01*
X142327757Y-66526659D01*
X142405432Y-66423800D01*
X142443088Y-66373935D01*
X142534328Y-66190701D01*
X142590345Y-65993821D01*
X142590346Y-65993813D01*
X142609232Y-65790004D01*
X142609232Y-65789995D01*
X142590346Y-65586186D01*
X142590344Y-65586174D01*
X142561227Y-65483840D01*
X142534328Y-65389299D01*
X142443088Y-65206065D01*
X142443085Y-65206061D01*
X142443084Y-65206059D01*
X142319740Y-65042724D01*
X142319735Y-65042719D01*
X142319732Y-65042715D01*
X142210008Y-64942688D01*
X142189681Y-64899386D01*
X142205926Y-64854394D01*
X142249228Y-64834067D01*
X142252114Y-64834000D01*
X142758752Y-64834000D01*
X142761473Y-64834118D01*
X142774257Y-64835237D01*
X142802139Y-64837677D01*
X142802139Y-64837676D01*
X142802143Y-64837677D01*
X142841576Y-64827109D01*
X142844226Y-64826521D01*
X142884440Y-64819432D01*
X142889615Y-64816443D01*
X142904690Y-64810199D01*
X142910466Y-64808652D01*
X142931175Y-64794151D01*
X142943908Y-64785236D01*
X142946208Y-64783770D01*
X142948406Y-64782501D01*
X142981560Y-64763360D01*
X143007813Y-64732070D01*
X143009623Y-64730095D01*
X143481604Y-64258114D01*
X143525797Y-64239809D01*
X143548372Y-64244028D01*
X143736444Y-64316888D01*
X143736448Y-64316888D01*
X143736449Y-64316889D01*
X143785826Y-64326119D01*
X143937653Y-64354500D01*
X143937656Y-64354500D01*
X144142344Y-64354500D01*
X144142347Y-64354500D01*
X144343556Y-64316888D01*
X144534427Y-64242944D01*
X144708462Y-64135186D01*
X144859732Y-63997285D01*
X144890273Y-63956843D01*
X144983084Y-63833940D01*
X144983083Y-63833940D01*
X144983088Y-63833935D01*
X145074328Y-63650701D01*
X145130345Y-63453821D01*
X145130346Y-63453813D01*
X145149232Y-63250004D01*
X145149232Y-63249995D01*
X145130346Y-63046186D01*
X145130344Y-63046174D01*
X145106207Y-62961342D01*
X145074328Y-62849299D01*
X144983088Y-62666065D01*
X144983085Y-62666061D01*
X144983084Y-62666059D01*
X144859740Y-62502724D01*
X144859735Y-62502719D01*
X144859732Y-62502715D01*
X144750008Y-62402688D01*
X144708466Y-62364817D01*
X144708463Y-62364815D01*
X144708462Y-62364814D01*
X144534427Y-62257056D01*
X144534425Y-62257055D01*
X144469897Y-62232057D01*
X144343556Y-62183112D01*
X144343553Y-62183111D01*
X144343552Y-62183111D01*
X144142351Y-62145500D01*
X144142347Y-62145500D01*
X143937653Y-62145500D01*
X143937648Y-62145500D01*
X143736447Y-62183111D01*
X143545574Y-62257055D01*
X143371533Y-62364817D01*
X143220266Y-62502717D01*
X143220259Y-62502724D01*
X143096915Y-62666059D01*
X143096912Y-62666065D01*
X143005672Y-62849298D01*
X142949655Y-63046174D01*
X142949653Y-63046186D01*
X142930768Y-63249995D01*
X142930768Y-63250004D01*
X142949653Y-63453813D01*
X142949655Y-63453825D01*
X143005672Y-63650701D01*
X143046761Y-63733219D01*
X143050073Y-63780940D01*
X143035007Y-63805272D01*
X142660586Y-64179694D01*
X142616392Y-64198000D01*
X142260890Y-64198000D01*
X142216696Y-64179694D01*
X142198390Y-64135500D01*
X142216696Y-64091306D01*
X142218784Y-64089312D01*
X142243540Y-64066743D01*
X142319732Y-63997285D01*
X142350273Y-63956843D01*
X142443084Y-63833940D01*
X142443083Y-63833940D01*
X142443088Y-63833935D01*
X142534328Y-63650701D01*
X142590345Y-63453821D01*
X142590346Y-63453813D01*
X142609232Y-63250004D01*
X142609232Y-63249995D01*
X142590346Y-63046186D01*
X142590344Y-63046174D01*
X142566207Y-62961342D01*
X142534328Y-62849299D01*
X142443088Y-62666065D01*
X142443085Y-62666061D01*
X142443084Y-62666059D01*
X142319740Y-62502724D01*
X142319735Y-62502719D01*
X142319732Y-62502715D01*
X142210008Y-62402688D01*
X142189681Y-62359386D01*
X142205926Y-62314394D01*
X142249228Y-62294067D01*
X142252114Y-62294000D01*
X142758752Y-62294000D01*
X142761473Y-62294118D01*
X142774257Y-62295237D01*
X142802139Y-62297677D01*
X142802139Y-62297676D01*
X142802143Y-62297677D01*
X142841576Y-62287109D01*
X142844226Y-62286521D01*
X142884440Y-62279432D01*
X142889615Y-62276443D01*
X142904690Y-62270199D01*
X142910466Y-62268652D01*
X142930585Y-62254564D01*
X142943908Y-62245236D01*
X142946208Y-62243770D01*
X142948004Y-62242733D01*
X142981560Y-62223360D01*
X143007813Y-62192070D01*
X143009623Y-62190095D01*
X143481604Y-61718114D01*
X143525797Y-61699809D01*
X143548372Y-61704028D01*
X143736444Y-61776888D01*
X143937653Y-61814500D01*
X143937656Y-61814500D01*
X144142344Y-61814500D01*
X144142347Y-61814500D01*
X144343556Y-61776888D01*
X144534427Y-61702944D01*
X144708462Y-61595186D01*
X144859732Y-61457285D01*
X144983088Y-61293935D01*
X145074328Y-61110701D01*
X145130345Y-60913821D01*
X145149232Y-60710000D01*
X145130345Y-60506179D01*
X145074328Y-60309299D01*
X144983088Y-60126065D01*
X144983085Y-60126061D01*
X144983084Y-60126059D01*
X144859740Y-59962724D01*
X144859735Y-59962719D01*
X144859732Y-59962715D01*
X144764834Y-59876204D01*
X144708466Y-59824817D01*
X144708463Y-59824815D01*
X144708462Y-59824814D01*
X144534427Y-59717056D01*
X144534425Y-59717055D01*
X144478948Y-59695563D01*
X144343556Y-59643112D01*
X144343553Y-59643111D01*
X144343552Y-59643111D01*
X144142351Y-59605500D01*
X144142347Y-59605500D01*
X143937653Y-59605500D01*
X143937648Y-59605500D01*
X143736447Y-59643111D01*
X143545574Y-59717055D01*
X143371533Y-59824817D01*
X143220266Y-59962717D01*
X143220259Y-59962724D01*
X143096915Y-60126059D01*
X143096912Y-60126065D01*
X143005672Y-60309298D01*
X142949655Y-60506174D01*
X142949653Y-60506186D01*
X142930768Y-60709995D01*
X142930768Y-60710004D01*
X142949653Y-60913813D01*
X142949655Y-60913825D01*
X143005672Y-61110701D01*
X143046761Y-61193219D01*
X143050073Y-61240940D01*
X143035007Y-61265272D01*
X142660586Y-61639694D01*
X142616392Y-61658000D01*
X142260890Y-61658000D01*
X142216696Y-61639694D01*
X142198390Y-61595500D01*
X142216696Y-61551306D01*
X142218784Y-61549312D01*
X142241960Y-61528183D01*
X142319732Y-61457285D01*
X142443088Y-61293935D01*
X142534328Y-61110701D01*
X142590345Y-60913821D01*
X142609232Y-60710000D01*
X142590345Y-60506179D01*
X142534328Y-60309299D01*
X142443088Y-60126065D01*
X142443085Y-60126061D01*
X142443084Y-60126059D01*
X142319740Y-59962724D01*
X142319735Y-59962719D01*
X142319732Y-59962715D01*
X142224834Y-59876204D01*
X142168466Y-59824817D01*
X142168463Y-59824815D01*
X142168462Y-59824814D01*
X141994427Y-59717056D01*
X141994425Y-59717055D01*
X141938948Y-59695563D01*
X141803556Y-59643112D01*
X141803553Y-59643111D01*
X141803552Y-59643111D01*
X141602351Y-59605500D01*
X141602347Y-59605500D01*
X141397653Y-59605500D01*
X141397648Y-59605500D01*
X141196447Y-59643111D01*
X141005574Y-59717055D01*
X140831533Y-59824817D01*
X140680266Y-59962717D01*
X140680259Y-59962724D01*
X140556915Y-60126059D01*
X140556912Y-60126065D01*
X140465672Y-60309298D01*
X140409655Y-60506174D01*
X140409653Y-60506186D01*
X140390768Y-60709995D01*
X140390768Y-60710004D01*
X140409653Y-60913813D01*
X140409655Y-60913825D01*
X140465672Y-61110701D01*
X140506761Y-61193219D01*
X140510073Y-61240940D01*
X140495007Y-61265272D01*
X138342586Y-63417694D01*
X138298392Y-63436000D01*
X127898502Y-63436000D01*
X127854308Y-63417694D01*
X127836002Y-63373500D01*
X127839943Y-63351658D01*
X127844588Y-63339201D01*
X127850200Y-63324157D01*
X127856500Y-63265557D01*
X127856499Y-62671444D01*
X127850200Y-62612843D01*
X127800758Y-62480285D01*
X127715974Y-62367026D01*
X127715972Y-62367024D01*
X127715971Y-62367023D01*
X127660545Y-62325531D01*
X127636136Y-62284392D01*
X127635500Y-62275498D01*
X127635500Y-62242733D01*
X127636136Y-62233838D01*
X127636688Y-62229999D01*
X127636688Y-62229998D01*
X127636136Y-62226159D01*
X127635500Y-62217266D01*
X127635500Y-62193630D01*
X127619919Y-62085267D01*
X127619918Y-62085264D01*
X127559176Y-61952257D01*
X127559173Y-61952253D01*
X127463419Y-61841747D01*
X127340415Y-61762698D01*
X127340406Y-61762694D01*
X127200113Y-61721500D01*
X127200111Y-61721500D01*
X127053889Y-61721500D01*
X127053887Y-61721500D01*
X126913593Y-61762694D01*
X126913584Y-61762698D01*
X126790580Y-61841747D01*
X126694826Y-61952253D01*
X126694823Y-61952258D01*
X126634081Y-62085264D01*
X126634080Y-62085267D01*
X126618500Y-62193630D01*
X126618500Y-62217266D01*
X126617864Y-62226159D01*
X126617312Y-62229998D01*
X126617312Y-62229999D01*
X126617864Y-62233838D01*
X126618500Y-62242733D01*
X126618500Y-62275498D01*
X126600194Y-62319692D01*
X126593455Y-62325531D01*
X126538028Y-62367023D01*
X126453243Y-62480283D01*
X126453239Y-62480290D01*
X126428604Y-62546341D01*
X126396008Y-62581352D01*
X126370045Y-62587000D01*
X126032550Y-62587000D01*
X126019725Y-62585670D01*
X126015690Y-62584824D01*
X126002483Y-62582054D01*
X126002482Y-62582054D01*
X125969971Y-62586107D01*
X125964736Y-62586760D01*
X125960870Y-62587000D01*
X125954889Y-62587000D01*
X125931493Y-62590904D01*
X125876140Y-62597803D01*
X125871181Y-62599280D01*
X125871169Y-62599242D01*
X125865795Y-62600964D01*
X125865808Y-62601002D01*
X125860915Y-62602681D01*
X125811868Y-62629223D01*
X125761754Y-62653722D01*
X125757539Y-62656732D01*
X125757516Y-62656699D01*
X125753002Y-62660065D01*
X125753027Y-62660097D01*
X125748938Y-62663279D01*
X125711168Y-62704307D01*
X125654455Y-62761021D01*
X125590282Y-62825194D01*
X125546090Y-62843500D01*
X125156267Y-62843500D01*
X125125971Y-62833794D01*
X125125492Y-62834775D01*
X125014550Y-62780539D01*
X124945646Y-62770500D01*
X123603354Y-62770500D01*
X123534449Y-62780539D01*
X123534448Y-62780539D01*
X123428161Y-62832499D01*
X123344499Y-62916161D01*
X123292539Y-63022448D01*
X123292539Y-63022449D01*
X123282499Y-63091354D01*
X123282499Y-63358645D01*
X123284664Y-63373500D01*
X123292539Y-63427550D01*
X123305382Y-63453821D01*
X123338982Y-63522551D01*
X123341945Y-63570294D01*
X123338982Y-63577449D01*
X123292539Y-63672450D01*
X123282499Y-63741354D01*
X123282499Y-64008645D01*
X123285991Y-64032607D01*
X123292539Y-64077550D01*
X123299264Y-64091306D01*
X123338982Y-64172551D01*
X123341945Y-64220294D01*
X123338982Y-64227449D01*
X123292539Y-64322450D01*
X123282499Y-64391354D01*
X123282499Y-64658645D01*
X123288849Y-64702223D01*
X123292539Y-64727550D01*
X123312390Y-64768156D01*
X123338982Y-64822551D01*
X123341945Y-64870294D01*
X123338982Y-64877449D01*
X123292539Y-64972450D01*
X123282499Y-65041354D01*
X123282499Y-65308645D01*
X123290172Y-65361306D01*
X123292539Y-65377550D01*
X123310551Y-65414394D01*
X123338982Y-65472551D01*
X123341945Y-65520294D01*
X123338982Y-65527449D01*
X123292539Y-65622450D01*
X123282499Y-65691354D01*
X123282499Y-65958645D01*
X123287625Y-65993825D01*
X123292539Y-66027550D01*
X123324780Y-66093500D01*
X123338982Y-66122551D01*
X123341945Y-66170294D01*
X123338982Y-66177449D01*
X123292539Y-66272450D01*
X123282499Y-66341354D01*
X123282499Y-66608645D01*
X123285801Y-66631306D01*
X123292539Y-66677550D01*
X123313142Y-66719694D01*
X123338982Y-66772551D01*
X123341945Y-66820294D01*
X123338982Y-66827449D01*
X123292539Y-66922450D01*
X123282499Y-66991354D01*
X123282499Y-67258645D01*
X123289444Y-67306306D01*
X123292539Y-67327550D01*
X123308124Y-67359430D01*
X123338982Y-67422551D01*
X123341945Y-67470294D01*
X123338982Y-67477449D01*
X123292539Y-67572450D01*
X123282499Y-67641354D01*
X123282499Y-67908645D01*
X120142500Y-67908645D01*
X120142499Y-66848040D01*
X120143829Y-66835228D01*
X120147445Y-66817984D01*
X120142739Y-66780236D01*
X120142500Y-66776370D01*
X120142500Y-66770393D01*
X120142499Y-66770382D01*
X120138595Y-66746993D01*
X120131696Y-66691639D01*
X120130219Y-66686677D01*
X120130258Y-66686665D01*
X120128540Y-66681303D01*
X120128501Y-66681317D01*
X120126818Y-66676419D01*
X120126818Y-66676414D01*
X120100270Y-66627358D01*
X120075776Y-66577254D01*
X120075775Y-66577253D01*
X120075775Y-66577252D01*
X120072768Y-66573040D01*
X120072801Y-66573016D01*
X120069433Y-66568499D01*
X120069401Y-66568524D01*
X120066220Y-66564438D01*
X120025181Y-66526659D01*
X119736322Y-66237800D01*
X119728192Y-66227788D01*
X119718561Y-66213046D01*
X119718560Y-66213044D01*
X119688539Y-66189678D01*
X119685649Y-66187126D01*
X119681409Y-66182886D01*
X119681408Y-66182885D01*
X119681407Y-66182884D01*
X119662100Y-66169099D01*
X119618084Y-66134841D01*
X119613529Y-66132376D01*
X119613547Y-66132342D01*
X119608541Y-66129764D01*
X119608524Y-66129800D01*
X119603872Y-66127526D01*
X119603870Y-66127525D01*
X119550413Y-66111610D01*
X119497661Y-66093499D01*
X119492552Y-66092647D01*
X119492558Y-66092607D01*
X119486980Y-66091794D01*
X119486975Y-66091835D01*
X119481842Y-66091194D01*
X119463969Y-66091934D01*
X119419057Y-66075469D01*
X119398940Y-66032069D01*
X119400088Y-66017294D01*
X119413076Y-65952000D01*
X117685924Y-65952000D01*
X117698170Y-66013569D01*
X117698171Y-66013570D01*
X117699282Y-66015233D01*
X117699672Y-66017194D01*
X117700528Y-66019261D01*
X117700117Y-66019431D01*
X117708614Y-66062150D01*
X117691509Y-66094151D01*
X117619499Y-66166161D01*
X117567539Y-66272448D01*
X117567539Y-66272449D01*
X117557500Y-66341354D01*
X117557500Y-66608651D01*
X117557663Y-66610900D01*
X117556853Y-66610958D01*
X117545731Y-66654865D01*
X117504635Y-66679348D01*
X117495630Y-66680000D01*
X115646567Y-66680000D01*
X115602373Y-66661694D01*
X115596537Y-66654960D01*
X115523974Y-66558026D01*
X115410715Y-66473242D01*
X115410713Y-66473241D01*
X115410711Y-66473240D01*
X115278158Y-66423800D01*
X115219557Y-66417500D01*
X114650451Y-66417500D01*
X114650434Y-66417501D01*
X114591843Y-66423800D01*
X114591838Y-66423801D01*
X114459288Y-66473240D01*
X114459283Y-66473243D01*
X114346026Y-66558026D01*
X114261243Y-66671283D01*
X114261240Y-66671287D01*
X114241639Y-66723842D01*
X114209043Y-66758852D01*
X114183080Y-66764500D01*
X110472713Y-66764500D01*
X110428519Y-66746194D01*
X108391873Y-64709548D01*
X114205500Y-64709548D01*
X114205501Y-64709565D01*
X114211800Y-64768156D01*
X114211801Y-64768161D01*
X114261240Y-64900711D01*
X114261241Y-64900713D01*
X114261242Y-64900715D01*
X114346026Y-65013974D01*
X114459285Y-65098758D01*
X114591843Y-65148200D01*
X114650443Y-65154500D01*
X115219556Y-65154499D01*
X115278157Y-65148200D01*
X115410715Y-65098758D01*
X115523974Y-65013974D01*
X115607330Y-64902621D01*
X115648469Y-64878213D01*
X115694819Y-64890043D01*
X115701558Y-64895883D01*
X116276430Y-65470755D01*
X116278767Y-65473370D01*
X116303902Y-65504889D01*
X116303903Y-65504889D01*
X116303905Y-65504892D01*
X116352434Y-65537978D01*
X116399717Y-65572875D01*
X116399956Y-65572958D01*
X116414534Y-65580318D01*
X116414741Y-65580459D01*
X116414743Y-65580460D01*
X116438705Y-65587851D01*
X116470872Y-65597773D01*
X116526335Y-65617181D01*
X116526593Y-65617190D01*
X116542678Y-65619923D01*
X116542927Y-65620000D01*
X116542931Y-65620000D01*
X116601672Y-65620000D01*
X116660387Y-65622197D01*
X116660429Y-65622185D01*
X116660636Y-65622131D01*
X116676815Y-65620000D01*
X117625283Y-65620000D01*
X117669477Y-65638306D01*
X117687783Y-65682500D01*
X117686582Y-65694694D01*
X117685924Y-65697999D01*
X117685924Y-65698000D01*
X119413076Y-65698000D01*
X119413076Y-65697999D01*
X119400829Y-65636430D01*
X119400826Y-65636424D01*
X119399719Y-65634767D01*
X119399329Y-65632809D01*
X119398472Y-65630739D01*
X119398883Y-65630568D01*
X119390384Y-65587851D01*
X119407488Y-65555850D01*
X119479499Y-65483840D01*
X119531461Y-65377550D01*
X119541500Y-65308646D01*
X119541500Y-65041354D01*
X119531461Y-64972450D01*
X119516911Y-64942688D01*
X119479500Y-64866161D01*
X119407490Y-64794151D01*
X119389184Y-64749957D01*
X119398495Y-64719268D01*
X119398473Y-64719259D01*
X119398566Y-64719033D01*
X119399721Y-64715228D01*
X119400829Y-64713569D01*
X119413076Y-64652000D01*
X117685924Y-64652000D01*
X117686582Y-64655306D01*
X117677250Y-64702223D01*
X117637477Y-64728799D01*
X117625283Y-64730000D01*
X116820213Y-64730000D01*
X116776019Y-64711694D01*
X116131068Y-64066743D01*
X116128731Y-64064128D01*
X116103594Y-64032607D01*
X116055071Y-63999524D01*
X116007784Y-63964625D01*
X116007530Y-63964536D01*
X115992970Y-63957185D01*
X115992759Y-63957041D01*
X115992758Y-63957040D01*
X115992757Y-63957040D01*
X115936630Y-63939727D01*
X115936630Y-63939726D01*
X115881165Y-63920319D01*
X115881163Y-63920318D01*
X115881161Y-63920318D01*
X115880892Y-63920308D01*
X115864836Y-63917581D01*
X115864577Y-63917501D01*
X115864575Y-63917500D01*
X115864573Y-63917500D01*
X115864569Y-63917500D01*
X115805814Y-63917500D01*
X115747116Y-63915304D01*
X115747115Y-63915304D01*
X115747114Y-63915304D01*
X115747112Y-63915304D01*
X115747108Y-63915305D01*
X115746866Y-63915370D01*
X115730689Y-63917500D01*
X115686920Y-63917500D01*
X115642726Y-63899194D01*
X115631033Y-63881000D01*
X116838312Y-63881000D01*
X116858957Y-64024594D01*
X116858958Y-64024597D01*
X116919222Y-64156556D01*
X116919225Y-64156561D01*
X117014226Y-64266198D01*
X117123510Y-64336430D01*
X117136268Y-64344629D01*
X117265247Y-64382500D01*
X117275461Y-64385499D01*
X117275463Y-64385500D01*
X117275464Y-64385500D01*
X117420537Y-64385500D01*
X117420537Y-64385499D01*
X117559732Y-64344629D01*
X117572499Y-64336424D01*
X117582617Y-64329922D01*
X117616407Y-64320000D01*
X117625283Y-64320000D01*
X117669477Y-64338306D01*
X117687783Y-64382500D01*
X117686582Y-64394694D01*
X117685924Y-64397999D01*
X117685924Y-64398000D01*
X119413076Y-64398000D01*
X119413076Y-64397999D01*
X119400829Y-64336430D01*
X119400826Y-64336424D01*
X119399719Y-64334767D01*
X119399329Y-64332809D01*
X119398472Y-64330739D01*
X119398883Y-64330568D01*
X119390384Y-64287851D01*
X119407488Y-64255850D01*
X119479499Y-64183840D01*
X119531461Y-64077550D01*
X119541500Y-64008646D01*
X119541500Y-63741354D01*
X119531461Y-63672450D01*
X119508872Y-63626243D01*
X119479500Y-63566161D01*
X119407490Y-63494151D01*
X119389184Y-63449957D01*
X119398495Y-63419268D01*
X119398473Y-63419259D01*
X119398566Y-63419033D01*
X119399721Y-63415228D01*
X119400829Y-63413569D01*
X119413076Y-63352000D01*
X117685924Y-63352000D01*
X117686582Y-63355306D01*
X117677250Y-63402223D01*
X117637477Y-63428799D01*
X117625283Y-63430000D01*
X117597735Y-63430000D01*
X117563945Y-63420078D01*
X117559736Y-63417373D01*
X117559727Y-63417369D01*
X117420538Y-63376500D01*
X117420536Y-63376500D01*
X117275464Y-63376500D01*
X117275462Y-63376500D01*
X117136272Y-63417369D01*
X117136263Y-63417373D01*
X117014226Y-63495801D01*
X116919225Y-63605438D01*
X116919222Y-63605443D01*
X116858958Y-63737402D01*
X116858957Y-63737405D01*
X116838312Y-63881000D01*
X115631033Y-63881000D01*
X115628361Y-63876842D01*
X115608759Y-63824287D01*
X115608758Y-63824286D01*
X115608758Y-63824285D01*
X115523974Y-63711026D01*
X115410715Y-63626242D01*
X115410713Y-63626241D01*
X115410711Y-63626240D01*
X115278158Y-63576800D01*
X115219557Y-63570500D01*
X114650451Y-63570500D01*
X114650434Y-63570501D01*
X114591843Y-63576800D01*
X114591838Y-63576801D01*
X114459288Y-63626240D01*
X114459283Y-63626243D01*
X114346026Y-63711026D01*
X114261243Y-63824283D01*
X114261240Y-63824288D01*
X114211800Y-63956841D01*
X114205502Y-64015419D01*
X114205500Y-64015448D01*
X114205500Y-64709548D01*
X108391873Y-64709548D01*
X106446825Y-62764500D01*
X114333000Y-62764500D01*
X114333000Y-62972091D01*
X114343323Y-63042942D01*
X114396750Y-63152231D01*
X114482768Y-63238249D01*
X114592057Y-63291676D01*
X114662909Y-63302000D01*
X114808000Y-63302000D01*
X114808000Y-63301999D01*
X115061999Y-63301999D01*
X115062000Y-63302000D01*
X115207091Y-63302000D01*
X115277942Y-63291676D01*
X115387231Y-63238249D01*
X115473249Y-63152231D01*
X115499761Y-63097999D01*
X117685923Y-63097999D01*
X117685924Y-63098000D01*
X118422500Y-63098000D01*
X118422500Y-62898000D01*
X118676500Y-62898000D01*
X118676500Y-63098000D01*
X119413076Y-63098000D01*
X119413076Y-63097999D01*
X119400829Y-63036430D01*
X119400827Y-63036426D01*
X119350657Y-62961342D01*
X119275572Y-62911171D01*
X119275570Y-62911170D01*
X119209356Y-62898000D01*
X118676500Y-62898000D01*
X118422500Y-62898000D01*
X117889644Y-62898000D01*
X117823429Y-62911170D01*
X117823427Y-62911171D01*
X117748342Y-62961342D01*
X117698172Y-63036426D01*
X117698170Y-63036430D01*
X117685923Y-63097999D01*
X115499761Y-63097999D01*
X115526676Y-63042942D01*
X115537000Y-62972091D01*
X115537000Y-62764500D01*
X115062000Y-62764500D01*
X115061999Y-63301999D01*
X114808000Y-63301999D01*
X114808000Y-62764500D01*
X114333000Y-62764500D01*
X106446825Y-62764500D01*
X106192825Y-62510500D01*
X114333000Y-62510500D01*
X114808000Y-62510500D01*
X114808000Y-62510499D01*
X115061999Y-62510499D01*
X115062000Y-62510500D01*
X115537000Y-62510500D01*
X115537000Y-62302908D01*
X115526676Y-62232057D01*
X115473249Y-62122768D01*
X115387231Y-62036750D01*
X115277942Y-61983323D01*
X115207091Y-61973000D01*
X115062000Y-61973000D01*
X115061999Y-62510499D01*
X114808000Y-62510499D01*
X114808000Y-61973000D01*
X114662909Y-61973000D01*
X114592057Y-61983323D01*
X114482768Y-62036750D01*
X114396750Y-62122768D01*
X114343323Y-62232057D01*
X114333000Y-62302908D01*
X114333000Y-62510500D01*
X106192825Y-62510500D01*
X104603306Y-60920981D01*
X104585000Y-60876787D01*
X104585000Y-59586999D01*
X104603306Y-59542805D01*
X104647500Y-59524499D01*
X105015065Y-59524499D01*
X105015066Y-59524499D01*
X105089301Y-59509734D01*
X105173484Y-59453484D01*
X105229734Y-59369301D01*
X105244500Y-59295067D01*
X105244499Y-58297000D01*
X140530782Y-58297000D01*
X140537136Y-58361523D01*
X140593004Y-58545692D01*
X140683720Y-58715412D01*
X140683728Y-58715423D01*
X140805812Y-58864184D01*
X140805815Y-58864187D01*
X140954576Y-58986271D01*
X140954587Y-58986279D01*
X141124307Y-59076995D01*
X141308476Y-59132863D01*
X141373000Y-59139217D01*
X141373000Y-58656881D01*
X141464237Y-58670000D01*
X141535763Y-58670000D01*
X141627000Y-58656881D01*
X141627000Y-59139217D01*
X141691523Y-59132863D01*
X141875692Y-59076995D01*
X142045412Y-58986279D01*
X142045423Y-58986271D01*
X142194184Y-58864187D01*
X142194187Y-58864184D01*
X142316271Y-58715423D01*
X142316279Y-58715412D01*
X142406995Y-58545692D01*
X142462863Y-58361523D01*
X142469218Y-58297000D01*
X143070782Y-58297000D01*
X143077136Y-58361523D01*
X143133004Y-58545692D01*
X143223720Y-58715412D01*
X143223728Y-58715423D01*
X143345812Y-58864184D01*
X143345815Y-58864187D01*
X143494576Y-58986271D01*
X143494587Y-58986279D01*
X143664307Y-59076995D01*
X143848476Y-59132863D01*
X143913000Y-59139217D01*
X143913000Y-58656881D01*
X144004237Y-58670000D01*
X144075763Y-58670000D01*
X144167000Y-58656881D01*
X144167000Y-59139217D01*
X144231523Y-59132863D01*
X144415692Y-59076995D01*
X144585412Y-58986279D01*
X144585423Y-58986271D01*
X144734184Y-58864187D01*
X144734187Y-58864184D01*
X144856271Y-58715423D01*
X144856279Y-58715412D01*
X144946995Y-58545692D01*
X145002863Y-58361523D01*
X145009218Y-58297000D01*
X144523818Y-58297000D01*
X144540000Y-58241889D01*
X144540000Y-58098111D01*
X144523818Y-58043000D01*
X145009217Y-58043000D01*
X145002863Y-57978476D01*
X144946995Y-57794307D01*
X144856279Y-57624587D01*
X144856271Y-57624576D01*
X144734187Y-57475815D01*
X144734184Y-57475812D01*
X144585423Y-57353728D01*
X144585412Y-57353720D01*
X144415692Y-57263004D01*
X144231524Y-57207136D01*
X144167000Y-57200780D01*
X144167000Y-57683118D01*
X144075763Y-57670000D01*
X144004237Y-57670000D01*
X143913000Y-57683118D01*
X143913000Y-57200781D01*
X143912999Y-57200780D01*
X143848475Y-57207136D01*
X143664307Y-57263004D01*
X143494587Y-57353720D01*
X143494576Y-57353728D01*
X143345815Y-57475812D01*
X143345812Y-57475815D01*
X143223728Y-57624576D01*
X143223720Y-57624587D01*
X143133004Y-57794307D01*
X143077136Y-57978476D01*
X143070782Y-58043000D01*
X143556182Y-58043000D01*
X143540000Y-58098111D01*
X143540000Y-58241889D01*
X143556182Y-58297000D01*
X143070782Y-58297000D01*
X142469218Y-58297000D01*
X141983818Y-58297000D01*
X142000000Y-58241889D01*
X142000000Y-58098111D01*
X141983818Y-58043000D01*
X142469217Y-58043000D01*
X142462863Y-57978476D01*
X142406995Y-57794307D01*
X142316279Y-57624587D01*
X142316271Y-57624576D01*
X142194187Y-57475815D01*
X142194184Y-57475812D01*
X142045423Y-57353728D01*
X142045412Y-57353720D01*
X141875692Y-57263004D01*
X141691524Y-57207136D01*
X141627000Y-57200780D01*
X141627000Y-57683118D01*
X141535763Y-57670000D01*
X141464237Y-57670000D01*
X141373000Y-57683118D01*
X141373000Y-57200780D01*
X141372999Y-57200780D01*
X141308475Y-57207136D01*
X141124307Y-57263004D01*
X140954587Y-57353720D01*
X140954576Y-57353728D01*
X140805815Y-57475812D01*
X140805812Y-57475815D01*
X140683728Y-57624576D01*
X140683720Y-57624587D01*
X140593004Y-57794307D01*
X140537136Y-57978476D01*
X140530782Y-58043000D01*
X141016182Y-58043000D01*
X141000000Y-58098111D01*
X141000000Y-58241889D01*
X141016182Y-58297000D01*
X140530782Y-58297000D01*
X105244499Y-58297000D01*
X105244499Y-57679500D01*
X128434001Y-57679500D01*
X128434001Y-57925777D01*
X128444676Y-57999056D01*
X128444678Y-57999060D01*
X128499936Y-58112095D01*
X128588904Y-58201063D01*
X128701941Y-58256322D01*
X128775221Y-58266999D01*
X129158999Y-58266999D01*
X129159000Y-58266998D01*
X129159000Y-57679500D01*
X129413000Y-57679500D01*
X129413000Y-58266999D01*
X129796778Y-58266999D01*
X129870056Y-58256323D01*
X129870060Y-58256321D01*
X129983095Y-58201063D01*
X130072063Y-58112095D01*
X130127322Y-57999058D01*
X130138000Y-57925778D01*
X130138000Y-57679500D01*
X129413000Y-57679500D01*
X129159000Y-57679500D01*
X128434001Y-57679500D01*
X105244499Y-57679500D01*
X105244499Y-57544934D01*
X105229734Y-57470699D01*
X105225458Y-57464299D01*
X105199533Y-57425500D01*
X128434000Y-57425500D01*
X129159000Y-57425500D01*
X129159000Y-56838000D01*
X129413000Y-56838000D01*
X129413000Y-57425500D01*
X130137999Y-57425500D01*
X130137999Y-57179222D01*
X130127323Y-57105943D01*
X130127321Y-57105939D01*
X130072063Y-56992904D01*
X129983095Y-56903936D01*
X129870058Y-56848677D01*
X129796778Y-56838000D01*
X129413000Y-56838000D01*
X129159000Y-56838000D01*
X128775222Y-56838000D01*
X128701943Y-56848676D01*
X128701939Y-56848678D01*
X128588904Y-56903936D01*
X128499936Y-56992904D01*
X128444677Y-57105941D01*
X128434000Y-57179221D01*
X128434000Y-57425500D01*
X105199533Y-57425500D01*
X105173484Y-57386515D01*
X105089302Y-57330266D01*
X105089300Y-57330265D01*
X105015067Y-57315500D01*
X103264935Y-57315500D01*
X103264931Y-57315501D01*
X103190700Y-57330265D01*
X103190696Y-57330267D01*
X103106515Y-57386515D01*
X103050266Y-57470697D01*
X103050265Y-57470699D01*
X103035500Y-57544932D01*
X103035500Y-59295064D01*
X98500000Y-59295064D01*
X98500000Y-55863246D01*
X128306500Y-55863246D01*
X128306501Y-55863263D01*
X128312960Y-55923343D01*
X128363656Y-56059263D01*
X128363657Y-56059265D01*
X128363658Y-56059267D01*
X128450596Y-56175404D01*
X128566733Y-56262342D01*
X128702658Y-56313040D01*
X128762745Y-56319500D01*
X129809254Y-56319499D01*
X129869342Y-56313040D01*
X130005267Y-56262342D01*
X130121404Y-56175404D01*
X130208342Y-56059267D01*
X130222263Y-56021941D01*
X130244190Y-55963158D01*
X130276786Y-55928148D01*
X130302749Y-55922500D01*
X130832287Y-55922500D01*
X130876481Y-55940806D01*
X131096430Y-56160755D01*
X131098764Y-56163367D01*
X131106267Y-56172775D01*
X131123902Y-56194889D01*
X131123903Y-56194889D01*
X131123905Y-56194892D01*
X131172434Y-56227978D01*
X131219717Y-56262875D01*
X131219956Y-56262958D01*
X131234534Y-56270318D01*
X131234741Y-56270459D01*
X131234743Y-56270460D01*
X131290872Y-56287772D01*
X131290872Y-56287773D01*
X131346335Y-56307181D01*
X131346592Y-56307190D01*
X131362683Y-56309925D01*
X131362926Y-56310000D01*
X131362927Y-56310000D01*
X131421686Y-56310000D01*
X131424059Y-56310088D01*
X131480386Y-56312196D01*
X131480535Y-56312155D01*
X131480634Y-56312130D01*
X131496811Y-56310000D01*
X131504500Y-56310000D01*
X131548694Y-56328306D01*
X131567000Y-56372500D01*
X131567000Y-56388000D01*
X132083500Y-56388000D01*
X132127694Y-56406306D01*
X132146000Y-56450500D01*
X132146000Y-56579500D01*
X132127694Y-56623694D01*
X132083500Y-56642000D01*
X131567000Y-56642000D01*
X131567000Y-56710366D01*
X131548694Y-56754560D01*
X131539224Y-56762332D01*
X131510520Y-56781512D01*
X131510517Y-56781514D01*
X131454265Y-56865700D01*
X131439500Y-56939932D01*
X131439500Y-57390064D01*
X131439501Y-57390068D01*
X131454265Y-57464299D01*
X131454267Y-57464303D01*
X131510515Y-57548484D01*
X131594697Y-57604733D01*
X131594699Y-57604734D01*
X131668933Y-57619500D01*
X132369066Y-57619499D01*
X132410786Y-57611201D01*
X132422979Y-57610000D01*
X132673258Y-57610000D01*
X132676760Y-57610197D01*
X132684841Y-57611107D01*
X132716827Y-57614711D01*
X132774543Y-57603790D01*
X132832647Y-57595033D01*
X132832871Y-57594924D01*
X132848391Y-57589817D01*
X132848634Y-57589772D01*
X132900573Y-57562321D01*
X132953509Y-57536829D01*
X132953691Y-57536659D01*
X132967014Y-57527206D01*
X132967235Y-57527090D01*
X133008783Y-57485541D01*
X133051844Y-57445587D01*
X133051970Y-57445368D01*
X133061903Y-57432420D01*
X133232807Y-57261516D01*
X133277000Y-57243211D01*
X133321194Y-57261517D01*
X133339500Y-57305710D01*
X133339500Y-57390064D01*
X133339501Y-57390068D01*
X133354265Y-57464299D01*
X133354267Y-57464303D01*
X133410515Y-57548484D01*
X133494697Y-57604733D01*
X133494699Y-57604734D01*
X133568933Y-57619500D01*
X134269066Y-57619499D01*
X134310786Y-57611201D01*
X134322979Y-57610000D01*
X134424787Y-57610000D01*
X134468981Y-57628306D01*
X134563930Y-57723255D01*
X134566267Y-57725870D01*
X134591402Y-57757389D01*
X134591403Y-57757390D01*
X134591405Y-57757392D01*
X134639928Y-57790475D01*
X134676580Y-57817525D01*
X134687213Y-57825373D01*
X134687214Y-57825374D01*
X134687215Y-57825374D01*
X134687216Y-57825375D01*
X134687465Y-57825462D01*
X134702029Y-57832814D01*
X134702241Y-57832959D01*
X134758369Y-57850272D01*
X134813835Y-57869681D01*
X134814092Y-57869690D01*
X134830183Y-57872425D01*
X134830426Y-57872500D01*
X134830427Y-57872500D01*
X134889186Y-57872500D01*
X134891559Y-57872588D01*
X134947886Y-57874696D01*
X134948035Y-57874655D01*
X134948134Y-57874630D01*
X134964311Y-57872500D01*
X135791730Y-57872500D01*
X135835924Y-57890806D01*
X135850288Y-57913158D01*
X135851242Y-57915715D01*
X135936026Y-58028974D01*
X136049285Y-58113758D01*
X136181843Y-58163200D01*
X136240443Y-58169500D01*
X136809556Y-58169499D01*
X136868157Y-58163200D01*
X137000715Y-58113758D01*
X137113974Y-58028974D01*
X137198758Y-57915715D01*
X137248200Y-57783157D01*
X137254500Y-57724557D01*
X137254499Y-57130444D01*
X137248200Y-57071843D01*
X137198758Y-56939285D01*
X137113974Y-56826026D01*
X137000715Y-56741242D01*
X137000713Y-56741241D01*
X137000711Y-56741240D01*
X136868158Y-56691800D01*
X136809557Y-56685500D01*
X136240451Y-56685500D01*
X136240434Y-56685501D01*
X136181843Y-56691800D01*
X136181838Y-56691801D01*
X136049288Y-56741240D01*
X136049283Y-56741243D01*
X135936026Y-56826026D01*
X135851242Y-56939284D01*
X135851241Y-56939285D01*
X135851242Y-56939285D01*
X135850289Y-56941840D01*
X135849220Y-56942987D01*
X135849102Y-56943205D01*
X135849046Y-56943174D01*
X135817696Y-56976851D01*
X135791730Y-56982500D01*
X135107713Y-56982500D01*
X135063519Y-56964194D01*
X134968568Y-56869243D01*
X134966231Y-56866628D01*
X134965490Y-56865699D01*
X134941095Y-56835108D01*
X134892571Y-56802024D01*
X134845284Y-56767125D01*
X134845030Y-56767036D01*
X134830470Y-56759685D01*
X134830259Y-56759541D01*
X134830258Y-56759540D01*
X134830257Y-56759540D01*
X134774130Y-56742227D01*
X134752047Y-56734500D01*
X134718665Y-56722819D01*
X134718663Y-56722818D01*
X134718661Y-56722818D01*
X134718392Y-56722808D01*
X134702336Y-56720081D01*
X134702077Y-56720001D01*
X134702075Y-56720000D01*
X134702073Y-56720000D01*
X134702069Y-56720000D01*
X134643314Y-56720000D01*
X134584616Y-56717804D01*
X134584615Y-56717804D01*
X134584614Y-56717804D01*
X134584612Y-56717804D01*
X134584608Y-56717805D01*
X134584366Y-56717870D01*
X134568189Y-56720000D01*
X134433500Y-56720000D01*
X134389306Y-56701694D01*
X134371000Y-56657500D01*
X134371000Y-56642000D01*
X133854500Y-56642000D01*
X133810306Y-56623694D01*
X133792000Y-56579500D01*
X133792000Y-56450500D01*
X133810306Y-56406306D01*
X133854500Y-56388000D01*
X134371000Y-56388000D01*
X134371000Y-56372500D01*
X134389306Y-56328306D01*
X134433500Y-56310000D01*
X134989258Y-56310000D01*
X134992760Y-56310197D01*
X135000841Y-56311107D01*
X135032827Y-56314711D01*
X135090543Y-56303790D01*
X135148647Y-56295033D01*
X135148871Y-56294924D01*
X135164391Y-56289817D01*
X135164634Y-56289772D01*
X135216573Y-56262321D01*
X135269509Y-56236829D01*
X135269691Y-56236659D01*
X135283014Y-56227206D01*
X135283235Y-56227090D01*
X135324783Y-56185541D01*
X135367844Y-56145587D01*
X135367970Y-56145368D01*
X135377900Y-56132423D01*
X135444520Y-56065804D01*
X135488713Y-56047500D01*
X135791730Y-56047500D01*
X135835924Y-56065806D01*
X135850288Y-56088158D01*
X135851242Y-56090715D01*
X135936026Y-56203974D01*
X136049285Y-56288758D01*
X136181843Y-56338200D01*
X136240443Y-56344500D01*
X136809556Y-56344499D01*
X136868157Y-56338200D01*
X137000715Y-56288758D01*
X137113974Y-56203974D01*
X137144239Y-56163544D01*
X137185377Y-56139136D01*
X137194272Y-56138500D01*
X140333001Y-56138500D01*
X140377195Y-56156806D01*
X140395501Y-56201000D01*
X140395501Y-56505068D01*
X140410265Y-56579299D01*
X140410267Y-56579303D01*
X140466515Y-56663484D01*
X140550697Y-56719733D01*
X140550699Y-56719734D01*
X140624933Y-56734500D01*
X142375066Y-56734499D01*
X142449301Y-56719734D01*
X142533484Y-56663484D01*
X142589734Y-56579301D01*
X142604500Y-56505067D01*
X142604500Y-55630004D01*
X142930768Y-55630004D01*
X142949653Y-55833813D01*
X142949655Y-55833825D01*
X142986454Y-55963158D01*
X143005672Y-56030701D01*
X143096912Y-56213935D01*
X143096913Y-56213936D01*
X143096915Y-56213940D01*
X143220259Y-56377275D01*
X143220264Y-56377280D01*
X143220268Y-56377285D01*
X143300581Y-56450500D01*
X143371533Y-56515182D01*
X143371534Y-56515183D01*
X143371538Y-56515186D01*
X143545573Y-56622944D01*
X143736444Y-56696888D01*
X143937653Y-56734500D01*
X143937656Y-56734500D01*
X144142344Y-56734500D01*
X144142347Y-56734500D01*
X144343556Y-56696888D01*
X144534427Y-56622944D01*
X144708462Y-56515186D01*
X144859732Y-56377285D01*
X144863346Y-56372500D01*
X144983084Y-56213940D01*
X144983083Y-56213940D01*
X144983088Y-56213935D01*
X145074328Y-56030701D01*
X145130345Y-55833821D01*
X145149232Y-55630000D01*
X145130345Y-55426179D01*
X145130085Y-55425266D01*
X145104425Y-55335078D01*
X145074328Y-55229299D01*
X144983088Y-55046065D01*
X144983085Y-55046061D01*
X144983084Y-55046059D01*
X144859740Y-54882724D01*
X144859735Y-54882719D01*
X144859732Y-54882715D01*
X144746616Y-54779596D01*
X144708466Y-54744817D01*
X144708463Y-54744815D01*
X144708462Y-54744814D01*
X144534427Y-54637056D01*
X144534425Y-54637055D01*
X144477698Y-54615079D01*
X144343556Y-54563112D01*
X144343553Y-54563111D01*
X144343552Y-54563111D01*
X144142351Y-54525500D01*
X144142347Y-54525500D01*
X143937653Y-54525500D01*
X143937648Y-54525500D01*
X143736447Y-54563111D01*
X143545574Y-54637055D01*
X143371533Y-54744817D01*
X143220266Y-54882717D01*
X143220259Y-54882724D01*
X143096915Y-55046059D01*
X143096912Y-55046065D01*
X143005672Y-55229298D01*
X142949655Y-55426174D01*
X142949653Y-55426186D01*
X142930768Y-55629995D01*
X142930768Y-55630004D01*
X142604500Y-55630004D01*
X142604499Y-54754934D01*
X142589734Y-54680699D01*
X142589732Y-54680696D01*
X142533484Y-54596515D01*
X142449302Y-54540266D01*
X142449300Y-54540265D01*
X142375067Y-54525500D01*
X140624935Y-54525500D01*
X140624931Y-54525501D01*
X140550700Y-54540265D01*
X140550696Y-54540267D01*
X140466515Y-54596515D01*
X140410266Y-54680697D01*
X140410265Y-54680699D01*
X140395500Y-54754932D01*
X140395500Y-55059000D01*
X140377194Y-55103194D01*
X140333000Y-55121500D01*
X137235444Y-55121500D01*
X137191250Y-55103194D01*
X137185415Y-55096461D01*
X137113974Y-55001026D01*
X137000715Y-54916242D01*
X137000713Y-54916241D01*
X136997137Y-54913564D01*
X136998312Y-54911993D01*
X136972527Y-54879980D01*
X136970000Y-54862387D01*
X136970000Y-54738612D01*
X136988306Y-54694418D01*
X136997315Y-54687676D01*
X136997136Y-54687437D01*
X137000715Y-54684758D01*
X137113974Y-54599974D01*
X137198758Y-54486715D01*
X137248200Y-54354157D01*
X137254500Y-54295557D01*
X137254499Y-53601444D01*
X137248200Y-53542843D01*
X137198758Y-53410285D01*
X137113974Y-53297026D01*
X137000715Y-53212242D01*
X137000713Y-53212241D01*
X137000711Y-53212240D01*
X136868158Y-53162800D01*
X136809557Y-53156500D01*
X136240451Y-53156500D01*
X136240434Y-53156501D01*
X136181843Y-53162800D01*
X136181838Y-53162801D01*
X136049288Y-53212240D01*
X136049279Y-53212245D01*
X135976593Y-53266657D01*
X135930244Y-53278487D01*
X135894945Y-53260817D01*
X135403970Y-52769842D01*
X135395585Y-52759437D01*
X135389249Y-52749578D01*
X135348570Y-52714329D01*
X135346949Y-52712821D01*
X135334848Y-52700720D01*
X135321158Y-52690472D01*
X135319434Y-52689083D01*
X135278743Y-52653824D01*
X135278741Y-52653823D01*
X135278740Y-52653822D01*
X135268077Y-52648953D01*
X135256588Y-52642136D01*
X135247204Y-52635111D01*
X135247202Y-52635110D01*
X135196757Y-52616294D01*
X135194697Y-52615441D01*
X135145737Y-52593082D01*
X135145735Y-52593081D01*
X135145734Y-52593081D01*
X135145731Y-52593080D01*
X135145729Y-52593080D01*
X135134132Y-52591412D01*
X135121191Y-52588109D01*
X135110203Y-52584011D01*
X135056494Y-52580168D01*
X135054278Y-52579930D01*
X135037373Y-52577500D01*
X135037368Y-52577500D01*
X135020282Y-52577500D01*
X135018052Y-52577420D01*
X134964352Y-52573579D01*
X134964351Y-52573580D01*
X134952894Y-52576072D01*
X134939611Y-52577500D01*
X134785999Y-52577500D01*
X134741805Y-52559194D01*
X134723499Y-52515000D01*
X134723499Y-52350500D01*
X135923000Y-52350500D01*
X135923000Y-52558091D01*
X135933323Y-52628942D01*
X135986750Y-52738231D01*
X136072768Y-52824249D01*
X136182057Y-52877676D01*
X136252909Y-52888000D01*
X136398000Y-52888000D01*
X136398000Y-52350500D01*
X136652000Y-52350500D01*
X136652000Y-52888000D01*
X136797091Y-52888000D01*
X136867942Y-52877676D01*
X136977231Y-52824249D01*
X137063249Y-52738231D01*
X137116676Y-52628942D01*
X137127000Y-52558091D01*
X137127000Y-52350500D01*
X136652000Y-52350500D01*
X136398000Y-52350500D01*
X135923000Y-52350500D01*
X134723499Y-52350500D01*
X134723499Y-52096500D01*
X135923000Y-52096500D01*
X136398000Y-52096500D01*
X136398000Y-51559000D01*
X136652000Y-51559000D01*
X136652000Y-52096500D01*
X137127000Y-52096500D01*
X137127000Y-51888908D01*
X137116676Y-51818057D01*
X137063249Y-51708768D01*
X136977231Y-51622750D01*
X136867942Y-51569323D01*
X136797091Y-51559000D01*
X136652000Y-51559000D01*
X136398000Y-51559000D01*
X136252909Y-51559000D01*
X136182057Y-51569323D01*
X136072768Y-51622750D01*
X135986750Y-51708768D01*
X135933323Y-51818057D01*
X135923000Y-51888908D01*
X135923000Y-52096500D01*
X134723499Y-52096500D01*
X134723499Y-51881245D01*
X134720621Y-51850549D01*
X134709251Y-51818057D01*
X134675369Y-51721227D01*
X134594010Y-51610990D01*
X134538891Y-51570310D01*
X134483774Y-51529631D01*
X134419112Y-51507005D01*
X134354451Y-51484379D01*
X134354449Y-51484378D01*
X134354448Y-51484378D01*
X134334274Y-51482486D01*
X134323749Y-51481500D01*
X134323745Y-51481500D01*
X133814245Y-51481500D01*
X133783549Y-51484378D01*
X133654226Y-51529631D01*
X133654225Y-51529631D01*
X133543990Y-51610990D01*
X133462631Y-51721225D01*
X133417379Y-51850549D01*
X133417378Y-51850551D01*
X133414500Y-51881254D01*
X133414500Y-54290754D01*
X133417378Y-54321450D01*
X133462631Y-54450773D01*
X133462631Y-54450774D01*
X133489158Y-54486716D01*
X133543990Y-54561010D01*
X133592099Y-54596516D01*
X133654225Y-54642368D01*
X133654226Y-54642368D01*
X133654227Y-54642369D01*
X133783549Y-54687621D01*
X133814251Y-54690500D01*
X134323748Y-54690499D01*
X134323754Y-54690499D01*
X134350064Y-54688032D01*
X134354451Y-54687621D01*
X134483773Y-54642369D01*
X134594010Y-54561010D01*
X134675369Y-54450773D01*
X134720621Y-54321451D01*
X134723500Y-54290749D01*
X134723500Y-53678516D01*
X134741806Y-53634322D01*
X134786000Y-53616016D01*
X134830194Y-53634322D01*
X135460529Y-54264657D01*
X135468915Y-54275063D01*
X135475249Y-54284920D01*
X135515928Y-54320169D01*
X135517548Y-54321676D01*
X135523607Y-54327735D01*
X135529651Y-54333780D01*
X135543344Y-54344030D01*
X135545073Y-54345422D01*
X135548913Y-54348750D01*
X135585755Y-54380675D01*
X135585756Y-54380675D01*
X135585757Y-54380676D01*
X135596419Y-54385545D01*
X135607910Y-54392363D01*
X135617296Y-54399389D01*
X135667742Y-54418203D01*
X135669800Y-54419056D01*
X135718766Y-54441419D01*
X135730365Y-54443086D01*
X135743314Y-54446390D01*
X135754299Y-54450488D01*
X135800556Y-54453796D01*
X135843331Y-54475208D01*
X135850952Y-54486185D01*
X135851239Y-54486711D01*
X135851242Y-54486715D01*
X135936026Y-54599974D01*
X135992660Y-54642369D01*
X136052864Y-54687437D01*
X136051682Y-54689014D01*
X136077463Y-54720987D01*
X136080000Y-54738612D01*
X136080000Y-54862387D01*
X136061694Y-54906581D01*
X136052685Y-54913326D01*
X136052863Y-54913564D01*
X136049286Y-54916241D01*
X136049285Y-54916242D01*
X135936025Y-55001025D01*
X135936026Y-55001026D01*
X135851242Y-55114284D01*
X135851241Y-55114285D01*
X135851242Y-55114285D01*
X135850289Y-55116840D01*
X135849220Y-55117987D01*
X135849102Y-55118205D01*
X135849046Y-55118174D01*
X135817696Y-55151851D01*
X135791730Y-55157500D01*
X135305242Y-55157500D01*
X135301740Y-55157303D01*
X135261673Y-55152789D01*
X135203956Y-55163709D01*
X135145851Y-55172467D01*
X135145609Y-55172584D01*
X135130132Y-55177677D01*
X135129869Y-55177726D01*
X135077926Y-55205178D01*
X135024995Y-55230667D01*
X135024987Y-55230673D01*
X135024792Y-55230855D01*
X135011507Y-55240282D01*
X135011266Y-55240409D01*
X135011263Y-55240411D01*
X134969716Y-55281958D01*
X134926657Y-55321912D01*
X134926649Y-55321921D01*
X134926519Y-55322148D01*
X134916595Y-55335078D01*
X134849979Y-55401694D01*
X134805788Y-55420000D01*
X134322982Y-55420000D01*
X134310789Y-55418799D01*
X134269067Y-55410500D01*
X133568935Y-55410500D01*
X133568930Y-55410501D01*
X133488691Y-55426460D01*
X133441775Y-55417127D01*
X133415200Y-55377353D01*
X133414000Y-55365170D01*
X133414000Y-55271739D01*
X133414197Y-55268239D01*
X133414969Y-55261378D01*
X133418711Y-55228173D01*
X133407790Y-55170456D01*
X133399033Y-55112353D01*
X133398924Y-55112128D01*
X133393817Y-55096605D01*
X133393772Y-55096366D01*
X133366321Y-55044426D01*
X133340829Y-54991491D01*
X133340653Y-54991301D01*
X133331208Y-54977988D01*
X133331091Y-54977767D01*
X133331090Y-54977765D01*
X133289541Y-54936216D01*
X133268523Y-54913564D01*
X133249587Y-54893155D01*
X133249364Y-54893027D01*
X133236419Y-54883094D01*
X132541805Y-54188479D01*
X132523499Y-54144285D01*
X132523499Y-51881245D01*
X132520621Y-51850549D01*
X132509251Y-51818057D01*
X132475369Y-51721227D01*
X132394010Y-51610990D01*
X132338891Y-51570310D01*
X132283774Y-51529631D01*
X132219112Y-51507005D01*
X132154451Y-51484379D01*
X132154449Y-51484378D01*
X132154448Y-51484378D01*
X132134274Y-51482486D01*
X132123749Y-51481500D01*
X132123745Y-51481500D01*
X131614245Y-51481500D01*
X131583549Y-51484378D01*
X131454226Y-51529631D01*
X131454225Y-51529631D01*
X131343990Y-51610990D01*
X131262631Y-51721225D01*
X131217379Y-51850549D01*
X131217378Y-51850551D01*
X131214500Y-51881254D01*
X131214500Y-54290754D01*
X131217378Y-54321450D01*
X131262631Y-54450773D01*
X131262631Y-54450774D01*
X131289158Y-54486716D01*
X131343990Y-54561010D01*
X131392099Y-54596516D01*
X131454225Y-54642368D01*
X131454226Y-54642368D01*
X131454227Y-54642369D01*
X131583549Y-54687621D01*
X131614251Y-54690500D01*
X131759286Y-54690499D01*
X131803480Y-54708805D01*
X132398481Y-55303806D01*
X132416787Y-55348000D01*
X132398481Y-55392194D01*
X132354287Y-55410500D01*
X131668935Y-55410500D01*
X131648223Y-55414620D01*
X131601307Y-55405285D01*
X131591839Y-55397514D01*
X131376068Y-55181743D01*
X131373731Y-55179128D01*
X131371356Y-55176150D01*
X131348595Y-55147608D01*
X131300071Y-55114524D01*
X131252784Y-55079625D01*
X131252530Y-55079536D01*
X131237970Y-55072185D01*
X131237759Y-55072041D01*
X131237758Y-55072040D01*
X131237757Y-55072040D01*
X131181630Y-55054727D01*
X131152191Y-55044426D01*
X131126165Y-55035319D01*
X131126163Y-55035318D01*
X131126161Y-55035318D01*
X131125892Y-55035308D01*
X131109836Y-55032581D01*
X131109577Y-55032501D01*
X131109575Y-55032500D01*
X131109573Y-55032500D01*
X131109569Y-55032500D01*
X131050814Y-55032500D01*
X130992116Y-55030304D01*
X130992115Y-55030304D01*
X130992114Y-55030304D01*
X130992112Y-55030304D01*
X130992108Y-55030305D01*
X130991866Y-55030370D01*
X130975689Y-55032500D01*
X130302749Y-55032500D01*
X130258555Y-55014194D01*
X130244190Y-54991842D01*
X130208343Y-54895736D01*
X130208342Y-54895733D01*
X130121404Y-54779596D01*
X130005267Y-54692658D01*
X130005265Y-54692657D01*
X130005263Y-54692656D01*
X129869343Y-54641960D01*
X129832559Y-54638005D01*
X129790575Y-54615079D01*
X129779272Y-54593469D01*
X129778918Y-54592264D01*
X129755171Y-54540265D01*
X129718176Y-54459257D01*
X129718173Y-54459253D01*
X129622419Y-54348747D01*
X129499415Y-54269698D01*
X129499406Y-54269694D01*
X129359113Y-54228500D01*
X129359111Y-54228500D01*
X129212889Y-54228500D01*
X129212887Y-54228500D01*
X129072593Y-54269694D01*
X129072584Y-54269698D01*
X128949580Y-54348747D01*
X128853826Y-54459253D01*
X128853823Y-54459258D01*
X128793082Y-54592262D01*
X128792726Y-54593475D01*
X128792269Y-54594041D01*
X128791224Y-54596331D01*
X128790639Y-54596064D01*
X128762709Y-54630720D01*
X128739439Y-54638006D01*
X128702656Y-54641960D01*
X128566736Y-54692656D01*
X128566731Y-54692659D01*
X128450596Y-54779596D01*
X128363659Y-54895731D01*
X128363656Y-54895736D01*
X128312960Y-55031656D01*
X128306500Y-55091737D01*
X128306500Y-55863246D01*
X98500000Y-55863246D01*
X98500000Y-51279887D01*
X98518305Y-51235694D01*
X98735694Y-51018306D01*
X98779888Y-51000000D01*
X147220112Y-51000000D01*
X147264306Y-51018306D01*
G37*
G04 #@! TD.AperFunction*
G04 #@! TD*
M02*
