%TF.GenerationSoftware,KiCad,Pcbnew,7.0.6*%
%TF.CreationDate,2023-08-11T00:36:38+02:00*%
%TF.ProjectId,ADS868_Test,41445338-3638-45f5-9465-73742e6b6963,rev?*%
%TF.SameCoordinates,Original*%
%TF.FileFunction,Drillmap*%
%TF.FilePolarity,Positive*%
%FSLAX45Y45*%
G04 Gerber Fmt 4.5, Leading zero omitted, Abs format (unit mm)*
G04 Created by KiCad (PCBNEW 7.0.6) date 2023-08-11 00:36:38*
%MOMM*%
%LPD*%
G01*
G04 APERTURE LIST*
%ADD10C,0.100000*%
%ADD11C,0.200000*%
G04 APERTURE END LIST*
D10*
X9800000Y-5050000D02*
X14800000Y-5050000D01*
X14800000Y-9450000D01*
X9800000Y-9450000D01*
X9800000Y-5050000D01*
D11*
X10055777Y-9766484D02*
X10055777Y-9566484D01*
X10055777Y-9566484D02*
X10103396Y-9566484D01*
X10103396Y-9566484D02*
X10131967Y-9576008D01*
X10131967Y-9576008D02*
X10151015Y-9595055D01*
X10151015Y-9595055D02*
X10160539Y-9614103D01*
X10160539Y-9614103D02*
X10170063Y-9652198D01*
X10170063Y-9652198D02*
X10170063Y-9680770D01*
X10170063Y-9680770D02*
X10160539Y-9718865D01*
X10160539Y-9718865D02*
X10151015Y-9737912D01*
X10151015Y-9737912D02*
X10131967Y-9756960D01*
X10131967Y-9756960D02*
X10103396Y-9766484D01*
X10103396Y-9766484D02*
X10055777Y-9766484D01*
X10255777Y-9766484D02*
X10255777Y-9633150D01*
X10255777Y-9671246D02*
X10265301Y-9652198D01*
X10265301Y-9652198D02*
X10274824Y-9642674D01*
X10274824Y-9642674D02*
X10293872Y-9633150D01*
X10293872Y-9633150D02*
X10312920Y-9633150D01*
X10379586Y-9766484D02*
X10379586Y-9633150D01*
X10379586Y-9566484D02*
X10370063Y-9576008D01*
X10370063Y-9576008D02*
X10379586Y-9585531D01*
X10379586Y-9585531D02*
X10389110Y-9576008D01*
X10389110Y-9576008D02*
X10379586Y-9566484D01*
X10379586Y-9566484D02*
X10379586Y-9585531D01*
X10503396Y-9766484D02*
X10484348Y-9756960D01*
X10484348Y-9756960D02*
X10474824Y-9737912D01*
X10474824Y-9737912D02*
X10474824Y-9566484D01*
X10608158Y-9766484D02*
X10589110Y-9756960D01*
X10589110Y-9756960D02*
X10579586Y-9737912D01*
X10579586Y-9737912D02*
X10579586Y-9566484D01*
X10836729Y-9766484D02*
X10836729Y-9566484D01*
X10836729Y-9566484D02*
X10903396Y-9709341D01*
X10903396Y-9709341D02*
X10970063Y-9566484D01*
X10970063Y-9566484D02*
X10970063Y-9766484D01*
X11151015Y-9766484D02*
X11151015Y-9661722D01*
X11151015Y-9661722D02*
X11141491Y-9642674D01*
X11141491Y-9642674D02*
X11122444Y-9633150D01*
X11122444Y-9633150D02*
X11084348Y-9633150D01*
X11084348Y-9633150D02*
X11065301Y-9642674D01*
X11151015Y-9756960D02*
X11131967Y-9766484D01*
X11131967Y-9766484D02*
X11084348Y-9766484D01*
X11084348Y-9766484D02*
X11065301Y-9756960D01*
X11065301Y-9756960D02*
X11055777Y-9737912D01*
X11055777Y-9737912D02*
X11055777Y-9718865D01*
X11055777Y-9718865D02*
X11065301Y-9699817D01*
X11065301Y-9699817D02*
X11084348Y-9690293D01*
X11084348Y-9690293D02*
X11131967Y-9690293D01*
X11131967Y-9690293D02*
X11151015Y-9680770D01*
X11246253Y-9633150D02*
X11246253Y-9833150D01*
X11246253Y-9642674D02*
X11265301Y-9633150D01*
X11265301Y-9633150D02*
X11303396Y-9633150D01*
X11303396Y-9633150D02*
X11322443Y-9642674D01*
X11322443Y-9642674D02*
X11331967Y-9652198D01*
X11331967Y-9652198D02*
X11341491Y-9671246D01*
X11341491Y-9671246D02*
X11341491Y-9728389D01*
X11341491Y-9728389D02*
X11331967Y-9747436D01*
X11331967Y-9747436D02*
X11322443Y-9756960D01*
X11322443Y-9756960D02*
X11303396Y-9766484D01*
X11303396Y-9766484D02*
X11265301Y-9766484D01*
X11265301Y-9766484D02*
X11246253Y-9756960D01*
X11427205Y-9747436D02*
X11436729Y-9756960D01*
X11436729Y-9756960D02*
X11427205Y-9766484D01*
X11427205Y-9766484D02*
X11417682Y-9756960D01*
X11417682Y-9756960D02*
X11427205Y-9747436D01*
X11427205Y-9747436D02*
X11427205Y-9766484D01*
X11427205Y-9642674D02*
X11436729Y-9652198D01*
X11436729Y-9652198D02*
X11427205Y-9661722D01*
X11427205Y-9661722D02*
X11417682Y-9652198D01*
X11417682Y-9652198D02*
X11427205Y-9642674D01*
X11427205Y-9642674D02*
X11427205Y-9661722D01*
M02*
