G04 #@! TF.GenerationSoftware,KiCad,Pcbnew,7.0.6*
G04 #@! TF.CreationDate,2023-08-11T00:36:40+02:00*
G04 #@! TF.ProjectId,ADS868_Test,41445338-3638-45f5-9465-73742e6b6963,rev?*
G04 #@! TF.SameCoordinates,Original*
G04 #@! TF.FileFunction,Legend,Top*
G04 #@! TF.FilePolarity,Positive*
%FSLAX46Y46*%
G04 Gerber Fmt 4.6, Leading zero omitted, Abs format (unit mm)*
G04 Created by KiCad (PCBNEW 7.0.6) date 2023-08-11 00:36:40*
%MOMM*%
%LPD*%
G01*
G04 APERTURE LIST*
%ADD10C,0.300000*%
%ADD11C,0.120000*%
G04 APERTURE END LIST*
D10*
X99883082Y-92872257D02*
X100597368Y-92872257D01*
X99740225Y-93300828D02*
X100240225Y-91800828D01*
X100240225Y-91800828D02*
X100740225Y-93300828D01*
X101240224Y-93300828D02*
X101240224Y-91800828D01*
X101240224Y-91800828D02*
X101597367Y-91800828D01*
X101597367Y-91800828D02*
X101811653Y-91872257D01*
X101811653Y-91872257D02*
X101954510Y-92015114D01*
X101954510Y-92015114D02*
X102025939Y-92157971D01*
X102025939Y-92157971D02*
X102097367Y-92443685D01*
X102097367Y-92443685D02*
X102097367Y-92657971D01*
X102097367Y-92657971D02*
X102025939Y-92943685D01*
X102025939Y-92943685D02*
X101954510Y-93086542D01*
X101954510Y-93086542D02*
X101811653Y-93229400D01*
X101811653Y-93229400D02*
X101597367Y-93300828D01*
X101597367Y-93300828D02*
X101240224Y-93300828D01*
X102668796Y-93229400D02*
X102883082Y-93300828D01*
X102883082Y-93300828D02*
X103240224Y-93300828D01*
X103240224Y-93300828D02*
X103383082Y-93229400D01*
X103383082Y-93229400D02*
X103454510Y-93157971D01*
X103454510Y-93157971D02*
X103525939Y-93015114D01*
X103525939Y-93015114D02*
X103525939Y-92872257D01*
X103525939Y-92872257D02*
X103454510Y-92729400D01*
X103454510Y-92729400D02*
X103383082Y-92657971D01*
X103383082Y-92657971D02*
X103240224Y-92586542D01*
X103240224Y-92586542D02*
X102954510Y-92515114D01*
X102954510Y-92515114D02*
X102811653Y-92443685D01*
X102811653Y-92443685D02*
X102740224Y-92372257D01*
X102740224Y-92372257D02*
X102668796Y-92229400D01*
X102668796Y-92229400D02*
X102668796Y-92086542D01*
X102668796Y-92086542D02*
X102740224Y-91943685D01*
X102740224Y-91943685D02*
X102811653Y-91872257D01*
X102811653Y-91872257D02*
X102954510Y-91800828D01*
X102954510Y-91800828D02*
X103311653Y-91800828D01*
X103311653Y-91800828D02*
X103525939Y-91872257D01*
X104383081Y-92443685D02*
X104240224Y-92372257D01*
X104240224Y-92372257D02*
X104168795Y-92300828D01*
X104168795Y-92300828D02*
X104097367Y-92157971D01*
X104097367Y-92157971D02*
X104097367Y-92086542D01*
X104097367Y-92086542D02*
X104168795Y-91943685D01*
X104168795Y-91943685D02*
X104240224Y-91872257D01*
X104240224Y-91872257D02*
X104383081Y-91800828D01*
X104383081Y-91800828D02*
X104668795Y-91800828D01*
X104668795Y-91800828D02*
X104811653Y-91872257D01*
X104811653Y-91872257D02*
X104883081Y-91943685D01*
X104883081Y-91943685D02*
X104954510Y-92086542D01*
X104954510Y-92086542D02*
X104954510Y-92157971D01*
X104954510Y-92157971D02*
X104883081Y-92300828D01*
X104883081Y-92300828D02*
X104811653Y-92372257D01*
X104811653Y-92372257D02*
X104668795Y-92443685D01*
X104668795Y-92443685D02*
X104383081Y-92443685D01*
X104383081Y-92443685D02*
X104240224Y-92515114D01*
X104240224Y-92515114D02*
X104168795Y-92586542D01*
X104168795Y-92586542D02*
X104097367Y-92729400D01*
X104097367Y-92729400D02*
X104097367Y-93015114D01*
X104097367Y-93015114D02*
X104168795Y-93157971D01*
X104168795Y-93157971D02*
X104240224Y-93229400D01*
X104240224Y-93229400D02*
X104383081Y-93300828D01*
X104383081Y-93300828D02*
X104668795Y-93300828D01*
X104668795Y-93300828D02*
X104811653Y-93229400D01*
X104811653Y-93229400D02*
X104883081Y-93157971D01*
X104883081Y-93157971D02*
X104954510Y-93015114D01*
X104954510Y-93015114D02*
X104954510Y-92729400D01*
X104954510Y-92729400D02*
X104883081Y-92586542D01*
X104883081Y-92586542D02*
X104811653Y-92515114D01*
X104811653Y-92515114D02*
X104668795Y-92443685D01*
X106240224Y-91800828D02*
X105954509Y-91800828D01*
X105954509Y-91800828D02*
X105811652Y-91872257D01*
X105811652Y-91872257D02*
X105740224Y-91943685D01*
X105740224Y-91943685D02*
X105597366Y-92157971D01*
X105597366Y-92157971D02*
X105525938Y-92443685D01*
X105525938Y-92443685D02*
X105525938Y-93015114D01*
X105525938Y-93015114D02*
X105597366Y-93157971D01*
X105597366Y-93157971D02*
X105668795Y-93229400D01*
X105668795Y-93229400D02*
X105811652Y-93300828D01*
X105811652Y-93300828D02*
X106097366Y-93300828D01*
X106097366Y-93300828D02*
X106240224Y-93229400D01*
X106240224Y-93229400D02*
X106311652Y-93157971D01*
X106311652Y-93157971D02*
X106383081Y-93015114D01*
X106383081Y-93015114D02*
X106383081Y-92657971D01*
X106383081Y-92657971D02*
X106311652Y-92515114D01*
X106311652Y-92515114D02*
X106240224Y-92443685D01*
X106240224Y-92443685D02*
X106097366Y-92372257D01*
X106097366Y-92372257D02*
X105811652Y-92372257D01*
X105811652Y-92372257D02*
X105668795Y-92443685D01*
X105668795Y-92443685D02*
X105597366Y-92515114D01*
X105597366Y-92515114D02*
X105525938Y-92657971D01*
X107240223Y-92443685D02*
X107097366Y-92372257D01*
X107097366Y-92372257D02*
X107025937Y-92300828D01*
X107025937Y-92300828D02*
X106954509Y-92157971D01*
X106954509Y-92157971D02*
X106954509Y-92086542D01*
X106954509Y-92086542D02*
X107025937Y-91943685D01*
X107025937Y-91943685D02*
X107097366Y-91872257D01*
X107097366Y-91872257D02*
X107240223Y-91800828D01*
X107240223Y-91800828D02*
X107525937Y-91800828D01*
X107525937Y-91800828D02*
X107668795Y-91872257D01*
X107668795Y-91872257D02*
X107740223Y-91943685D01*
X107740223Y-91943685D02*
X107811652Y-92086542D01*
X107811652Y-92086542D02*
X107811652Y-92157971D01*
X107811652Y-92157971D02*
X107740223Y-92300828D01*
X107740223Y-92300828D02*
X107668795Y-92372257D01*
X107668795Y-92372257D02*
X107525937Y-92443685D01*
X107525937Y-92443685D02*
X107240223Y-92443685D01*
X107240223Y-92443685D02*
X107097366Y-92515114D01*
X107097366Y-92515114D02*
X107025937Y-92586542D01*
X107025937Y-92586542D02*
X106954509Y-92729400D01*
X106954509Y-92729400D02*
X106954509Y-93015114D01*
X106954509Y-93015114D02*
X107025937Y-93157971D01*
X107025937Y-93157971D02*
X107097366Y-93229400D01*
X107097366Y-93229400D02*
X107240223Y-93300828D01*
X107240223Y-93300828D02*
X107525937Y-93300828D01*
X107525937Y-93300828D02*
X107668795Y-93229400D01*
X107668795Y-93229400D02*
X107740223Y-93157971D01*
X107740223Y-93157971D02*
X107811652Y-93015114D01*
X107811652Y-93015114D02*
X107811652Y-92729400D01*
X107811652Y-92729400D02*
X107740223Y-92586542D01*
X107740223Y-92586542D02*
X107668795Y-92515114D01*
X107668795Y-92515114D02*
X107525937Y-92443685D01*
X109240223Y-93300828D02*
X108383080Y-93300828D01*
X108811651Y-93300828D02*
X108811651Y-91800828D01*
X108811651Y-91800828D02*
X108668794Y-92015114D01*
X108668794Y-92015114D02*
X108525937Y-92157971D01*
X108525937Y-92157971D02*
X108383080Y-92229400D01*
X109525937Y-93443685D02*
X110668794Y-93443685D01*
X110811651Y-91800828D02*
X111668794Y-91800828D01*
X111240222Y-93300828D02*
X111240222Y-91800828D01*
X112740222Y-93229400D02*
X112597365Y-93300828D01*
X112597365Y-93300828D02*
X112311651Y-93300828D01*
X112311651Y-93300828D02*
X112168793Y-93229400D01*
X112168793Y-93229400D02*
X112097365Y-93086542D01*
X112097365Y-93086542D02*
X112097365Y-92515114D01*
X112097365Y-92515114D02*
X112168793Y-92372257D01*
X112168793Y-92372257D02*
X112311651Y-92300828D01*
X112311651Y-92300828D02*
X112597365Y-92300828D01*
X112597365Y-92300828D02*
X112740222Y-92372257D01*
X112740222Y-92372257D02*
X112811651Y-92515114D01*
X112811651Y-92515114D02*
X112811651Y-92657971D01*
X112811651Y-92657971D02*
X112097365Y-92800828D01*
X113383079Y-93229400D02*
X113525936Y-93300828D01*
X113525936Y-93300828D02*
X113811650Y-93300828D01*
X113811650Y-93300828D02*
X113954507Y-93229400D01*
X113954507Y-93229400D02*
X114025936Y-93086542D01*
X114025936Y-93086542D02*
X114025936Y-93015114D01*
X114025936Y-93015114D02*
X113954507Y-92872257D01*
X113954507Y-92872257D02*
X113811650Y-92800828D01*
X113811650Y-92800828D02*
X113597365Y-92800828D01*
X113597365Y-92800828D02*
X113454507Y-92729400D01*
X113454507Y-92729400D02*
X113383079Y-92586542D01*
X113383079Y-92586542D02*
X113383079Y-92515114D01*
X113383079Y-92515114D02*
X113454507Y-92372257D01*
X113454507Y-92372257D02*
X113597365Y-92300828D01*
X113597365Y-92300828D02*
X113811650Y-92300828D01*
X113811650Y-92300828D02*
X113954507Y-92372257D01*
X114454508Y-92300828D02*
X115025936Y-92300828D01*
X114668793Y-91800828D02*
X114668793Y-93086542D01*
X114668793Y-93086542D02*
X114740222Y-93229400D01*
X114740222Y-93229400D02*
X114883079Y-93300828D01*
X114883079Y-93300828D02*
X115025936Y-93300828D01*
D11*
X132297571Y-51325331D02*
X132011857Y-51325331D01*
X132011857Y-51325331D02*
X132011857Y-50725331D01*
X132811856Y-51325331D02*
X132468999Y-51325331D01*
X132640428Y-51325331D02*
X132640428Y-50725331D01*
X132640428Y-50725331D02*
X132583285Y-50811045D01*
X132583285Y-50811045D02*
X132526142Y-50868188D01*
X132526142Y-50868188D02*
X132468999Y-50896760D01*
X133183285Y-50725331D02*
X133240428Y-50725331D01*
X133240428Y-50725331D02*
X133297571Y-50753902D01*
X133297571Y-50753902D02*
X133326143Y-50782474D01*
X133326143Y-50782474D02*
X133354714Y-50839617D01*
X133354714Y-50839617D02*
X133383285Y-50953902D01*
X133383285Y-50953902D02*
X133383285Y-51096760D01*
X133383285Y-51096760D02*
X133354714Y-51211045D01*
X133354714Y-51211045D02*
X133326143Y-51268188D01*
X133326143Y-51268188D02*
X133297571Y-51296760D01*
X133297571Y-51296760D02*
X133240428Y-51325331D01*
X133240428Y-51325331D02*
X133183285Y-51325331D01*
X133183285Y-51325331D02*
X133126143Y-51296760D01*
X133126143Y-51296760D02*
X133097571Y-51268188D01*
X133097571Y-51268188D02*
X133069000Y-51211045D01*
X133069000Y-51211045D02*
X133040428Y-51096760D01*
X133040428Y-51096760D02*
X133040428Y-50953902D01*
X133040428Y-50953902D02*
X133069000Y-50839617D01*
X133069000Y-50839617D02*
X133097571Y-50782474D01*
X133097571Y-50782474D02*
X133126143Y-50753902D01*
X133126143Y-50753902D02*
X133183285Y-50725331D01*
X133954714Y-51325331D02*
X133611857Y-51325331D01*
X133783286Y-51325331D02*
X133783286Y-50725331D01*
X133783286Y-50725331D02*
X133726143Y-50811045D01*
X133726143Y-50811045D02*
X133669000Y-50868188D01*
X133669000Y-50868188D02*
X133611857Y-50896760D01*
X122899571Y-69048188D02*
X122870999Y-69076760D01*
X122870999Y-69076760D02*
X122785285Y-69105331D01*
X122785285Y-69105331D02*
X122728142Y-69105331D01*
X122728142Y-69105331D02*
X122642428Y-69076760D01*
X122642428Y-69076760D02*
X122585285Y-69019617D01*
X122585285Y-69019617D02*
X122556714Y-68962474D01*
X122556714Y-68962474D02*
X122528142Y-68848188D01*
X122528142Y-68848188D02*
X122528142Y-68762474D01*
X122528142Y-68762474D02*
X122556714Y-68648188D01*
X122556714Y-68648188D02*
X122585285Y-68591045D01*
X122585285Y-68591045D02*
X122642428Y-68533902D01*
X122642428Y-68533902D02*
X122728142Y-68505331D01*
X122728142Y-68505331D02*
X122785285Y-68505331D01*
X122785285Y-68505331D02*
X122870999Y-68533902D01*
X122870999Y-68533902D02*
X122899571Y-68562474D01*
X123470999Y-69105331D02*
X123128142Y-69105331D01*
X123299571Y-69105331D02*
X123299571Y-68505331D01*
X123299571Y-68505331D02*
X123242428Y-68591045D01*
X123242428Y-68591045D02*
X123185285Y-68648188D01*
X123185285Y-68648188D02*
X123128142Y-68676760D01*
X123842428Y-68505331D02*
X123899571Y-68505331D01*
X123899571Y-68505331D02*
X123956714Y-68533902D01*
X123956714Y-68533902D02*
X123985286Y-68562474D01*
X123985286Y-68562474D02*
X124013857Y-68619617D01*
X124013857Y-68619617D02*
X124042428Y-68733902D01*
X124042428Y-68733902D02*
X124042428Y-68876760D01*
X124042428Y-68876760D02*
X124013857Y-68991045D01*
X124013857Y-68991045D02*
X123985286Y-69048188D01*
X123985286Y-69048188D02*
X123956714Y-69076760D01*
X123956714Y-69076760D02*
X123899571Y-69105331D01*
X123899571Y-69105331D02*
X123842428Y-69105331D01*
X123842428Y-69105331D02*
X123785286Y-69076760D01*
X123785286Y-69076760D02*
X123756714Y-69048188D01*
X123756714Y-69048188D02*
X123728143Y-68991045D01*
X123728143Y-68991045D02*
X123699571Y-68876760D01*
X123699571Y-68876760D02*
X123699571Y-68733902D01*
X123699571Y-68733902D02*
X123728143Y-68619617D01*
X123728143Y-68619617D02*
X123756714Y-68562474D01*
X123756714Y-68562474D02*
X123785286Y-68533902D01*
X123785286Y-68533902D02*
X123842428Y-68505331D01*
X124585286Y-68505331D02*
X124299572Y-68505331D01*
X124299572Y-68505331D02*
X124271000Y-68791045D01*
X124271000Y-68791045D02*
X124299572Y-68762474D01*
X124299572Y-68762474D02*
X124356715Y-68733902D01*
X124356715Y-68733902D02*
X124499572Y-68733902D01*
X124499572Y-68733902D02*
X124556715Y-68762474D01*
X124556715Y-68762474D02*
X124585286Y-68791045D01*
X124585286Y-68791045D02*
X124613857Y-68848188D01*
X124613857Y-68848188D02*
X124613857Y-68991045D01*
X124613857Y-68991045D02*
X124585286Y-69048188D01*
X124585286Y-69048188D02*
X124556715Y-69076760D01*
X124556715Y-69076760D02*
X124499572Y-69105331D01*
X124499572Y-69105331D02*
X124356715Y-69105331D01*
X124356715Y-69105331D02*
X124299572Y-69076760D01*
X124299572Y-69076760D02*
X124271000Y-69048188D01*
X142484570Y-52503331D02*
X142484570Y-52931902D01*
X142484570Y-52931902D02*
X142455999Y-53017617D01*
X142455999Y-53017617D02*
X142398856Y-53074760D01*
X142398856Y-53074760D02*
X142313142Y-53103331D01*
X142313142Y-53103331D02*
X142255999Y-53103331D01*
X143084570Y-53103331D02*
X142741713Y-53103331D01*
X142913142Y-53103331D02*
X142913142Y-52503331D01*
X142913142Y-52503331D02*
X142855999Y-52589045D01*
X142855999Y-52589045D02*
X142798856Y-52646188D01*
X142798856Y-52646188D02*
X142741713Y-52674760D01*
X143455999Y-52503331D02*
X143513142Y-52503331D01*
X143513142Y-52503331D02*
X143570285Y-52531902D01*
X143570285Y-52531902D02*
X143598857Y-52560474D01*
X143598857Y-52560474D02*
X143627428Y-52617617D01*
X143627428Y-52617617D02*
X143655999Y-52731902D01*
X143655999Y-52731902D02*
X143655999Y-52874760D01*
X143655999Y-52874760D02*
X143627428Y-52989045D01*
X143627428Y-52989045D02*
X143598857Y-53046188D01*
X143598857Y-53046188D02*
X143570285Y-53074760D01*
X143570285Y-53074760D02*
X143513142Y-53103331D01*
X143513142Y-53103331D02*
X143455999Y-53103331D01*
X143455999Y-53103331D02*
X143398857Y-53074760D01*
X143398857Y-53074760D02*
X143370285Y-53046188D01*
X143370285Y-53046188D02*
X143341714Y-52989045D01*
X143341714Y-52989045D02*
X143313142Y-52874760D01*
X143313142Y-52874760D02*
X143313142Y-52731902D01*
X143313142Y-52731902D02*
X143341714Y-52617617D01*
X143341714Y-52617617D02*
X143370285Y-52560474D01*
X143370285Y-52560474D02*
X143398857Y-52531902D01*
X143398857Y-52531902D02*
X143455999Y-52503331D01*
X144198857Y-52503331D02*
X143913143Y-52503331D01*
X143913143Y-52503331D02*
X143884571Y-52789045D01*
X143884571Y-52789045D02*
X143913143Y-52760474D01*
X143913143Y-52760474D02*
X143970286Y-52731902D01*
X143970286Y-52731902D02*
X144113143Y-52731902D01*
X144113143Y-52731902D02*
X144170286Y-52760474D01*
X144170286Y-52760474D02*
X144198857Y-52789045D01*
X144198857Y-52789045D02*
X144227428Y-52846188D01*
X144227428Y-52846188D02*
X144227428Y-52989045D01*
X144227428Y-52989045D02*
X144198857Y-53046188D01*
X144198857Y-53046188D02*
X144170286Y-53074760D01*
X144170286Y-53074760D02*
X144113143Y-53103331D01*
X144113143Y-53103331D02*
X143970286Y-53103331D01*
X143970286Y-53103331D02*
X143913143Y-53074760D01*
X143913143Y-53074760D02*
X143884571Y-53046188D01*
X127976188Y-57186428D02*
X128004760Y-57215000D01*
X128004760Y-57215000D02*
X128033331Y-57300714D01*
X128033331Y-57300714D02*
X128033331Y-57357857D01*
X128033331Y-57357857D02*
X128004760Y-57443571D01*
X128004760Y-57443571D02*
X127947617Y-57500714D01*
X127947617Y-57500714D02*
X127890474Y-57529285D01*
X127890474Y-57529285D02*
X127776188Y-57557857D01*
X127776188Y-57557857D02*
X127690474Y-57557857D01*
X127690474Y-57557857D02*
X127576188Y-57529285D01*
X127576188Y-57529285D02*
X127519045Y-57500714D01*
X127519045Y-57500714D02*
X127461902Y-57443571D01*
X127461902Y-57443571D02*
X127433331Y-57357857D01*
X127433331Y-57357857D02*
X127433331Y-57300714D01*
X127433331Y-57300714D02*
X127461902Y-57215000D01*
X127461902Y-57215000D02*
X127490474Y-57186428D01*
X128033331Y-56615000D02*
X128033331Y-56957857D01*
X128033331Y-56786428D02*
X127433331Y-56786428D01*
X127433331Y-56786428D02*
X127519045Y-56843571D01*
X127519045Y-56843571D02*
X127576188Y-56900714D01*
X127576188Y-56900714D02*
X127604760Y-56957857D01*
X128033331Y-56043571D02*
X128033331Y-56386428D01*
X128033331Y-56214999D02*
X127433331Y-56214999D01*
X127433331Y-56214999D02*
X127519045Y-56272142D01*
X127519045Y-56272142D02*
X127576188Y-56329285D01*
X127576188Y-56329285D02*
X127604760Y-56386428D01*
X127433331Y-55672142D02*
X127433331Y-55614999D01*
X127433331Y-55614999D02*
X127461902Y-55557856D01*
X127461902Y-55557856D02*
X127490474Y-55529285D01*
X127490474Y-55529285D02*
X127547617Y-55500713D01*
X127547617Y-55500713D02*
X127661902Y-55472142D01*
X127661902Y-55472142D02*
X127804760Y-55472142D01*
X127804760Y-55472142D02*
X127919045Y-55500713D01*
X127919045Y-55500713D02*
X127976188Y-55529285D01*
X127976188Y-55529285D02*
X128004760Y-55557856D01*
X128004760Y-55557856D02*
X128033331Y-55614999D01*
X128033331Y-55614999D02*
X128033331Y-55672142D01*
X128033331Y-55672142D02*
X128004760Y-55729285D01*
X128004760Y-55729285D02*
X127976188Y-55757856D01*
X127976188Y-55757856D02*
X127919045Y-55786427D01*
X127919045Y-55786427D02*
X127804760Y-55814999D01*
X127804760Y-55814999D02*
X127661902Y-55814999D01*
X127661902Y-55814999D02*
X127547617Y-55786427D01*
X127547617Y-55786427D02*
X127490474Y-55757856D01*
X127490474Y-55757856D02*
X127461902Y-55729285D01*
X127461902Y-55729285D02*
X127433331Y-55672142D01*
X114133188Y-85761428D02*
X114161760Y-85790000D01*
X114161760Y-85790000D02*
X114190331Y-85875714D01*
X114190331Y-85875714D02*
X114190331Y-85932857D01*
X114190331Y-85932857D02*
X114161760Y-86018571D01*
X114161760Y-86018571D02*
X114104617Y-86075714D01*
X114104617Y-86075714D02*
X114047474Y-86104285D01*
X114047474Y-86104285D02*
X113933188Y-86132857D01*
X113933188Y-86132857D02*
X113847474Y-86132857D01*
X113847474Y-86132857D02*
X113733188Y-86104285D01*
X113733188Y-86104285D02*
X113676045Y-86075714D01*
X113676045Y-86075714D02*
X113618902Y-86018571D01*
X113618902Y-86018571D02*
X113590331Y-85932857D01*
X113590331Y-85932857D02*
X113590331Y-85875714D01*
X113590331Y-85875714D02*
X113618902Y-85790000D01*
X113618902Y-85790000D02*
X113647474Y-85761428D01*
X114190331Y-85190000D02*
X114190331Y-85532857D01*
X114190331Y-85361428D02*
X113590331Y-85361428D01*
X113590331Y-85361428D02*
X113676045Y-85418571D01*
X113676045Y-85418571D02*
X113733188Y-85475714D01*
X113733188Y-85475714D02*
X113761760Y-85532857D01*
X113590331Y-84818571D02*
X113590331Y-84761428D01*
X113590331Y-84761428D02*
X113618902Y-84704285D01*
X113618902Y-84704285D02*
X113647474Y-84675714D01*
X113647474Y-84675714D02*
X113704617Y-84647142D01*
X113704617Y-84647142D02*
X113818902Y-84618571D01*
X113818902Y-84618571D02*
X113961760Y-84618571D01*
X113961760Y-84618571D02*
X114076045Y-84647142D01*
X114076045Y-84647142D02*
X114133188Y-84675714D01*
X114133188Y-84675714D02*
X114161760Y-84704285D01*
X114161760Y-84704285D02*
X114190331Y-84761428D01*
X114190331Y-84761428D02*
X114190331Y-84818571D01*
X114190331Y-84818571D02*
X114161760Y-84875714D01*
X114161760Y-84875714D02*
X114133188Y-84904285D01*
X114133188Y-84904285D02*
X114076045Y-84932856D01*
X114076045Y-84932856D02*
X113961760Y-84961428D01*
X113961760Y-84961428D02*
X113818902Y-84961428D01*
X113818902Y-84961428D02*
X113704617Y-84932856D01*
X113704617Y-84932856D02*
X113647474Y-84904285D01*
X113647474Y-84904285D02*
X113618902Y-84875714D01*
X113618902Y-84875714D02*
X113590331Y-84818571D01*
X113647474Y-84389999D02*
X113618902Y-84361427D01*
X113618902Y-84361427D02*
X113590331Y-84304285D01*
X113590331Y-84304285D02*
X113590331Y-84161427D01*
X113590331Y-84161427D02*
X113618902Y-84104285D01*
X113618902Y-84104285D02*
X113647474Y-84075713D01*
X113647474Y-84075713D02*
X113704617Y-84047142D01*
X113704617Y-84047142D02*
X113761760Y-84047142D01*
X113761760Y-84047142D02*
X113847474Y-84075713D01*
X113847474Y-84075713D02*
X114190331Y-84418570D01*
X114190331Y-84418570D02*
X114190331Y-84047142D01*
X103368570Y-55761331D02*
X103368570Y-56189902D01*
X103368570Y-56189902D02*
X103339999Y-56275617D01*
X103339999Y-56275617D02*
X103282856Y-56332760D01*
X103282856Y-56332760D02*
X103197142Y-56361331D01*
X103197142Y-56361331D02*
X103139999Y-56361331D01*
X103968570Y-56361331D02*
X103625713Y-56361331D01*
X103797142Y-56361331D02*
X103797142Y-55761331D01*
X103797142Y-55761331D02*
X103739999Y-55847045D01*
X103739999Y-55847045D02*
X103682856Y-55904188D01*
X103682856Y-55904188D02*
X103625713Y-55932760D01*
X104339999Y-55761331D02*
X104397142Y-55761331D01*
X104397142Y-55761331D02*
X104454285Y-55789902D01*
X104454285Y-55789902D02*
X104482857Y-55818474D01*
X104482857Y-55818474D02*
X104511428Y-55875617D01*
X104511428Y-55875617D02*
X104539999Y-55989902D01*
X104539999Y-55989902D02*
X104539999Y-56132760D01*
X104539999Y-56132760D02*
X104511428Y-56247045D01*
X104511428Y-56247045D02*
X104482857Y-56304188D01*
X104482857Y-56304188D02*
X104454285Y-56332760D01*
X104454285Y-56332760D02*
X104397142Y-56361331D01*
X104397142Y-56361331D02*
X104339999Y-56361331D01*
X104339999Y-56361331D02*
X104282857Y-56332760D01*
X104282857Y-56332760D02*
X104254285Y-56304188D01*
X104254285Y-56304188D02*
X104225714Y-56247045D01*
X104225714Y-56247045D02*
X104197142Y-56132760D01*
X104197142Y-56132760D02*
X104197142Y-55989902D01*
X104197142Y-55989902D02*
X104225714Y-55875617D01*
X104225714Y-55875617D02*
X104254285Y-55818474D01*
X104254285Y-55818474D02*
X104282857Y-55789902D01*
X104282857Y-55789902D02*
X104339999Y-55761331D01*
X105111428Y-56361331D02*
X104768571Y-56361331D01*
X104940000Y-56361331D02*
X104940000Y-55761331D01*
X104940000Y-55761331D02*
X104882857Y-55847045D01*
X104882857Y-55847045D02*
X104825714Y-55904188D01*
X104825714Y-55904188D02*
X104768571Y-55932760D01*
X128795331Y-86396428D02*
X128509617Y-86596428D01*
X128795331Y-86739285D02*
X128195331Y-86739285D01*
X128195331Y-86739285D02*
X128195331Y-86510714D01*
X128195331Y-86510714D02*
X128223902Y-86453571D01*
X128223902Y-86453571D02*
X128252474Y-86425000D01*
X128252474Y-86425000D02*
X128309617Y-86396428D01*
X128309617Y-86396428D02*
X128395331Y-86396428D01*
X128395331Y-86396428D02*
X128452474Y-86425000D01*
X128452474Y-86425000D02*
X128481045Y-86453571D01*
X128481045Y-86453571D02*
X128509617Y-86510714D01*
X128509617Y-86510714D02*
X128509617Y-86739285D01*
X128795331Y-85825000D02*
X128795331Y-86167857D01*
X128795331Y-85996428D02*
X128195331Y-85996428D01*
X128195331Y-85996428D02*
X128281045Y-86053571D01*
X128281045Y-86053571D02*
X128338188Y-86110714D01*
X128338188Y-86110714D02*
X128366760Y-86167857D01*
X128195331Y-85453571D02*
X128195331Y-85396428D01*
X128195331Y-85396428D02*
X128223902Y-85339285D01*
X128223902Y-85339285D02*
X128252474Y-85310714D01*
X128252474Y-85310714D02*
X128309617Y-85282142D01*
X128309617Y-85282142D02*
X128423902Y-85253571D01*
X128423902Y-85253571D02*
X128566760Y-85253571D01*
X128566760Y-85253571D02*
X128681045Y-85282142D01*
X128681045Y-85282142D02*
X128738188Y-85310714D01*
X128738188Y-85310714D02*
X128766760Y-85339285D01*
X128766760Y-85339285D02*
X128795331Y-85396428D01*
X128795331Y-85396428D02*
X128795331Y-85453571D01*
X128795331Y-85453571D02*
X128766760Y-85510714D01*
X128766760Y-85510714D02*
X128738188Y-85539285D01*
X128738188Y-85539285D02*
X128681045Y-85567856D01*
X128681045Y-85567856D02*
X128566760Y-85596428D01*
X128566760Y-85596428D02*
X128423902Y-85596428D01*
X128423902Y-85596428D02*
X128309617Y-85567856D01*
X128309617Y-85567856D02*
X128252474Y-85539285D01*
X128252474Y-85539285D02*
X128223902Y-85510714D01*
X128223902Y-85510714D02*
X128195331Y-85453571D01*
X128395331Y-84739285D02*
X128795331Y-84739285D01*
X128166760Y-84882142D02*
X128595331Y-85024999D01*
X128595331Y-85024999D02*
X128595331Y-84653570D01*
X103368570Y-86241331D02*
X103368570Y-86669902D01*
X103368570Y-86669902D02*
X103339999Y-86755617D01*
X103339999Y-86755617D02*
X103282856Y-86812760D01*
X103282856Y-86812760D02*
X103197142Y-86841331D01*
X103197142Y-86841331D02*
X103139999Y-86841331D01*
X103968570Y-86841331D02*
X103625713Y-86841331D01*
X103797142Y-86841331D02*
X103797142Y-86241331D01*
X103797142Y-86241331D02*
X103739999Y-86327045D01*
X103739999Y-86327045D02*
X103682856Y-86384188D01*
X103682856Y-86384188D02*
X103625713Y-86412760D01*
X104339999Y-86241331D02*
X104397142Y-86241331D01*
X104397142Y-86241331D02*
X104454285Y-86269902D01*
X104454285Y-86269902D02*
X104482857Y-86298474D01*
X104482857Y-86298474D02*
X104511428Y-86355617D01*
X104511428Y-86355617D02*
X104539999Y-86469902D01*
X104539999Y-86469902D02*
X104539999Y-86612760D01*
X104539999Y-86612760D02*
X104511428Y-86727045D01*
X104511428Y-86727045D02*
X104482857Y-86784188D01*
X104482857Y-86784188D02*
X104454285Y-86812760D01*
X104454285Y-86812760D02*
X104397142Y-86841331D01*
X104397142Y-86841331D02*
X104339999Y-86841331D01*
X104339999Y-86841331D02*
X104282857Y-86812760D01*
X104282857Y-86812760D02*
X104254285Y-86784188D01*
X104254285Y-86784188D02*
X104225714Y-86727045D01*
X104225714Y-86727045D02*
X104197142Y-86612760D01*
X104197142Y-86612760D02*
X104197142Y-86469902D01*
X104197142Y-86469902D02*
X104225714Y-86355617D01*
X104225714Y-86355617D02*
X104254285Y-86298474D01*
X104254285Y-86298474D02*
X104282857Y-86269902D01*
X104282857Y-86269902D02*
X104339999Y-86241331D01*
X105054286Y-86441331D02*
X105054286Y-86841331D01*
X104911428Y-86212760D02*
X104768571Y-86641331D01*
X104768571Y-86641331D02*
X105140000Y-86641331D01*
X114133188Y-81189428D02*
X114161760Y-81218000D01*
X114161760Y-81218000D02*
X114190331Y-81303714D01*
X114190331Y-81303714D02*
X114190331Y-81360857D01*
X114190331Y-81360857D02*
X114161760Y-81446571D01*
X114161760Y-81446571D02*
X114104617Y-81503714D01*
X114104617Y-81503714D02*
X114047474Y-81532285D01*
X114047474Y-81532285D02*
X113933188Y-81560857D01*
X113933188Y-81560857D02*
X113847474Y-81560857D01*
X113847474Y-81560857D02*
X113733188Y-81532285D01*
X113733188Y-81532285D02*
X113676045Y-81503714D01*
X113676045Y-81503714D02*
X113618902Y-81446571D01*
X113618902Y-81446571D02*
X113590331Y-81360857D01*
X113590331Y-81360857D02*
X113590331Y-81303714D01*
X113590331Y-81303714D02*
X113618902Y-81218000D01*
X113618902Y-81218000D02*
X113647474Y-81189428D01*
X114190331Y-80618000D02*
X114190331Y-80960857D01*
X114190331Y-80789428D02*
X113590331Y-80789428D01*
X113590331Y-80789428D02*
X113676045Y-80846571D01*
X113676045Y-80846571D02*
X113733188Y-80903714D01*
X113733188Y-80903714D02*
X113761760Y-80960857D01*
X113590331Y-80246571D02*
X113590331Y-80189428D01*
X113590331Y-80189428D02*
X113618902Y-80132285D01*
X113618902Y-80132285D02*
X113647474Y-80103714D01*
X113647474Y-80103714D02*
X113704617Y-80075142D01*
X113704617Y-80075142D02*
X113818902Y-80046571D01*
X113818902Y-80046571D02*
X113961760Y-80046571D01*
X113961760Y-80046571D02*
X114076045Y-80075142D01*
X114076045Y-80075142D02*
X114133188Y-80103714D01*
X114133188Y-80103714D02*
X114161760Y-80132285D01*
X114161760Y-80132285D02*
X114190331Y-80189428D01*
X114190331Y-80189428D02*
X114190331Y-80246571D01*
X114190331Y-80246571D02*
X114161760Y-80303714D01*
X114161760Y-80303714D02*
X114133188Y-80332285D01*
X114133188Y-80332285D02*
X114076045Y-80360856D01*
X114076045Y-80360856D02*
X113961760Y-80389428D01*
X113961760Y-80389428D02*
X113818902Y-80389428D01*
X113818902Y-80389428D02*
X113704617Y-80360856D01*
X113704617Y-80360856D02*
X113647474Y-80332285D01*
X113647474Y-80332285D02*
X113618902Y-80303714D01*
X113618902Y-80303714D02*
X113590331Y-80246571D01*
X113790331Y-79532285D02*
X114190331Y-79532285D01*
X113561760Y-79675142D02*
X113990331Y-79817999D01*
X113990331Y-79817999D02*
X113990331Y-79446570D01*
X128828331Y-64552428D02*
X128542617Y-64752428D01*
X128828331Y-64895285D02*
X128228331Y-64895285D01*
X128228331Y-64895285D02*
X128228331Y-64666714D01*
X128228331Y-64666714D02*
X128256902Y-64609571D01*
X128256902Y-64609571D02*
X128285474Y-64581000D01*
X128285474Y-64581000D02*
X128342617Y-64552428D01*
X128342617Y-64552428D02*
X128428331Y-64552428D01*
X128428331Y-64552428D02*
X128485474Y-64581000D01*
X128485474Y-64581000D02*
X128514045Y-64609571D01*
X128514045Y-64609571D02*
X128542617Y-64666714D01*
X128542617Y-64666714D02*
X128542617Y-64895285D01*
X128828331Y-63981000D02*
X128828331Y-64323857D01*
X128828331Y-64152428D02*
X128228331Y-64152428D01*
X128228331Y-64152428D02*
X128314045Y-64209571D01*
X128314045Y-64209571D02*
X128371188Y-64266714D01*
X128371188Y-64266714D02*
X128399760Y-64323857D01*
X128228331Y-63609571D02*
X128228331Y-63552428D01*
X128228331Y-63552428D02*
X128256902Y-63495285D01*
X128256902Y-63495285D02*
X128285474Y-63466714D01*
X128285474Y-63466714D02*
X128342617Y-63438142D01*
X128342617Y-63438142D02*
X128456902Y-63409571D01*
X128456902Y-63409571D02*
X128599760Y-63409571D01*
X128599760Y-63409571D02*
X128714045Y-63438142D01*
X128714045Y-63438142D02*
X128771188Y-63466714D01*
X128771188Y-63466714D02*
X128799760Y-63495285D01*
X128799760Y-63495285D02*
X128828331Y-63552428D01*
X128828331Y-63552428D02*
X128828331Y-63609571D01*
X128828331Y-63609571D02*
X128799760Y-63666714D01*
X128799760Y-63666714D02*
X128771188Y-63695285D01*
X128771188Y-63695285D02*
X128714045Y-63723856D01*
X128714045Y-63723856D02*
X128599760Y-63752428D01*
X128599760Y-63752428D02*
X128456902Y-63752428D01*
X128456902Y-63752428D02*
X128342617Y-63723856D01*
X128342617Y-63723856D02*
X128285474Y-63695285D01*
X128285474Y-63695285D02*
X128256902Y-63666714D01*
X128256902Y-63666714D02*
X128228331Y-63609571D01*
X128228331Y-62866713D02*
X128228331Y-63152427D01*
X128228331Y-63152427D02*
X128514045Y-63180999D01*
X128514045Y-63180999D02*
X128485474Y-63152427D01*
X128485474Y-63152427D02*
X128456902Y-63095285D01*
X128456902Y-63095285D02*
X128456902Y-62952427D01*
X128456902Y-62952427D02*
X128485474Y-62895285D01*
X128485474Y-62895285D02*
X128514045Y-62866713D01*
X128514045Y-62866713D02*
X128571188Y-62838142D01*
X128571188Y-62838142D02*
X128714045Y-62838142D01*
X128714045Y-62838142D02*
X128771188Y-62866713D01*
X128771188Y-62866713D02*
X128799760Y-62895285D01*
X128799760Y-62895285D02*
X128828331Y-62952427D01*
X128828331Y-62952427D02*
X128828331Y-63095285D01*
X128828331Y-63095285D02*
X128799760Y-63152427D01*
X128799760Y-63152427D02*
X128771188Y-63180999D01*
X113879188Y-64171428D02*
X113907760Y-64200000D01*
X113907760Y-64200000D02*
X113936331Y-64285714D01*
X113936331Y-64285714D02*
X113936331Y-64342857D01*
X113936331Y-64342857D02*
X113907760Y-64428571D01*
X113907760Y-64428571D02*
X113850617Y-64485714D01*
X113850617Y-64485714D02*
X113793474Y-64514285D01*
X113793474Y-64514285D02*
X113679188Y-64542857D01*
X113679188Y-64542857D02*
X113593474Y-64542857D01*
X113593474Y-64542857D02*
X113479188Y-64514285D01*
X113479188Y-64514285D02*
X113422045Y-64485714D01*
X113422045Y-64485714D02*
X113364902Y-64428571D01*
X113364902Y-64428571D02*
X113336331Y-64342857D01*
X113336331Y-64342857D02*
X113336331Y-64285714D01*
X113336331Y-64285714D02*
X113364902Y-64200000D01*
X113364902Y-64200000D02*
X113393474Y-64171428D01*
X113936331Y-63600000D02*
X113936331Y-63942857D01*
X113936331Y-63771428D02*
X113336331Y-63771428D01*
X113336331Y-63771428D02*
X113422045Y-63828571D01*
X113422045Y-63828571D02*
X113479188Y-63885714D01*
X113479188Y-63885714D02*
X113507760Y-63942857D01*
X113336331Y-63228571D02*
X113336331Y-63171428D01*
X113336331Y-63171428D02*
X113364902Y-63114285D01*
X113364902Y-63114285D02*
X113393474Y-63085714D01*
X113393474Y-63085714D02*
X113450617Y-63057142D01*
X113450617Y-63057142D02*
X113564902Y-63028571D01*
X113564902Y-63028571D02*
X113707760Y-63028571D01*
X113707760Y-63028571D02*
X113822045Y-63057142D01*
X113822045Y-63057142D02*
X113879188Y-63085714D01*
X113879188Y-63085714D02*
X113907760Y-63114285D01*
X113907760Y-63114285D02*
X113936331Y-63171428D01*
X113936331Y-63171428D02*
X113936331Y-63228571D01*
X113936331Y-63228571D02*
X113907760Y-63285714D01*
X113907760Y-63285714D02*
X113879188Y-63314285D01*
X113879188Y-63314285D02*
X113822045Y-63342856D01*
X113822045Y-63342856D02*
X113707760Y-63371428D01*
X113707760Y-63371428D02*
X113564902Y-63371428D01*
X113564902Y-63371428D02*
X113450617Y-63342856D01*
X113450617Y-63342856D02*
X113393474Y-63314285D01*
X113393474Y-63314285D02*
X113364902Y-63285714D01*
X113364902Y-63285714D02*
X113336331Y-63228571D01*
X113336331Y-62828570D02*
X113336331Y-62457142D01*
X113336331Y-62457142D02*
X113564902Y-62657142D01*
X113564902Y-62657142D02*
X113564902Y-62571427D01*
X113564902Y-62571427D02*
X113593474Y-62514285D01*
X113593474Y-62514285D02*
X113622045Y-62485713D01*
X113622045Y-62485713D02*
X113679188Y-62457142D01*
X113679188Y-62457142D02*
X113822045Y-62457142D01*
X113822045Y-62457142D02*
X113879188Y-62485713D01*
X113879188Y-62485713D02*
X113907760Y-62514285D01*
X113907760Y-62514285D02*
X113936331Y-62571427D01*
X113936331Y-62571427D02*
X113936331Y-62742856D01*
X113936331Y-62742856D02*
X113907760Y-62799999D01*
X113907760Y-62799999D02*
X113879188Y-62828570D01*
X128795331Y-69378428D02*
X128509617Y-69578428D01*
X128795331Y-69721285D02*
X128195331Y-69721285D01*
X128195331Y-69721285D02*
X128195331Y-69492714D01*
X128195331Y-69492714D02*
X128223902Y-69435571D01*
X128223902Y-69435571D02*
X128252474Y-69407000D01*
X128252474Y-69407000D02*
X128309617Y-69378428D01*
X128309617Y-69378428D02*
X128395331Y-69378428D01*
X128395331Y-69378428D02*
X128452474Y-69407000D01*
X128452474Y-69407000D02*
X128481045Y-69435571D01*
X128481045Y-69435571D02*
X128509617Y-69492714D01*
X128509617Y-69492714D02*
X128509617Y-69721285D01*
X128795331Y-68807000D02*
X128795331Y-69149857D01*
X128795331Y-68978428D02*
X128195331Y-68978428D01*
X128195331Y-68978428D02*
X128281045Y-69035571D01*
X128281045Y-69035571D02*
X128338188Y-69092714D01*
X128338188Y-69092714D02*
X128366760Y-69149857D01*
X128195331Y-68435571D02*
X128195331Y-68378428D01*
X128195331Y-68378428D02*
X128223902Y-68321285D01*
X128223902Y-68321285D02*
X128252474Y-68292714D01*
X128252474Y-68292714D02*
X128309617Y-68264142D01*
X128309617Y-68264142D02*
X128423902Y-68235571D01*
X128423902Y-68235571D02*
X128566760Y-68235571D01*
X128566760Y-68235571D02*
X128681045Y-68264142D01*
X128681045Y-68264142D02*
X128738188Y-68292714D01*
X128738188Y-68292714D02*
X128766760Y-68321285D01*
X128766760Y-68321285D02*
X128795331Y-68378428D01*
X128795331Y-68378428D02*
X128795331Y-68435571D01*
X128795331Y-68435571D02*
X128766760Y-68492714D01*
X128766760Y-68492714D02*
X128738188Y-68521285D01*
X128738188Y-68521285D02*
X128681045Y-68549856D01*
X128681045Y-68549856D02*
X128566760Y-68578428D01*
X128566760Y-68578428D02*
X128423902Y-68578428D01*
X128423902Y-68578428D02*
X128309617Y-68549856D01*
X128309617Y-68549856D02*
X128252474Y-68521285D01*
X128252474Y-68521285D02*
X128223902Y-68492714D01*
X128223902Y-68492714D02*
X128195331Y-68435571D01*
X128195331Y-68035570D02*
X128195331Y-67664142D01*
X128195331Y-67664142D02*
X128423902Y-67864142D01*
X128423902Y-67864142D02*
X128423902Y-67778427D01*
X128423902Y-67778427D02*
X128452474Y-67721285D01*
X128452474Y-67721285D02*
X128481045Y-67692713D01*
X128481045Y-67692713D02*
X128538188Y-67664142D01*
X128538188Y-67664142D02*
X128681045Y-67664142D01*
X128681045Y-67664142D02*
X128738188Y-67692713D01*
X128738188Y-67692713D02*
X128766760Y-67721285D01*
X128766760Y-67721285D02*
X128795331Y-67778427D01*
X128795331Y-67778427D02*
X128795331Y-67949856D01*
X128795331Y-67949856D02*
X128766760Y-68006999D01*
X128766760Y-68006999D02*
X128738188Y-68035570D01*
X142484570Y-73331331D02*
X142484570Y-73759902D01*
X142484570Y-73759902D02*
X142455999Y-73845617D01*
X142455999Y-73845617D02*
X142398856Y-73902760D01*
X142398856Y-73902760D02*
X142313142Y-73931331D01*
X142313142Y-73931331D02*
X142255999Y-73931331D01*
X143084570Y-73931331D02*
X142741713Y-73931331D01*
X142913142Y-73931331D02*
X142913142Y-73331331D01*
X142913142Y-73331331D02*
X142855999Y-73417045D01*
X142855999Y-73417045D02*
X142798856Y-73474188D01*
X142798856Y-73474188D02*
X142741713Y-73502760D01*
X143455999Y-73331331D02*
X143513142Y-73331331D01*
X143513142Y-73331331D02*
X143570285Y-73359902D01*
X143570285Y-73359902D02*
X143598857Y-73388474D01*
X143598857Y-73388474D02*
X143627428Y-73445617D01*
X143627428Y-73445617D02*
X143655999Y-73559902D01*
X143655999Y-73559902D02*
X143655999Y-73702760D01*
X143655999Y-73702760D02*
X143627428Y-73817045D01*
X143627428Y-73817045D02*
X143598857Y-73874188D01*
X143598857Y-73874188D02*
X143570285Y-73902760D01*
X143570285Y-73902760D02*
X143513142Y-73931331D01*
X143513142Y-73931331D02*
X143455999Y-73931331D01*
X143455999Y-73931331D02*
X143398857Y-73902760D01*
X143398857Y-73902760D02*
X143370285Y-73874188D01*
X143370285Y-73874188D02*
X143341714Y-73817045D01*
X143341714Y-73817045D02*
X143313142Y-73702760D01*
X143313142Y-73702760D02*
X143313142Y-73559902D01*
X143313142Y-73559902D02*
X143341714Y-73445617D01*
X143341714Y-73445617D02*
X143370285Y-73388474D01*
X143370285Y-73388474D02*
X143398857Y-73359902D01*
X143398857Y-73359902D02*
X143455999Y-73331331D01*
X144170286Y-73331331D02*
X144056000Y-73331331D01*
X144056000Y-73331331D02*
X143998857Y-73359902D01*
X143998857Y-73359902D02*
X143970286Y-73388474D01*
X143970286Y-73388474D02*
X143913143Y-73474188D01*
X143913143Y-73474188D02*
X143884571Y-73588474D01*
X143884571Y-73588474D02*
X143884571Y-73817045D01*
X143884571Y-73817045D02*
X143913143Y-73874188D01*
X143913143Y-73874188D02*
X143941714Y-73902760D01*
X143941714Y-73902760D02*
X143998857Y-73931331D01*
X143998857Y-73931331D02*
X144113143Y-73931331D01*
X144113143Y-73931331D02*
X144170286Y-73902760D01*
X144170286Y-73902760D02*
X144198857Y-73874188D01*
X144198857Y-73874188D02*
X144227428Y-73817045D01*
X144227428Y-73817045D02*
X144227428Y-73674188D01*
X144227428Y-73674188D02*
X144198857Y-73617045D01*
X144198857Y-73617045D02*
X144170286Y-73588474D01*
X144170286Y-73588474D02*
X144113143Y-73559902D01*
X144113143Y-73559902D02*
X143998857Y-73559902D01*
X143998857Y-73559902D02*
X143941714Y-73588474D01*
X143941714Y-73588474D02*
X143913143Y-73617045D01*
X143913143Y-73617045D02*
X143884571Y-73674188D01*
X103368570Y-76081331D02*
X103368570Y-76509902D01*
X103368570Y-76509902D02*
X103339999Y-76595617D01*
X103339999Y-76595617D02*
X103282856Y-76652760D01*
X103282856Y-76652760D02*
X103197142Y-76681331D01*
X103197142Y-76681331D02*
X103139999Y-76681331D01*
X103968570Y-76681331D02*
X103625713Y-76681331D01*
X103797142Y-76681331D02*
X103797142Y-76081331D01*
X103797142Y-76081331D02*
X103739999Y-76167045D01*
X103739999Y-76167045D02*
X103682856Y-76224188D01*
X103682856Y-76224188D02*
X103625713Y-76252760D01*
X104339999Y-76081331D02*
X104397142Y-76081331D01*
X104397142Y-76081331D02*
X104454285Y-76109902D01*
X104454285Y-76109902D02*
X104482857Y-76138474D01*
X104482857Y-76138474D02*
X104511428Y-76195617D01*
X104511428Y-76195617D02*
X104539999Y-76309902D01*
X104539999Y-76309902D02*
X104539999Y-76452760D01*
X104539999Y-76452760D02*
X104511428Y-76567045D01*
X104511428Y-76567045D02*
X104482857Y-76624188D01*
X104482857Y-76624188D02*
X104454285Y-76652760D01*
X104454285Y-76652760D02*
X104397142Y-76681331D01*
X104397142Y-76681331D02*
X104339999Y-76681331D01*
X104339999Y-76681331D02*
X104282857Y-76652760D01*
X104282857Y-76652760D02*
X104254285Y-76624188D01*
X104254285Y-76624188D02*
X104225714Y-76567045D01*
X104225714Y-76567045D02*
X104197142Y-76452760D01*
X104197142Y-76452760D02*
X104197142Y-76309902D01*
X104197142Y-76309902D02*
X104225714Y-76195617D01*
X104225714Y-76195617D02*
X104254285Y-76138474D01*
X104254285Y-76138474D02*
X104282857Y-76109902D01*
X104282857Y-76109902D02*
X104339999Y-76081331D01*
X104740000Y-76081331D02*
X105111428Y-76081331D01*
X105111428Y-76081331D02*
X104911428Y-76309902D01*
X104911428Y-76309902D02*
X104997143Y-76309902D01*
X104997143Y-76309902D02*
X105054286Y-76338474D01*
X105054286Y-76338474D02*
X105082857Y-76367045D01*
X105082857Y-76367045D02*
X105111428Y-76424188D01*
X105111428Y-76424188D02*
X105111428Y-76567045D01*
X105111428Y-76567045D02*
X105082857Y-76624188D01*
X105082857Y-76624188D02*
X105054286Y-76652760D01*
X105054286Y-76652760D02*
X104997143Y-76681331D01*
X104997143Y-76681331D02*
X104825714Y-76681331D01*
X104825714Y-76681331D02*
X104768571Y-76652760D01*
X104768571Y-76652760D02*
X104740000Y-76624188D01*
X122899571Y-71588188D02*
X122870999Y-71616760D01*
X122870999Y-71616760D02*
X122785285Y-71645331D01*
X122785285Y-71645331D02*
X122728142Y-71645331D01*
X122728142Y-71645331D02*
X122642428Y-71616760D01*
X122642428Y-71616760D02*
X122585285Y-71559617D01*
X122585285Y-71559617D02*
X122556714Y-71502474D01*
X122556714Y-71502474D02*
X122528142Y-71388188D01*
X122528142Y-71388188D02*
X122528142Y-71302474D01*
X122528142Y-71302474D02*
X122556714Y-71188188D01*
X122556714Y-71188188D02*
X122585285Y-71131045D01*
X122585285Y-71131045D02*
X122642428Y-71073902D01*
X122642428Y-71073902D02*
X122728142Y-71045331D01*
X122728142Y-71045331D02*
X122785285Y-71045331D01*
X122785285Y-71045331D02*
X122870999Y-71073902D01*
X122870999Y-71073902D02*
X122899571Y-71102474D01*
X123470999Y-71645331D02*
X123128142Y-71645331D01*
X123299571Y-71645331D02*
X123299571Y-71045331D01*
X123299571Y-71045331D02*
X123242428Y-71131045D01*
X123242428Y-71131045D02*
X123185285Y-71188188D01*
X123185285Y-71188188D02*
X123128142Y-71216760D01*
X123842428Y-71045331D02*
X123899571Y-71045331D01*
X123899571Y-71045331D02*
X123956714Y-71073902D01*
X123956714Y-71073902D02*
X123985286Y-71102474D01*
X123985286Y-71102474D02*
X124013857Y-71159617D01*
X124013857Y-71159617D02*
X124042428Y-71273902D01*
X124042428Y-71273902D02*
X124042428Y-71416760D01*
X124042428Y-71416760D02*
X124013857Y-71531045D01*
X124013857Y-71531045D02*
X123985286Y-71588188D01*
X123985286Y-71588188D02*
X123956714Y-71616760D01*
X123956714Y-71616760D02*
X123899571Y-71645331D01*
X123899571Y-71645331D02*
X123842428Y-71645331D01*
X123842428Y-71645331D02*
X123785286Y-71616760D01*
X123785286Y-71616760D02*
X123756714Y-71588188D01*
X123756714Y-71588188D02*
X123728143Y-71531045D01*
X123728143Y-71531045D02*
X123699571Y-71416760D01*
X123699571Y-71416760D02*
X123699571Y-71273902D01*
X123699571Y-71273902D02*
X123728143Y-71159617D01*
X123728143Y-71159617D02*
X123756714Y-71102474D01*
X123756714Y-71102474D02*
X123785286Y-71073902D01*
X123785286Y-71073902D02*
X123842428Y-71045331D01*
X124556715Y-71045331D02*
X124442429Y-71045331D01*
X124442429Y-71045331D02*
X124385286Y-71073902D01*
X124385286Y-71073902D02*
X124356715Y-71102474D01*
X124356715Y-71102474D02*
X124299572Y-71188188D01*
X124299572Y-71188188D02*
X124271000Y-71302474D01*
X124271000Y-71302474D02*
X124271000Y-71531045D01*
X124271000Y-71531045D02*
X124299572Y-71588188D01*
X124299572Y-71588188D02*
X124328143Y-71616760D01*
X124328143Y-71616760D02*
X124385286Y-71645331D01*
X124385286Y-71645331D02*
X124499572Y-71645331D01*
X124499572Y-71645331D02*
X124556715Y-71616760D01*
X124556715Y-71616760D02*
X124585286Y-71588188D01*
X124585286Y-71588188D02*
X124613857Y-71531045D01*
X124613857Y-71531045D02*
X124613857Y-71388188D01*
X124613857Y-71388188D02*
X124585286Y-71331045D01*
X124585286Y-71331045D02*
X124556715Y-71302474D01*
X124556715Y-71302474D02*
X124499572Y-71273902D01*
X124499572Y-71273902D02*
X124385286Y-71273902D01*
X124385286Y-71273902D02*
X124328143Y-71302474D01*
X124328143Y-71302474D02*
X124299572Y-71331045D01*
X124299572Y-71331045D02*
X124271000Y-71388188D01*
X120383428Y-61721331D02*
X120383428Y-62207045D01*
X120383428Y-62207045D02*
X120411999Y-62264188D01*
X120411999Y-62264188D02*
X120440571Y-62292760D01*
X120440571Y-62292760D02*
X120497713Y-62321331D01*
X120497713Y-62321331D02*
X120611999Y-62321331D01*
X120611999Y-62321331D02*
X120669142Y-62292760D01*
X120669142Y-62292760D02*
X120697713Y-62264188D01*
X120697713Y-62264188D02*
X120726285Y-62207045D01*
X120726285Y-62207045D02*
X120726285Y-61721331D01*
X121326284Y-62321331D02*
X120983427Y-62321331D01*
X121154856Y-62321331D02*
X121154856Y-61721331D01*
X121154856Y-61721331D02*
X121097713Y-61807045D01*
X121097713Y-61807045D02*
X121040570Y-61864188D01*
X121040570Y-61864188D02*
X120983427Y-61892760D01*
X121697713Y-61721331D02*
X121754856Y-61721331D01*
X121754856Y-61721331D02*
X121811999Y-61749902D01*
X121811999Y-61749902D02*
X121840571Y-61778474D01*
X121840571Y-61778474D02*
X121869142Y-61835617D01*
X121869142Y-61835617D02*
X121897713Y-61949902D01*
X121897713Y-61949902D02*
X121897713Y-62092760D01*
X121897713Y-62092760D02*
X121869142Y-62207045D01*
X121869142Y-62207045D02*
X121840571Y-62264188D01*
X121840571Y-62264188D02*
X121811999Y-62292760D01*
X121811999Y-62292760D02*
X121754856Y-62321331D01*
X121754856Y-62321331D02*
X121697713Y-62321331D01*
X121697713Y-62321331D02*
X121640571Y-62292760D01*
X121640571Y-62292760D02*
X121611999Y-62264188D01*
X121611999Y-62264188D02*
X121583428Y-62207045D01*
X121583428Y-62207045D02*
X121554856Y-62092760D01*
X121554856Y-62092760D02*
X121554856Y-61949902D01*
X121554856Y-61949902D02*
X121583428Y-61835617D01*
X121583428Y-61835617D02*
X121611999Y-61778474D01*
X121611999Y-61778474D02*
X121640571Y-61749902D01*
X121640571Y-61749902D02*
X121697713Y-61721331D01*
X122469142Y-62321331D02*
X122126285Y-62321331D01*
X122297714Y-62321331D02*
X122297714Y-61721331D01*
X122297714Y-61721331D02*
X122240571Y-61807045D01*
X122240571Y-61807045D02*
X122183428Y-61864188D01*
X122183428Y-61864188D02*
X122126285Y-61892760D01*
X103368570Y-65921331D02*
X103368570Y-66349902D01*
X103368570Y-66349902D02*
X103339999Y-66435617D01*
X103339999Y-66435617D02*
X103282856Y-66492760D01*
X103282856Y-66492760D02*
X103197142Y-66521331D01*
X103197142Y-66521331D02*
X103139999Y-66521331D01*
X103968570Y-66521331D02*
X103625713Y-66521331D01*
X103797142Y-66521331D02*
X103797142Y-65921331D01*
X103797142Y-65921331D02*
X103739999Y-66007045D01*
X103739999Y-66007045D02*
X103682856Y-66064188D01*
X103682856Y-66064188D02*
X103625713Y-66092760D01*
X104339999Y-65921331D02*
X104397142Y-65921331D01*
X104397142Y-65921331D02*
X104454285Y-65949902D01*
X104454285Y-65949902D02*
X104482857Y-65978474D01*
X104482857Y-65978474D02*
X104511428Y-66035617D01*
X104511428Y-66035617D02*
X104539999Y-66149902D01*
X104539999Y-66149902D02*
X104539999Y-66292760D01*
X104539999Y-66292760D02*
X104511428Y-66407045D01*
X104511428Y-66407045D02*
X104482857Y-66464188D01*
X104482857Y-66464188D02*
X104454285Y-66492760D01*
X104454285Y-66492760D02*
X104397142Y-66521331D01*
X104397142Y-66521331D02*
X104339999Y-66521331D01*
X104339999Y-66521331D02*
X104282857Y-66492760D01*
X104282857Y-66492760D02*
X104254285Y-66464188D01*
X104254285Y-66464188D02*
X104225714Y-66407045D01*
X104225714Y-66407045D02*
X104197142Y-66292760D01*
X104197142Y-66292760D02*
X104197142Y-66149902D01*
X104197142Y-66149902D02*
X104225714Y-66035617D01*
X104225714Y-66035617D02*
X104254285Y-65978474D01*
X104254285Y-65978474D02*
X104282857Y-65949902D01*
X104282857Y-65949902D02*
X104339999Y-65921331D01*
X104768571Y-65978474D02*
X104797143Y-65949902D01*
X104797143Y-65949902D02*
X104854286Y-65921331D01*
X104854286Y-65921331D02*
X104997143Y-65921331D01*
X104997143Y-65921331D02*
X105054286Y-65949902D01*
X105054286Y-65949902D02*
X105082857Y-65978474D01*
X105082857Y-65978474D02*
X105111428Y-66035617D01*
X105111428Y-66035617D02*
X105111428Y-66092760D01*
X105111428Y-66092760D02*
X105082857Y-66178474D01*
X105082857Y-66178474D02*
X104740000Y-66521331D01*
X104740000Y-66521331D02*
X105111428Y-66521331D01*
X123153571Y-88479188D02*
X123124999Y-88507760D01*
X123124999Y-88507760D02*
X123039285Y-88536331D01*
X123039285Y-88536331D02*
X122982142Y-88536331D01*
X122982142Y-88536331D02*
X122896428Y-88507760D01*
X122896428Y-88507760D02*
X122839285Y-88450617D01*
X122839285Y-88450617D02*
X122810714Y-88393474D01*
X122810714Y-88393474D02*
X122782142Y-88279188D01*
X122782142Y-88279188D02*
X122782142Y-88193474D01*
X122782142Y-88193474D02*
X122810714Y-88079188D01*
X122810714Y-88079188D02*
X122839285Y-88022045D01*
X122839285Y-88022045D02*
X122896428Y-87964902D01*
X122896428Y-87964902D02*
X122982142Y-87936331D01*
X122982142Y-87936331D02*
X123039285Y-87936331D01*
X123039285Y-87936331D02*
X123124999Y-87964902D01*
X123124999Y-87964902D02*
X123153571Y-87993474D01*
X123724999Y-88536331D02*
X123382142Y-88536331D01*
X123553571Y-88536331D02*
X123553571Y-87936331D01*
X123553571Y-87936331D02*
X123496428Y-88022045D01*
X123496428Y-88022045D02*
X123439285Y-88079188D01*
X123439285Y-88079188D02*
X123382142Y-88107760D01*
X124096428Y-87936331D02*
X124153571Y-87936331D01*
X124153571Y-87936331D02*
X124210714Y-87964902D01*
X124210714Y-87964902D02*
X124239286Y-87993474D01*
X124239286Y-87993474D02*
X124267857Y-88050617D01*
X124267857Y-88050617D02*
X124296428Y-88164902D01*
X124296428Y-88164902D02*
X124296428Y-88307760D01*
X124296428Y-88307760D02*
X124267857Y-88422045D01*
X124267857Y-88422045D02*
X124239286Y-88479188D01*
X124239286Y-88479188D02*
X124210714Y-88507760D01*
X124210714Y-88507760D02*
X124153571Y-88536331D01*
X124153571Y-88536331D02*
X124096428Y-88536331D01*
X124096428Y-88536331D02*
X124039286Y-88507760D01*
X124039286Y-88507760D02*
X124010714Y-88479188D01*
X124010714Y-88479188D02*
X123982143Y-88422045D01*
X123982143Y-88422045D02*
X123953571Y-88307760D01*
X123953571Y-88307760D02*
X123953571Y-88164902D01*
X123953571Y-88164902D02*
X123982143Y-88050617D01*
X123982143Y-88050617D02*
X124010714Y-87993474D01*
X124010714Y-87993474D02*
X124039286Y-87964902D01*
X124039286Y-87964902D02*
X124096428Y-87936331D01*
X124639286Y-88193474D02*
X124582143Y-88164902D01*
X124582143Y-88164902D02*
X124553572Y-88136331D01*
X124553572Y-88136331D02*
X124525000Y-88079188D01*
X124525000Y-88079188D02*
X124525000Y-88050617D01*
X124525000Y-88050617D02*
X124553572Y-87993474D01*
X124553572Y-87993474D02*
X124582143Y-87964902D01*
X124582143Y-87964902D02*
X124639286Y-87936331D01*
X124639286Y-87936331D02*
X124753572Y-87936331D01*
X124753572Y-87936331D02*
X124810715Y-87964902D01*
X124810715Y-87964902D02*
X124839286Y-87993474D01*
X124839286Y-87993474D02*
X124867857Y-88050617D01*
X124867857Y-88050617D02*
X124867857Y-88079188D01*
X124867857Y-88079188D02*
X124839286Y-88136331D01*
X124839286Y-88136331D02*
X124810715Y-88164902D01*
X124810715Y-88164902D02*
X124753572Y-88193474D01*
X124753572Y-88193474D02*
X124639286Y-88193474D01*
X124639286Y-88193474D02*
X124582143Y-88222045D01*
X124582143Y-88222045D02*
X124553572Y-88250617D01*
X124553572Y-88250617D02*
X124525000Y-88307760D01*
X124525000Y-88307760D02*
X124525000Y-88422045D01*
X124525000Y-88422045D02*
X124553572Y-88479188D01*
X124553572Y-88479188D02*
X124582143Y-88507760D01*
X124582143Y-88507760D02*
X124639286Y-88536331D01*
X124639286Y-88536331D02*
X124753572Y-88536331D01*
X124753572Y-88536331D02*
X124810715Y-88507760D01*
X124810715Y-88507760D02*
X124839286Y-88479188D01*
X124839286Y-88479188D02*
X124867857Y-88422045D01*
X124867857Y-88422045D02*
X124867857Y-88307760D01*
X124867857Y-88307760D02*
X124839286Y-88250617D01*
X124839286Y-88250617D02*
X124810715Y-88222045D01*
X124810715Y-88222045D02*
X124753572Y-88193474D01*
X131940428Y-58091331D02*
X131940428Y-58577045D01*
X131940428Y-58577045D02*
X131968999Y-58634188D01*
X131968999Y-58634188D02*
X131997571Y-58662760D01*
X131997571Y-58662760D02*
X132054713Y-58691331D01*
X132054713Y-58691331D02*
X132168999Y-58691331D01*
X132168999Y-58691331D02*
X132226142Y-58662760D01*
X132226142Y-58662760D02*
X132254713Y-58634188D01*
X132254713Y-58634188D02*
X132283285Y-58577045D01*
X132283285Y-58577045D02*
X132283285Y-58091331D01*
X132883284Y-58691331D02*
X132540427Y-58691331D01*
X132711856Y-58691331D02*
X132711856Y-58091331D01*
X132711856Y-58091331D02*
X132654713Y-58177045D01*
X132654713Y-58177045D02*
X132597570Y-58234188D01*
X132597570Y-58234188D02*
X132540427Y-58262760D01*
X133254713Y-58091331D02*
X133311856Y-58091331D01*
X133311856Y-58091331D02*
X133368999Y-58119902D01*
X133368999Y-58119902D02*
X133397571Y-58148474D01*
X133397571Y-58148474D02*
X133426142Y-58205617D01*
X133426142Y-58205617D02*
X133454713Y-58319902D01*
X133454713Y-58319902D02*
X133454713Y-58462760D01*
X133454713Y-58462760D02*
X133426142Y-58577045D01*
X133426142Y-58577045D02*
X133397571Y-58634188D01*
X133397571Y-58634188D02*
X133368999Y-58662760D01*
X133368999Y-58662760D02*
X133311856Y-58691331D01*
X133311856Y-58691331D02*
X133254713Y-58691331D01*
X133254713Y-58691331D02*
X133197571Y-58662760D01*
X133197571Y-58662760D02*
X133168999Y-58634188D01*
X133168999Y-58634188D02*
X133140428Y-58577045D01*
X133140428Y-58577045D02*
X133111856Y-58462760D01*
X133111856Y-58462760D02*
X133111856Y-58319902D01*
X133111856Y-58319902D02*
X133140428Y-58205617D01*
X133140428Y-58205617D02*
X133168999Y-58148474D01*
X133168999Y-58148474D02*
X133197571Y-58119902D01*
X133197571Y-58119902D02*
X133254713Y-58091331D01*
X133654714Y-58091331D02*
X134026142Y-58091331D01*
X134026142Y-58091331D02*
X133826142Y-58319902D01*
X133826142Y-58319902D02*
X133911857Y-58319902D01*
X133911857Y-58319902D02*
X133969000Y-58348474D01*
X133969000Y-58348474D02*
X133997571Y-58377045D01*
X133997571Y-58377045D02*
X134026142Y-58434188D01*
X134026142Y-58434188D02*
X134026142Y-58577045D01*
X134026142Y-58577045D02*
X133997571Y-58634188D01*
X133997571Y-58634188D02*
X133969000Y-58662760D01*
X133969000Y-58662760D02*
X133911857Y-58691331D01*
X133911857Y-58691331D02*
X133740428Y-58691331D01*
X133740428Y-58691331D02*
X133683285Y-58662760D01*
X133683285Y-58662760D02*
X133654714Y-58634188D01*
X138136188Y-53757428D02*
X138164760Y-53786000D01*
X138164760Y-53786000D02*
X138193331Y-53871714D01*
X138193331Y-53871714D02*
X138193331Y-53928857D01*
X138193331Y-53928857D02*
X138164760Y-54014571D01*
X138164760Y-54014571D02*
X138107617Y-54071714D01*
X138107617Y-54071714D02*
X138050474Y-54100285D01*
X138050474Y-54100285D02*
X137936188Y-54128857D01*
X137936188Y-54128857D02*
X137850474Y-54128857D01*
X137850474Y-54128857D02*
X137736188Y-54100285D01*
X137736188Y-54100285D02*
X137679045Y-54071714D01*
X137679045Y-54071714D02*
X137621902Y-54014571D01*
X137621902Y-54014571D02*
X137593331Y-53928857D01*
X137593331Y-53928857D02*
X137593331Y-53871714D01*
X137593331Y-53871714D02*
X137621902Y-53786000D01*
X137621902Y-53786000D02*
X137650474Y-53757428D01*
X138193331Y-53186000D02*
X138193331Y-53528857D01*
X138193331Y-53357428D02*
X137593331Y-53357428D01*
X137593331Y-53357428D02*
X137679045Y-53414571D01*
X137679045Y-53414571D02*
X137736188Y-53471714D01*
X137736188Y-53471714D02*
X137764760Y-53528857D01*
X137593331Y-52814571D02*
X137593331Y-52757428D01*
X137593331Y-52757428D02*
X137621902Y-52700285D01*
X137621902Y-52700285D02*
X137650474Y-52671714D01*
X137650474Y-52671714D02*
X137707617Y-52643142D01*
X137707617Y-52643142D02*
X137821902Y-52614571D01*
X137821902Y-52614571D02*
X137964760Y-52614571D01*
X137964760Y-52614571D02*
X138079045Y-52643142D01*
X138079045Y-52643142D02*
X138136188Y-52671714D01*
X138136188Y-52671714D02*
X138164760Y-52700285D01*
X138164760Y-52700285D02*
X138193331Y-52757428D01*
X138193331Y-52757428D02*
X138193331Y-52814571D01*
X138193331Y-52814571D02*
X138164760Y-52871714D01*
X138164760Y-52871714D02*
X138136188Y-52900285D01*
X138136188Y-52900285D02*
X138079045Y-52928856D01*
X138079045Y-52928856D02*
X137964760Y-52957428D01*
X137964760Y-52957428D02*
X137821902Y-52957428D01*
X137821902Y-52957428D02*
X137707617Y-52928856D01*
X137707617Y-52928856D02*
X137650474Y-52900285D01*
X137650474Y-52900285D02*
X137621902Y-52871714D01*
X137621902Y-52871714D02*
X137593331Y-52814571D01*
X138193331Y-52328856D02*
X138193331Y-52214570D01*
X138193331Y-52214570D02*
X138164760Y-52157427D01*
X138164760Y-52157427D02*
X138136188Y-52128856D01*
X138136188Y-52128856D02*
X138050474Y-52071713D01*
X138050474Y-52071713D02*
X137936188Y-52043142D01*
X137936188Y-52043142D02*
X137707617Y-52043142D01*
X137707617Y-52043142D02*
X137650474Y-52071713D01*
X137650474Y-52071713D02*
X137621902Y-52100285D01*
X137621902Y-52100285D02*
X137593331Y-52157427D01*
X137593331Y-52157427D02*
X137593331Y-52271713D01*
X137593331Y-52271713D02*
X137621902Y-52328856D01*
X137621902Y-52328856D02*
X137650474Y-52357427D01*
X137650474Y-52357427D02*
X137707617Y-52385999D01*
X137707617Y-52385999D02*
X137850474Y-52385999D01*
X137850474Y-52385999D02*
X137907617Y-52357427D01*
X137907617Y-52357427D02*
X137936188Y-52328856D01*
X137936188Y-52328856D02*
X137964760Y-52271713D01*
X137964760Y-52271713D02*
X137964760Y-52157427D01*
X137964760Y-52157427D02*
X137936188Y-52100285D01*
X137936188Y-52100285D02*
X137907617Y-52071713D01*
X137907617Y-52071713D02*
X137850474Y-52043142D01*
X138226331Y-57186428D02*
X137940617Y-57386428D01*
X138226331Y-57529285D02*
X137626331Y-57529285D01*
X137626331Y-57529285D02*
X137626331Y-57300714D01*
X137626331Y-57300714D02*
X137654902Y-57243571D01*
X137654902Y-57243571D02*
X137683474Y-57215000D01*
X137683474Y-57215000D02*
X137740617Y-57186428D01*
X137740617Y-57186428D02*
X137826331Y-57186428D01*
X137826331Y-57186428D02*
X137883474Y-57215000D01*
X137883474Y-57215000D02*
X137912045Y-57243571D01*
X137912045Y-57243571D02*
X137940617Y-57300714D01*
X137940617Y-57300714D02*
X137940617Y-57529285D01*
X138226331Y-56615000D02*
X138226331Y-56957857D01*
X138226331Y-56786428D02*
X137626331Y-56786428D01*
X137626331Y-56786428D02*
X137712045Y-56843571D01*
X137712045Y-56843571D02*
X137769188Y-56900714D01*
X137769188Y-56900714D02*
X137797760Y-56957857D01*
X137626331Y-56243571D02*
X137626331Y-56186428D01*
X137626331Y-56186428D02*
X137654902Y-56129285D01*
X137654902Y-56129285D02*
X137683474Y-56100714D01*
X137683474Y-56100714D02*
X137740617Y-56072142D01*
X137740617Y-56072142D02*
X137854902Y-56043571D01*
X137854902Y-56043571D02*
X137997760Y-56043571D01*
X137997760Y-56043571D02*
X138112045Y-56072142D01*
X138112045Y-56072142D02*
X138169188Y-56100714D01*
X138169188Y-56100714D02*
X138197760Y-56129285D01*
X138197760Y-56129285D02*
X138226331Y-56186428D01*
X138226331Y-56186428D02*
X138226331Y-56243571D01*
X138226331Y-56243571D02*
X138197760Y-56300714D01*
X138197760Y-56300714D02*
X138169188Y-56329285D01*
X138169188Y-56329285D02*
X138112045Y-56357856D01*
X138112045Y-56357856D02*
X137997760Y-56386428D01*
X137997760Y-56386428D02*
X137854902Y-56386428D01*
X137854902Y-56386428D02*
X137740617Y-56357856D01*
X137740617Y-56357856D02*
X137683474Y-56329285D01*
X137683474Y-56329285D02*
X137654902Y-56300714D01*
X137654902Y-56300714D02*
X137626331Y-56243571D01*
X137626331Y-55843570D02*
X137626331Y-55443570D01*
X137626331Y-55443570D02*
X138226331Y-55700713D01*
X120637428Y-78644331D02*
X120637428Y-79130045D01*
X120637428Y-79130045D02*
X120665999Y-79187188D01*
X120665999Y-79187188D02*
X120694571Y-79215760D01*
X120694571Y-79215760D02*
X120751713Y-79244331D01*
X120751713Y-79244331D02*
X120865999Y-79244331D01*
X120865999Y-79244331D02*
X120923142Y-79215760D01*
X120923142Y-79215760D02*
X120951713Y-79187188D01*
X120951713Y-79187188D02*
X120980285Y-79130045D01*
X120980285Y-79130045D02*
X120980285Y-78644331D01*
X121580284Y-79244331D02*
X121237427Y-79244331D01*
X121408856Y-79244331D02*
X121408856Y-78644331D01*
X121408856Y-78644331D02*
X121351713Y-78730045D01*
X121351713Y-78730045D02*
X121294570Y-78787188D01*
X121294570Y-78787188D02*
X121237427Y-78815760D01*
X121951713Y-78644331D02*
X122008856Y-78644331D01*
X122008856Y-78644331D02*
X122065999Y-78672902D01*
X122065999Y-78672902D02*
X122094571Y-78701474D01*
X122094571Y-78701474D02*
X122123142Y-78758617D01*
X122123142Y-78758617D02*
X122151713Y-78872902D01*
X122151713Y-78872902D02*
X122151713Y-79015760D01*
X122151713Y-79015760D02*
X122123142Y-79130045D01*
X122123142Y-79130045D02*
X122094571Y-79187188D01*
X122094571Y-79187188D02*
X122065999Y-79215760D01*
X122065999Y-79215760D02*
X122008856Y-79244331D01*
X122008856Y-79244331D02*
X121951713Y-79244331D01*
X121951713Y-79244331D02*
X121894571Y-79215760D01*
X121894571Y-79215760D02*
X121865999Y-79187188D01*
X121865999Y-79187188D02*
X121837428Y-79130045D01*
X121837428Y-79130045D02*
X121808856Y-79015760D01*
X121808856Y-79015760D02*
X121808856Y-78872902D01*
X121808856Y-78872902D02*
X121837428Y-78758617D01*
X121837428Y-78758617D02*
X121865999Y-78701474D01*
X121865999Y-78701474D02*
X121894571Y-78672902D01*
X121894571Y-78672902D02*
X121951713Y-78644331D01*
X122380285Y-78701474D02*
X122408857Y-78672902D01*
X122408857Y-78672902D02*
X122466000Y-78644331D01*
X122466000Y-78644331D02*
X122608857Y-78644331D01*
X122608857Y-78644331D02*
X122666000Y-78672902D01*
X122666000Y-78672902D02*
X122694571Y-78701474D01*
X122694571Y-78701474D02*
X122723142Y-78758617D01*
X122723142Y-78758617D02*
X122723142Y-78815760D01*
X122723142Y-78815760D02*
X122694571Y-78901474D01*
X122694571Y-78901474D02*
X122351714Y-79244331D01*
X122351714Y-79244331D02*
X122723142Y-79244331D01*
X113879188Y-68743428D02*
X113907760Y-68772000D01*
X113907760Y-68772000D02*
X113936331Y-68857714D01*
X113936331Y-68857714D02*
X113936331Y-68914857D01*
X113936331Y-68914857D02*
X113907760Y-69000571D01*
X113907760Y-69000571D02*
X113850617Y-69057714D01*
X113850617Y-69057714D02*
X113793474Y-69086285D01*
X113793474Y-69086285D02*
X113679188Y-69114857D01*
X113679188Y-69114857D02*
X113593474Y-69114857D01*
X113593474Y-69114857D02*
X113479188Y-69086285D01*
X113479188Y-69086285D02*
X113422045Y-69057714D01*
X113422045Y-69057714D02*
X113364902Y-69000571D01*
X113364902Y-69000571D02*
X113336331Y-68914857D01*
X113336331Y-68914857D02*
X113336331Y-68857714D01*
X113336331Y-68857714D02*
X113364902Y-68772000D01*
X113364902Y-68772000D02*
X113393474Y-68743428D01*
X113936331Y-68172000D02*
X113936331Y-68514857D01*
X113936331Y-68343428D02*
X113336331Y-68343428D01*
X113336331Y-68343428D02*
X113422045Y-68400571D01*
X113422045Y-68400571D02*
X113479188Y-68457714D01*
X113479188Y-68457714D02*
X113507760Y-68514857D01*
X113336331Y-67800571D02*
X113336331Y-67743428D01*
X113336331Y-67743428D02*
X113364902Y-67686285D01*
X113364902Y-67686285D02*
X113393474Y-67657714D01*
X113393474Y-67657714D02*
X113450617Y-67629142D01*
X113450617Y-67629142D02*
X113564902Y-67600571D01*
X113564902Y-67600571D02*
X113707760Y-67600571D01*
X113707760Y-67600571D02*
X113822045Y-67629142D01*
X113822045Y-67629142D02*
X113879188Y-67657714D01*
X113879188Y-67657714D02*
X113907760Y-67686285D01*
X113907760Y-67686285D02*
X113936331Y-67743428D01*
X113936331Y-67743428D02*
X113936331Y-67800571D01*
X113936331Y-67800571D02*
X113907760Y-67857714D01*
X113907760Y-67857714D02*
X113879188Y-67886285D01*
X113879188Y-67886285D02*
X113822045Y-67914856D01*
X113822045Y-67914856D02*
X113707760Y-67943428D01*
X113707760Y-67943428D02*
X113564902Y-67943428D01*
X113564902Y-67943428D02*
X113450617Y-67914856D01*
X113450617Y-67914856D02*
X113393474Y-67886285D01*
X113393474Y-67886285D02*
X113364902Y-67857714D01*
X113364902Y-67857714D02*
X113336331Y-67800571D01*
X113936331Y-67029142D02*
X113936331Y-67371999D01*
X113936331Y-67200570D02*
X113336331Y-67200570D01*
X113336331Y-67200570D02*
X113422045Y-67257713D01*
X113422045Y-67257713D02*
X113479188Y-67314856D01*
X113479188Y-67314856D02*
X113507760Y-67371999D01*
X119724571Y-85996331D02*
X119524571Y-85710617D01*
X119381714Y-85996331D02*
X119381714Y-85396331D01*
X119381714Y-85396331D02*
X119610285Y-85396331D01*
X119610285Y-85396331D02*
X119667428Y-85424902D01*
X119667428Y-85424902D02*
X119695999Y-85453474D01*
X119695999Y-85453474D02*
X119724571Y-85510617D01*
X119724571Y-85510617D02*
X119724571Y-85596331D01*
X119724571Y-85596331D02*
X119695999Y-85653474D01*
X119695999Y-85653474D02*
X119667428Y-85682045D01*
X119667428Y-85682045D02*
X119610285Y-85710617D01*
X119610285Y-85710617D02*
X119381714Y-85710617D01*
X120295999Y-85996331D02*
X119953142Y-85996331D01*
X120124571Y-85996331D02*
X120124571Y-85396331D01*
X120124571Y-85396331D02*
X120067428Y-85482045D01*
X120067428Y-85482045D02*
X120010285Y-85539188D01*
X120010285Y-85539188D02*
X119953142Y-85567760D01*
X120667428Y-85396331D02*
X120724571Y-85396331D01*
X120724571Y-85396331D02*
X120781714Y-85424902D01*
X120781714Y-85424902D02*
X120810286Y-85453474D01*
X120810286Y-85453474D02*
X120838857Y-85510617D01*
X120838857Y-85510617D02*
X120867428Y-85624902D01*
X120867428Y-85624902D02*
X120867428Y-85767760D01*
X120867428Y-85767760D02*
X120838857Y-85882045D01*
X120838857Y-85882045D02*
X120810286Y-85939188D01*
X120810286Y-85939188D02*
X120781714Y-85967760D01*
X120781714Y-85967760D02*
X120724571Y-85996331D01*
X120724571Y-85996331D02*
X120667428Y-85996331D01*
X120667428Y-85996331D02*
X120610286Y-85967760D01*
X120610286Y-85967760D02*
X120581714Y-85939188D01*
X120581714Y-85939188D02*
X120553143Y-85882045D01*
X120553143Y-85882045D02*
X120524571Y-85767760D01*
X120524571Y-85767760D02*
X120524571Y-85624902D01*
X120524571Y-85624902D02*
X120553143Y-85510617D01*
X120553143Y-85510617D02*
X120581714Y-85453474D01*
X120581714Y-85453474D02*
X120610286Y-85424902D01*
X120610286Y-85424902D02*
X120667428Y-85396331D01*
X121096000Y-85453474D02*
X121124572Y-85424902D01*
X121124572Y-85424902D02*
X121181715Y-85396331D01*
X121181715Y-85396331D02*
X121324572Y-85396331D01*
X121324572Y-85396331D02*
X121381715Y-85424902D01*
X121381715Y-85424902D02*
X121410286Y-85453474D01*
X121410286Y-85453474D02*
X121438857Y-85510617D01*
X121438857Y-85510617D02*
X121438857Y-85567760D01*
X121438857Y-85567760D02*
X121410286Y-85653474D01*
X121410286Y-85653474D02*
X121067429Y-85996331D01*
X121067429Y-85996331D02*
X121438857Y-85996331D01*
X123153571Y-85939188D02*
X123124999Y-85967760D01*
X123124999Y-85967760D02*
X123039285Y-85996331D01*
X123039285Y-85996331D02*
X122982142Y-85996331D01*
X122982142Y-85996331D02*
X122896428Y-85967760D01*
X122896428Y-85967760D02*
X122839285Y-85910617D01*
X122839285Y-85910617D02*
X122810714Y-85853474D01*
X122810714Y-85853474D02*
X122782142Y-85739188D01*
X122782142Y-85739188D02*
X122782142Y-85653474D01*
X122782142Y-85653474D02*
X122810714Y-85539188D01*
X122810714Y-85539188D02*
X122839285Y-85482045D01*
X122839285Y-85482045D02*
X122896428Y-85424902D01*
X122896428Y-85424902D02*
X122982142Y-85396331D01*
X122982142Y-85396331D02*
X123039285Y-85396331D01*
X123039285Y-85396331D02*
X123124999Y-85424902D01*
X123124999Y-85424902D02*
X123153571Y-85453474D01*
X123724999Y-85996331D02*
X123382142Y-85996331D01*
X123553571Y-85996331D02*
X123553571Y-85396331D01*
X123553571Y-85396331D02*
X123496428Y-85482045D01*
X123496428Y-85482045D02*
X123439285Y-85539188D01*
X123439285Y-85539188D02*
X123382142Y-85567760D01*
X124096428Y-85396331D02*
X124153571Y-85396331D01*
X124153571Y-85396331D02*
X124210714Y-85424902D01*
X124210714Y-85424902D02*
X124239286Y-85453474D01*
X124239286Y-85453474D02*
X124267857Y-85510617D01*
X124267857Y-85510617D02*
X124296428Y-85624902D01*
X124296428Y-85624902D02*
X124296428Y-85767760D01*
X124296428Y-85767760D02*
X124267857Y-85882045D01*
X124267857Y-85882045D02*
X124239286Y-85939188D01*
X124239286Y-85939188D02*
X124210714Y-85967760D01*
X124210714Y-85967760D02*
X124153571Y-85996331D01*
X124153571Y-85996331D02*
X124096428Y-85996331D01*
X124096428Y-85996331D02*
X124039286Y-85967760D01*
X124039286Y-85967760D02*
X124010714Y-85939188D01*
X124010714Y-85939188D02*
X123982143Y-85882045D01*
X123982143Y-85882045D02*
X123953571Y-85767760D01*
X123953571Y-85767760D02*
X123953571Y-85624902D01*
X123953571Y-85624902D02*
X123982143Y-85510617D01*
X123982143Y-85510617D02*
X124010714Y-85453474D01*
X124010714Y-85453474D02*
X124039286Y-85424902D01*
X124039286Y-85424902D02*
X124096428Y-85396331D01*
X124496429Y-85396331D02*
X124896429Y-85396331D01*
X124896429Y-85396331D02*
X124639286Y-85996331D01*
X128828331Y-81443428D02*
X128542617Y-81643428D01*
X128828331Y-81786285D02*
X128228331Y-81786285D01*
X128228331Y-81786285D02*
X128228331Y-81557714D01*
X128228331Y-81557714D02*
X128256902Y-81500571D01*
X128256902Y-81500571D02*
X128285474Y-81472000D01*
X128285474Y-81472000D02*
X128342617Y-81443428D01*
X128342617Y-81443428D02*
X128428331Y-81443428D01*
X128428331Y-81443428D02*
X128485474Y-81472000D01*
X128485474Y-81472000D02*
X128514045Y-81500571D01*
X128514045Y-81500571D02*
X128542617Y-81557714D01*
X128542617Y-81557714D02*
X128542617Y-81786285D01*
X128828331Y-80872000D02*
X128828331Y-81214857D01*
X128828331Y-81043428D02*
X128228331Y-81043428D01*
X128228331Y-81043428D02*
X128314045Y-81100571D01*
X128314045Y-81100571D02*
X128371188Y-81157714D01*
X128371188Y-81157714D02*
X128399760Y-81214857D01*
X128228331Y-80500571D02*
X128228331Y-80443428D01*
X128228331Y-80443428D02*
X128256902Y-80386285D01*
X128256902Y-80386285D02*
X128285474Y-80357714D01*
X128285474Y-80357714D02*
X128342617Y-80329142D01*
X128342617Y-80329142D02*
X128456902Y-80300571D01*
X128456902Y-80300571D02*
X128599760Y-80300571D01*
X128599760Y-80300571D02*
X128714045Y-80329142D01*
X128714045Y-80329142D02*
X128771188Y-80357714D01*
X128771188Y-80357714D02*
X128799760Y-80386285D01*
X128799760Y-80386285D02*
X128828331Y-80443428D01*
X128828331Y-80443428D02*
X128828331Y-80500571D01*
X128828331Y-80500571D02*
X128799760Y-80557714D01*
X128799760Y-80557714D02*
X128771188Y-80586285D01*
X128771188Y-80586285D02*
X128714045Y-80614856D01*
X128714045Y-80614856D02*
X128599760Y-80643428D01*
X128599760Y-80643428D02*
X128456902Y-80643428D01*
X128456902Y-80643428D02*
X128342617Y-80614856D01*
X128342617Y-80614856D02*
X128285474Y-80586285D01*
X128285474Y-80586285D02*
X128256902Y-80557714D01*
X128256902Y-80557714D02*
X128228331Y-80500571D01*
X128228331Y-79786285D02*
X128228331Y-79900570D01*
X128228331Y-79900570D02*
X128256902Y-79957713D01*
X128256902Y-79957713D02*
X128285474Y-79986285D01*
X128285474Y-79986285D02*
X128371188Y-80043427D01*
X128371188Y-80043427D02*
X128485474Y-80071999D01*
X128485474Y-80071999D02*
X128714045Y-80071999D01*
X128714045Y-80071999D02*
X128771188Y-80043427D01*
X128771188Y-80043427D02*
X128799760Y-80014856D01*
X128799760Y-80014856D02*
X128828331Y-79957713D01*
X128828331Y-79957713D02*
X128828331Y-79843427D01*
X128828331Y-79843427D02*
X128799760Y-79786285D01*
X128799760Y-79786285D02*
X128771188Y-79757713D01*
X128771188Y-79757713D02*
X128714045Y-79729142D01*
X128714045Y-79729142D02*
X128571188Y-79729142D01*
X128571188Y-79729142D02*
X128514045Y-79757713D01*
X128514045Y-79757713D02*
X128485474Y-79786285D01*
X128485474Y-79786285D02*
X128456902Y-79843427D01*
X128456902Y-79843427D02*
X128456902Y-79957713D01*
X128456902Y-79957713D02*
X128485474Y-80014856D01*
X128485474Y-80014856D02*
X128514045Y-80043427D01*
X128514045Y-80043427D02*
X128571188Y-80071999D01*
X119470571Y-69105331D02*
X119270571Y-68819617D01*
X119127714Y-69105331D02*
X119127714Y-68505331D01*
X119127714Y-68505331D02*
X119356285Y-68505331D01*
X119356285Y-68505331D02*
X119413428Y-68533902D01*
X119413428Y-68533902D02*
X119441999Y-68562474D01*
X119441999Y-68562474D02*
X119470571Y-68619617D01*
X119470571Y-68619617D02*
X119470571Y-68705331D01*
X119470571Y-68705331D02*
X119441999Y-68762474D01*
X119441999Y-68762474D02*
X119413428Y-68791045D01*
X119413428Y-68791045D02*
X119356285Y-68819617D01*
X119356285Y-68819617D02*
X119127714Y-68819617D01*
X120041999Y-69105331D02*
X119699142Y-69105331D01*
X119870571Y-69105331D02*
X119870571Y-68505331D01*
X119870571Y-68505331D02*
X119813428Y-68591045D01*
X119813428Y-68591045D02*
X119756285Y-68648188D01*
X119756285Y-68648188D02*
X119699142Y-68676760D01*
X120413428Y-68505331D02*
X120470571Y-68505331D01*
X120470571Y-68505331D02*
X120527714Y-68533902D01*
X120527714Y-68533902D02*
X120556286Y-68562474D01*
X120556286Y-68562474D02*
X120584857Y-68619617D01*
X120584857Y-68619617D02*
X120613428Y-68733902D01*
X120613428Y-68733902D02*
X120613428Y-68876760D01*
X120613428Y-68876760D02*
X120584857Y-68991045D01*
X120584857Y-68991045D02*
X120556286Y-69048188D01*
X120556286Y-69048188D02*
X120527714Y-69076760D01*
X120527714Y-69076760D02*
X120470571Y-69105331D01*
X120470571Y-69105331D02*
X120413428Y-69105331D01*
X120413428Y-69105331D02*
X120356286Y-69076760D01*
X120356286Y-69076760D02*
X120327714Y-69048188D01*
X120327714Y-69048188D02*
X120299143Y-68991045D01*
X120299143Y-68991045D02*
X120270571Y-68876760D01*
X120270571Y-68876760D02*
X120270571Y-68733902D01*
X120270571Y-68733902D02*
X120299143Y-68619617D01*
X120299143Y-68619617D02*
X120327714Y-68562474D01*
X120327714Y-68562474D02*
X120356286Y-68533902D01*
X120356286Y-68533902D02*
X120413428Y-68505331D01*
X121184857Y-69105331D02*
X120842000Y-69105331D01*
X121013429Y-69105331D02*
X121013429Y-68505331D01*
X121013429Y-68505331D02*
X120956286Y-68591045D01*
X120956286Y-68591045D02*
X120899143Y-68648188D01*
X120899143Y-68648188D02*
X120842000Y-68676760D01*
G04 #@! TO.C,C105*
X123424733Y-69594000D02*
X123717267Y-69594000D01*
X123424733Y-70614000D02*
X123717267Y-70614000D01*
G04 #@! TO.C,J105*
X140230000Y-54360000D02*
X141500000Y-54360000D01*
X140230000Y-55630000D02*
X140230000Y-54360000D01*
X142542929Y-57790000D02*
X142997071Y-57790000D01*
X142542929Y-58550000D02*
X142997071Y-58550000D01*
X142542929Y-60330000D02*
X142997071Y-60330000D01*
X142542929Y-61090000D02*
X142997071Y-61090000D01*
X142542929Y-62870000D02*
X142997071Y-62870000D01*
X142542929Y-63630000D02*
X142997071Y-63630000D01*
X142542929Y-65410000D02*
X142997071Y-65410000D01*
X142542929Y-66170000D02*
X142997071Y-66170000D01*
X142542929Y-67950000D02*
X142997071Y-67950000D01*
X142542929Y-68710000D02*
X142997071Y-68710000D01*
X142610000Y-55250000D02*
X142997071Y-55250000D01*
X142610000Y-56010000D02*
X142997071Y-56010000D01*
X145082929Y-55250000D02*
X145480000Y-55250000D01*
X145082929Y-56010000D02*
X145480000Y-56010000D01*
X145082929Y-57790000D02*
X145480000Y-57790000D01*
X145082929Y-58550000D02*
X145480000Y-58550000D01*
X145082929Y-60330000D02*
X145480000Y-60330000D01*
X145082929Y-61090000D02*
X145480000Y-61090000D01*
X145082929Y-62870000D02*
X145480000Y-62870000D01*
X145082929Y-63630000D02*
X145480000Y-63630000D01*
X145082929Y-65410000D02*
X145480000Y-65410000D01*
X145082929Y-66170000D02*
X145480000Y-66170000D01*
X145082929Y-67950000D02*
X145480000Y-67950000D01*
X145082929Y-68710000D02*
X145480000Y-68710000D01*
X145480000Y-54300000D02*
X145480000Y-69660000D01*
X145480000Y-56900000D02*
X148140000Y-56900000D01*
X145480000Y-59440000D02*
X148140000Y-59440000D01*
X145480000Y-61980000D02*
X148140000Y-61980000D01*
X145480000Y-64520000D02*
X148140000Y-64520000D01*
X145480000Y-67060000D02*
X148140000Y-67060000D01*
X145480000Y-69660000D02*
X148140000Y-69660000D01*
X148140000Y-54300000D02*
X145480000Y-54300000D01*
X148140000Y-55250000D02*
X154140000Y-55250000D01*
X148140000Y-55310000D02*
X154140000Y-55310000D01*
X148140000Y-55430000D02*
X154140000Y-55430000D01*
X148140000Y-55550000D02*
X154140000Y-55550000D01*
X148140000Y-55670000D02*
X154140000Y-55670000D01*
X148140000Y-55790000D02*
X154140000Y-55790000D01*
X148140000Y-55910000D02*
X154140000Y-55910000D01*
X148140000Y-57790000D02*
X154140000Y-57790000D01*
X148140000Y-60330000D02*
X154140000Y-60330000D01*
X148140000Y-62870000D02*
X154140000Y-62870000D01*
X148140000Y-65410000D02*
X154140000Y-65410000D01*
X148140000Y-67950000D02*
X154140000Y-67950000D01*
X148140000Y-69660000D02*
X148140000Y-54300000D01*
X154140000Y-55250000D02*
X154140000Y-56010000D01*
X154140000Y-56010000D02*
X148140000Y-56010000D01*
X154140000Y-57790000D02*
X154140000Y-58550000D01*
X154140000Y-58550000D02*
X148140000Y-58550000D01*
X154140000Y-60330000D02*
X154140000Y-61090000D01*
X154140000Y-61090000D02*
X148140000Y-61090000D01*
X154140000Y-62870000D02*
X154140000Y-63630000D01*
X154140000Y-63630000D02*
X148140000Y-63630000D01*
X154140000Y-65410000D02*
X154140000Y-66170000D01*
X154140000Y-66170000D02*
X148140000Y-66170000D01*
X154140000Y-67950000D02*
X154140000Y-68710000D01*
X154140000Y-68710000D02*
X148140000Y-68710000D01*
G04 #@! TO.C,C110*
X130021000Y-56253748D02*
X130021000Y-56776252D01*
X128551000Y-56253748D02*
X128551000Y-56776252D01*
G04 #@! TO.C,C102*
X115699000Y-84943733D02*
X115699000Y-85236267D01*
X114679000Y-84943733D02*
X114679000Y-85236267D01*
G04 #@! TO.C,J101*
X102810000Y-57090000D02*
X104140000Y-57090000D01*
X102810000Y-58420000D02*
X102810000Y-57090000D01*
X102810000Y-59690000D02*
X102810000Y-59750000D01*
X102810000Y-59690000D02*
X105470000Y-59690000D01*
X102810000Y-59750000D02*
X105470000Y-59750000D01*
X105470000Y-59690000D02*
X105470000Y-59750000D01*
G04 #@! TO.C,R104*
X126604500Y-85979724D02*
X126604500Y-85470276D01*
X127649500Y-85979724D02*
X127649500Y-85470276D01*
G04 #@! TO.C,J104*
X102810000Y-87570000D02*
X104140000Y-87570000D01*
X102810000Y-88900000D02*
X102810000Y-87570000D01*
X102810000Y-90170000D02*
X102810000Y-90230000D01*
X102810000Y-90170000D02*
X105470000Y-90170000D01*
X102810000Y-90230000D02*
X105470000Y-90230000D01*
X105470000Y-90170000D02*
X105470000Y-90230000D01*
G04 #@! TO.C,C104*
X115699000Y-80371733D02*
X115699000Y-80664267D01*
X114679000Y-80371733D02*
X114679000Y-80664267D01*
G04 #@! TO.C,R105*
X127649500Y-63626276D02*
X127649500Y-64135724D01*
X126604500Y-63626276D02*
X126604500Y-64135724D01*
G04 #@! TO.C,C103*
X115445000Y-63353733D02*
X115445000Y-63646267D01*
X114425000Y-63353733D02*
X114425000Y-63646267D01*
G04 #@! TO.C,R103*
X126604500Y-68961724D02*
X126604500Y-68452276D01*
X127649500Y-68961724D02*
X127649500Y-68452276D01*
G04 #@! TO.C,J106*
X140230000Y-75050000D02*
X141500000Y-75050000D01*
X140230000Y-76320000D02*
X140230000Y-75050000D01*
X142542929Y-78480000D02*
X142997071Y-78480000D01*
X142542929Y-79240000D02*
X142997071Y-79240000D01*
X142542929Y-81020000D02*
X142997071Y-81020000D01*
X142542929Y-81780000D02*
X142997071Y-81780000D01*
X142542929Y-83560000D02*
X142997071Y-83560000D01*
X142542929Y-84320000D02*
X142997071Y-84320000D01*
X142542929Y-86100000D02*
X142997071Y-86100000D01*
X142542929Y-86860000D02*
X142997071Y-86860000D01*
X142542929Y-88640000D02*
X142997071Y-88640000D01*
X142542929Y-89400000D02*
X142997071Y-89400000D01*
X142610000Y-75940000D02*
X142997071Y-75940000D01*
X142610000Y-76700000D02*
X142997071Y-76700000D01*
X145082929Y-75940000D02*
X145480000Y-75940000D01*
X145082929Y-76700000D02*
X145480000Y-76700000D01*
X145082929Y-78480000D02*
X145480000Y-78480000D01*
X145082929Y-79240000D02*
X145480000Y-79240000D01*
X145082929Y-81020000D02*
X145480000Y-81020000D01*
X145082929Y-81780000D02*
X145480000Y-81780000D01*
X145082929Y-83560000D02*
X145480000Y-83560000D01*
X145082929Y-84320000D02*
X145480000Y-84320000D01*
X145082929Y-86100000D02*
X145480000Y-86100000D01*
X145082929Y-86860000D02*
X145480000Y-86860000D01*
X145082929Y-88640000D02*
X145480000Y-88640000D01*
X145082929Y-89400000D02*
X145480000Y-89400000D01*
X145480000Y-74990000D02*
X145480000Y-90350000D01*
X145480000Y-77590000D02*
X148140000Y-77590000D01*
X145480000Y-80130000D02*
X148140000Y-80130000D01*
X145480000Y-82670000D02*
X148140000Y-82670000D01*
X145480000Y-85210000D02*
X148140000Y-85210000D01*
X145480000Y-87750000D02*
X148140000Y-87750000D01*
X145480000Y-90350000D02*
X148140000Y-90350000D01*
X148140000Y-74990000D02*
X145480000Y-74990000D01*
X148140000Y-75940000D02*
X154140000Y-75940000D01*
X148140000Y-76000000D02*
X154140000Y-76000000D01*
X148140000Y-76120000D02*
X154140000Y-76120000D01*
X148140000Y-76240000D02*
X154140000Y-76240000D01*
X148140000Y-76360000D02*
X154140000Y-76360000D01*
X148140000Y-76480000D02*
X154140000Y-76480000D01*
X148140000Y-76600000D02*
X154140000Y-76600000D01*
X148140000Y-78480000D02*
X154140000Y-78480000D01*
X148140000Y-81020000D02*
X154140000Y-81020000D01*
X148140000Y-83560000D02*
X154140000Y-83560000D01*
X148140000Y-86100000D02*
X154140000Y-86100000D01*
X148140000Y-88640000D02*
X154140000Y-88640000D01*
X148140000Y-90350000D02*
X148140000Y-74990000D01*
X154140000Y-75940000D02*
X154140000Y-76700000D01*
X154140000Y-76700000D02*
X148140000Y-76700000D01*
X154140000Y-78480000D02*
X154140000Y-79240000D01*
X154140000Y-79240000D02*
X148140000Y-79240000D01*
X154140000Y-81020000D02*
X154140000Y-81780000D01*
X154140000Y-81780000D02*
X148140000Y-81780000D01*
X154140000Y-83560000D02*
X154140000Y-84320000D01*
X154140000Y-84320000D02*
X148140000Y-84320000D01*
X154140000Y-86100000D02*
X154140000Y-86860000D01*
X154140000Y-86860000D02*
X148140000Y-86860000D01*
X154140000Y-88640000D02*
X154140000Y-89400000D01*
X154140000Y-89400000D02*
X148140000Y-89400000D01*
G04 #@! TO.C,J103*
X102810000Y-77410000D02*
X104140000Y-77410000D01*
X102810000Y-78740000D02*
X102810000Y-77410000D01*
X102810000Y-80010000D02*
X102810000Y-80070000D01*
X102810000Y-80010000D02*
X105470000Y-80010000D01*
X102810000Y-80070000D02*
X105470000Y-80070000D01*
X105470000Y-80010000D02*
X105470000Y-80070000D01*
G04 #@! TO.C,C106*
X123309748Y-72163000D02*
X123832252Y-72163000D01*
X123309748Y-73633000D02*
X123832252Y-73633000D01*
G04 #@! TO.C,U101*
X121412000Y-62765000D02*
X117812000Y-62765000D01*
X121412000Y-62765000D02*
X123612000Y-62765000D01*
X121412000Y-68235000D02*
X119212000Y-68235000D01*
X121412000Y-68235000D02*
X123612000Y-68235000D01*
G04 #@! TO.C,J102*
X102810000Y-67250000D02*
X104140000Y-67250000D01*
X102810000Y-68580000D02*
X102810000Y-67250000D01*
X102810000Y-69850000D02*
X102810000Y-69910000D01*
X102810000Y-69850000D02*
X105470000Y-69850000D01*
X102810000Y-69910000D02*
X105470000Y-69910000D01*
X105470000Y-69850000D02*
X105470000Y-69910000D01*
G04 #@! TO.C,C108*
X123563748Y-89054000D02*
X124086252Y-89054000D01*
X123563748Y-90524000D02*
X124086252Y-90524000D01*
G04 #@! TO.C,U103*
X133669000Y-55355000D02*
X132269000Y-55355000D01*
X132269000Y-57675000D02*
X134169000Y-57675000D01*
G04 #@! TO.C,C109*
X136015000Y-53232267D02*
X136015000Y-52939733D01*
X137035000Y-53232267D02*
X137035000Y-52939733D01*
G04 #@! TO.C,R107*
X137047500Y-56260276D02*
X137047500Y-56769724D01*
X136002500Y-56260276D02*
X136002500Y-56769724D01*
G04 #@! TO.C,U102*
X121666000Y-79688000D02*
X118066000Y-79688000D01*
X121666000Y-79688000D02*
X123866000Y-79688000D01*
X121666000Y-85158000D02*
X119466000Y-85158000D01*
X121666000Y-85158000D02*
X123866000Y-85158000D01*
G04 #@! TO.C,C101*
X115445000Y-67925733D02*
X115445000Y-68218267D01*
X114425000Y-67925733D02*
X114425000Y-68218267D01*
G04 #@! TO.C,R102*
X120141276Y-86472500D02*
X120650724Y-86472500D01*
X120141276Y-87517500D02*
X120650724Y-87517500D01*
G04 #@! TO.C,C107*
X123678733Y-86485000D02*
X123971267Y-86485000D01*
X123678733Y-87505000D02*
X123971267Y-87505000D01*
G04 #@! TO.C,R106*
X127649500Y-80517276D02*
X127649500Y-81026724D01*
X126604500Y-80517276D02*
X126604500Y-81026724D01*
G04 #@! TO.C,R101*
X119887276Y-69581500D02*
X120396724Y-69581500D01*
X119887276Y-70626500D02*
X120396724Y-70626500D01*
G04 #@! TD*
M02*
