M48
; DRILL file {KiCad 7.0.6} date Fri 11 Aug 2023 12:36:37 AM CEST
; FORMAT={-:-/ absolute / inch / decimal}
; #@! TF.CreationDate,2023-08-11T00:36:37+02:00
; #@! TF.GenerationSoftware,Kicad,Pcbnew,7.0.6
; #@! TF.FileFunction,Plated,1,2,PTH
FMAT,2
INCH
; #@! TA.AperFunction,Plated,PTH,ViaDrill
T1C0.0079
; #@! TA.AperFunction,Plated,PTH,ComponentDrill
T2C0.0394
%
G90
G05
T1
X4.6063Y-2.7087
X4.6143Y-3.1757
X4.62Y-2.515
X4.6535Y-3.378
X4.725Y-2.49
X4.725Y-2.54
X4.725Y-2.59
X4.73Y-3.155
X4.73Y-3.205
X4.73Y-3.255
X5.005Y-2.45
X5.005Y-2.77
X5.005Y-3.115
X5.005Y-3.44
X5.09Y-2.155
X5.155Y-2.225
X5.325Y-2.225
T2
X4.1Y-2.3
X4.1Y-2.7
X4.1Y-3.1
X4.1Y-3.5
X5.5709Y-2.1902
X5.5709Y-2.2902
X5.5709Y-2.3902
X5.5709Y-2.4902
X5.5709Y-2.5902
X5.5709Y-2.6902
X5.5709Y-3.0047
X5.5709Y-3.1047
X5.5709Y-3.2047
X5.5709Y-3.3047
X5.5709Y-3.4047
X5.5709Y-3.5047
X5.6709Y-2.1902
X5.6709Y-2.2902
X5.6709Y-2.3902
X5.6709Y-2.4902
X5.6709Y-2.5902
X5.6709Y-2.6902
X5.6709Y-3.0047
X5.6709Y-3.1047
X5.6709Y-3.2047
X5.6709Y-3.3047
X5.6709Y-3.4047
X5.6709Y-3.5047
T0
M30
