G04 #@! TF.GenerationSoftware,KiCad,Pcbnew,7.0.6*
G04 #@! TF.CreationDate,2023-08-11T00:36:40+02:00*
G04 #@! TF.ProjectId,ADS868_Test,41445338-3638-45f5-9465-73742e6b6963,rev?*
G04 #@! TF.SameCoordinates,Original*
G04 #@! TF.FileFunction,Copper,L2,Bot*
G04 #@! TF.FilePolarity,Positive*
%FSLAX46Y46*%
G04 Gerber Fmt 4.6, Leading zero omitted, Abs format (unit mm)*
G04 Created by KiCad (PCBNEW 7.0.6) date 2023-08-11 00:36:40*
%MOMM*%
%LPD*%
G01*
G04 APERTURE LIST*
G04 #@! TA.AperFunction,ComponentPad*
%ADD10R,1.700000X1.700000*%
G04 #@! TD*
G04 #@! TA.AperFunction,ComponentPad*
%ADD11O,1.700000X1.700000*%
G04 #@! TD*
G04 #@! TA.AperFunction,ViaPad*
%ADD12C,0.500000*%
G04 #@! TD*
G04 #@! TA.AperFunction,Conductor*
%ADD13C,1.247000*%
G04 #@! TD*
G04 APERTURE END LIST*
D10*
G04 #@! TO.P,J105,1,Pin_1*
G04 #@! TO.N,+3V3*
X141500000Y-55630000D03*
D11*
G04 #@! TO.P,J105,2,Pin_2*
X144040000Y-55630000D03*
G04 #@! TO.P,J105,3,Pin_3*
G04 #@! TO.N,GND*
X141500000Y-58170000D03*
G04 #@! TO.P,J105,4,Pin_4*
X144040000Y-58170000D03*
G04 #@! TO.P,J105,5,Pin_5*
G04 #@! TO.N,/ADC1_RVS*
X141500000Y-60710000D03*
G04 #@! TO.P,J105,6,Pin_6*
G04 #@! TO.N,/ADC1_SDO-1*
X144040000Y-60710000D03*
G04 #@! TO.P,J105,7,Pin_7*
G04 #@! TO.N,/ADC1_SDO-0*
X141500000Y-63250000D03*
G04 #@! TO.P,J105,8,Pin_8*
G04 #@! TO.N,/ADC1_SCLK*
X144040000Y-63250000D03*
G04 #@! TO.P,J105,9,Pin_9*
G04 #@! TO.N,/ADC1_~{CS}*
X141500000Y-65790000D03*
G04 #@! TO.P,J105,10,Pin_10*
G04 #@! TO.N,/ADC1_SDI*
X144040000Y-65790000D03*
G04 #@! TO.P,J105,11,Pin_11*
G04 #@! TO.N,unconnected-(J105-Pin_11-Pad11)*
X141500000Y-68330000D03*
G04 #@! TO.P,J105,12,Pin_12*
G04 #@! TO.N,unconnected-(J105-Pin_12-Pad12)*
X144040000Y-68330000D03*
G04 #@! TD*
D10*
G04 #@! TO.P,J101,1,Pin_1*
G04 #@! TO.N,Net-(J101-Pin_1)*
X104140000Y-58420000D03*
G04 #@! TD*
G04 #@! TO.P,J104,1,Pin_1*
G04 #@! TO.N,GND*
X104140000Y-88900000D03*
G04 #@! TD*
G04 #@! TO.P,J106,1,Pin_1*
G04 #@! TO.N,+3V3*
X141500000Y-76320000D03*
D11*
G04 #@! TO.P,J106,2,Pin_2*
X144040000Y-76320000D03*
G04 #@! TO.P,J106,3,Pin_3*
G04 #@! TO.N,GND*
X141500000Y-78860000D03*
G04 #@! TO.P,J106,4,Pin_4*
X144040000Y-78860000D03*
G04 #@! TO.P,J106,5,Pin_5*
G04 #@! TO.N,/ADC2_RVS*
X141500000Y-81400000D03*
G04 #@! TO.P,J106,6,Pin_6*
G04 #@! TO.N,/ADC2_SDO-1*
X144040000Y-81400000D03*
G04 #@! TO.P,J106,7,Pin_7*
G04 #@! TO.N,/ADC2_SDO-0*
X141500000Y-83940000D03*
G04 #@! TO.P,J106,8,Pin_8*
G04 #@! TO.N,/ADC2_SCLK*
X144040000Y-83940000D03*
G04 #@! TO.P,J106,9,Pin_9*
G04 #@! TO.N,/ADC2_~{CS}*
X141500000Y-86480000D03*
G04 #@! TO.P,J106,10,Pin_10*
G04 #@! TO.N,/ADC2_SDI*
X144040000Y-86480000D03*
G04 #@! TO.P,J106,11,Pin_11*
G04 #@! TO.N,unconnected-(J106-Pin_11-Pad11)*
X141500000Y-89020000D03*
G04 #@! TO.P,J106,12,Pin_12*
G04 #@! TO.N,unconnected-(J106-Pin_12-Pad12)*
X144040000Y-89020000D03*
G04 #@! TD*
D10*
G04 #@! TO.P,J103,1,Pin_1*
G04 #@! TO.N,Net-(J103-Pin_1)*
X104140000Y-78740000D03*
G04 #@! TD*
G04 #@! TO.P,J102,1,Pin_1*
G04 #@! TO.N,GND*
X104140000Y-68580000D03*
G04 #@! TD*
D12*
G04 #@! TO.N,+5V*
X129286000Y-54737000D03*
X117348000Y-63881000D03*
G04 #@! TO.N,GND*
X130937000Y-56515000D03*
X135255000Y-56515000D03*
G04 #@! TO.N,+3V3*
X127127000Y-62230000D03*
X127127000Y-70358000D03*
G04 #@! TO.N,+5V*
X117203000Y-80663000D03*
G04 #@! TO.N,+3V3*
X127127000Y-79121000D03*
X127127000Y-87376000D03*
G04 #@! TO.N,GND*
X117000000Y-68800000D03*
X120015000Y-63246000D03*
X120015000Y-64516000D03*
X120015000Y-65786000D03*
X120142000Y-80137000D03*
X120142000Y-81407000D03*
X120142000Y-82677000D03*
X118200000Y-85800000D03*
G04 #@! TD*
D13*
G04 #@! TO.N,+5V*
X117203000Y-80663000D02*
X117221000Y-80645000D01*
X117221000Y-80645000D02*
X117221000Y-73406000D01*
X117221000Y-73406000D02*
X118618000Y-72009000D01*
X118618000Y-72009000D02*
X118618000Y-66040000D01*
X118618000Y-66040000D02*
X117348000Y-64770000D01*
X117348000Y-64770000D02*
X117348000Y-63881000D01*
X129286000Y-54737000D02*
X120269000Y-54737000D01*
X120269000Y-54737000D02*
X117348000Y-57658000D01*
X117348000Y-57658000D02*
X117348000Y-63881000D01*
G04 #@! TO.N,+3V3*
X144040000Y-76320000D02*
X145422000Y-76320000D01*
X145422000Y-76320000D02*
X146558000Y-75184000D01*
X146558000Y-75184000D02*
X146558000Y-57023000D01*
X146558000Y-57023000D02*
X145165000Y-55630000D01*
X145165000Y-55630000D02*
X144040000Y-55630000D01*
X144040000Y-55630000D02*
X141500000Y-55630000D01*
X127127000Y-79121000D02*
X127127000Y-76200000D01*
X127127000Y-76200000D02*
X127127000Y-70358000D01*
X144040000Y-76320000D02*
X127247000Y-76320000D01*
X127247000Y-76320000D02*
X127127000Y-76200000D01*
X127127000Y-70358000D02*
X127127000Y-62230000D01*
X127127000Y-87376000D02*
X127127000Y-79121000D01*
G04 #@! TD*
G04 #@! TA.AperFunction,Conductor*
G04 #@! TO.N,GND*
G36*
X147264306Y-51018306D02*
G01*
X147481694Y-51235694D01*
X147500000Y-51279888D01*
X147500000Y-56687770D01*
X147481694Y-56731964D01*
X147437500Y-56750270D01*
X147393306Y-56731964D01*
X147378272Y-56707727D01*
X147359550Y-56652164D01*
X147356418Y-56646959D01*
X147351304Y-56636287D01*
X147349213Y-56630594D01*
X147304192Y-56560159D01*
X147303078Y-56558307D01*
X147261092Y-56488525D01*
X147261090Y-56488522D01*
X147256916Y-56484115D01*
X147249633Y-56474799D01*
X147246365Y-56469687D01*
X147246361Y-56469682D01*
X147246360Y-56469680D01*
X147187236Y-56410556D01*
X147129757Y-56349875D01*
X147124731Y-56346468D01*
X147115612Y-56338932D01*
X145811977Y-55035298D01*
X145810256Y-55033432D01*
X145772360Y-54988817D01*
X145705797Y-54938217D01*
X145640651Y-54885851D01*
X145640649Y-54885850D01*
X145635206Y-54883150D01*
X145625161Y-54876919D01*
X145620325Y-54873243D01*
X145544455Y-54838142D01*
X145469561Y-54800997D01*
X145469556Y-54800996D01*
X145463659Y-54799529D01*
X145452508Y-54795603D01*
X145447002Y-54793056D01*
X145447000Y-54793055D01*
X145365361Y-54775084D01*
X145284227Y-54754907D01*
X145278156Y-54754743D01*
X145266418Y-54753305D01*
X145260489Y-54752000D01*
X145260488Y-54752000D01*
X145176891Y-54752000D01*
X145174742Y-54751941D01*
X145093324Y-54749735D01*
X145093322Y-54749736D01*
X145087361Y-54750880D01*
X145075582Y-54752000D01*
X144737851Y-54752000D01*
X144704949Y-54742639D01*
X144534427Y-54637056D01*
X144534425Y-54637055D01*
X144429781Y-54596516D01*
X144343556Y-54563112D01*
X144343553Y-54563111D01*
X144343552Y-54563111D01*
X144142351Y-54525500D01*
X144142347Y-54525500D01*
X143937653Y-54525500D01*
X143937648Y-54525500D01*
X143736447Y-54563111D01*
X143545574Y-54637055D01*
X143475092Y-54680696D01*
X143389498Y-54733694D01*
X143375051Y-54742639D01*
X143342149Y-54752000D01*
X142655208Y-54752000D01*
X142611014Y-54733694D01*
X142593909Y-54701691D01*
X142589734Y-54680701D01*
X142589734Y-54680699D01*
X142589732Y-54680696D01*
X142533484Y-54596515D01*
X142449302Y-54540266D01*
X142449300Y-54540265D01*
X142375067Y-54525500D01*
X140624935Y-54525500D01*
X140624931Y-54525501D01*
X140550700Y-54540265D01*
X140550696Y-54540267D01*
X140466515Y-54596515D01*
X140410266Y-54680697D01*
X140410265Y-54680699D01*
X140395500Y-54754932D01*
X140395500Y-56505064D01*
X140395501Y-56505068D01*
X140410265Y-56579299D01*
X140410267Y-56579303D01*
X140466515Y-56663484D01*
X140550697Y-56719733D01*
X140550699Y-56719734D01*
X140624933Y-56734500D01*
X142375066Y-56734499D01*
X142449301Y-56719734D01*
X142533484Y-56663484D01*
X142589734Y-56579301D01*
X142593910Y-56558306D01*
X142620486Y-56518533D01*
X142655209Y-56508000D01*
X143342149Y-56508000D01*
X143375050Y-56517360D01*
X143545573Y-56622944D01*
X143736444Y-56696888D01*
X143937653Y-56734500D01*
X143937656Y-56734500D01*
X144142344Y-56734500D01*
X144142347Y-56734500D01*
X144343556Y-56696888D01*
X144534427Y-56622944D01*
X144704949Y-56517360D01*
X144737851Y-56508000D01*
X144775432Y-56508000D01*
X144819626Y-56526306D01*
X145661694Y-57368373D01*
X145680000Y-57412567D01*
X145680000Y-74794432D01*
X145661694Y-74838626D01*
X145076627Y-75423694D01*
X145032433Y-75442000D01*
X144737851Y-75442000D01*
X144704949Y-75432639D01*
X144703056Y-75431467D01*
X144534427Y-75327056D01*
X144534425Y-75327055D01*
X144429781Y-75286516D01*
X144343556Y-75253112D01*
X144343553Y-75253111D01*
X144343552Y-75253111D01*
X144142351Y-75215500D01*
X144142347Y-75215500D01*
X143937653Y-75215500D01*
X143937648Y-75215500D01*
X143736447Y-75253111D01*
X143545574Y-75327055D01*
X143475092Y-75370696D01*
X143389498Y-75423694D01*
X143375051Y-75432639D01*
X143342149Y-75442000D01*
X142655208Y-75442000D01*
X142611014Y-75423694D01*
X142593909Y-75391691D01*
X142589734Y-75370701D01*
X142589734Y-75370699D01*
X142589732Y-75370696D01*
X142533484Y-75286515D01*
X142449302Y-75230266D01*
X142449300Y-75230265D01*
X142375067Y-75215500D01*
X140624935Y-75215500D01*
X140624931Y-75215501D01*
X140550700Y-75230265D01*
X140550696Y-75230267D01*
X140466515Y-75286515D01*
X140410266Y-75370697D01*
X140410265Y-75370699D01*
X140406090Y-75391693D01*
X140379514Y-75431467D01*
X140344791Y-75442000D01*
X128067500Y-75442000D01*
X128023306Y-75423694D01*
X128005000Y-75379500D01*
X128005000Y-68330004D01*
X140390768Y-68330004D01*
X140409653Y-68533813D01*
X140409655Y-68533825D01*
X140465671Y-68730701D01*
X140465672Y-68730701D01*
X140556912Y-68913935D01*
X140556913Y-68913936D01*
X140556915Y-68913940D01*
X140680259Y-69077275D01*
X140680264Y-69077280D01*
X140680268Y-69077285D01*
X140782870Y-69170819D01*
X140831533Y-69215182D01*
X140831534Y-69215183D01*
X140831538Y-69215186D01*
X141005573Y-69322944D01*
X141196444Y-69396888D01*
X141397653Y-69434500D01*
X141397656Y-69434500D01*
X141602344Y-69434500D01*
X141602347Y-69434500D01*
X141803556Y-69396888D01*
X141994427Y-69322944D01*
X142168462Y-69215186D01*
X142319732Y-69077285D01*
X142443088Y-68913935D01*
X142534328Y-68730701D01*
X142590345Y-68533821D01*
X142590346Y-68533813D01*
X142609232Y-68330004D01*
X142930768Y-68330004D01*
X142949653Y-68533813D01*
X142949655Y-68533825D01*
X143005672Y-68730701D01*
X143096912Y-68913935D01*
X143096913Y-68913936D01*
X143096915Y-68913940D01*
X143220259Y-69077275D01*
X143220264Y-69077280D01*
X143220268Y-69077285D01*
X143322870Y-69170819D01*
X143371533Y-69215182D01*
X143371534Y-69215183D01*
X143371538Y-69215186D01*
X143545573Y-69322944D01*
X143736444Y-69396888D01*
X143937653Y-69434500D01*
X143937656Y-69434500D01*
X144142344Y-69434500D01*
X144142347Y-69434500D01*
X144343556Y-69396888D01*
X144534427Y-69322944D01*
X144708462Y-69215186D01*
X144859732Y-69077285D01*
X144983088Y-68913935D01*
X145074328Y-68730701D01*
X145130345Y-68533821D01*
X145130346Y-68533813D01*
X145149232Y-68330004D01*
X145149232Y-68329995D01*
X145130346Y-68126186D01*
X145130344Y-68126174D01*
X145109542Y-68053066D01*
X145074328Y-67929299D01*
X144983088Y-67746065D01*
X144983085Y-67746061D01*
X144983084Y-67746059D01*
X144859740Y-67582724D01*
X144859735Y-67582719D01*
X144859732Y-67582715D01*
X144764834Y-67496204D01*
X144708466Y-67444817D01*
X144708463Y-67444815D01*
X144708462Y-67444814D01*
X144534427Y-67337056D01*
X144534425Y-67337055D01*
X144478948Y-67315563D01*
X144343556Y-67263112D01*
X144343553Y-67263111D01*
X144343552Y-67263111D01*
X144142351Y-67225500D01*
X144142347Y-67225500D01*
X143937653Y-67225500D01*
X143937648Y-67225500D01*
X143736447Y-67263111D01*
X143545574Y-67337055D01*
X143371533Y-67444817D01*
X143220266Y-67582717D01*
X143220259Y-67582724D01*
X143096915Y-67746059D01*
X143096912Y-67746065D01*
X143005672Y-67929298D01*
X142949655Y-68126174D01*
X142949653Y-68126186D01*
X142930768Y-68329995D01*
X142930768Y-68330004D01*
X142609232Y-68330004D01*
X142609232Y-68329995D01*
X142590346Y-68126186D01*
X142590344Y-68126174D01*
X142569542Y-68053066D01*
X142534328Y-67929299D01*
X142443088Y-67746065D01*
X142443085Y-67746061D01*
X142443084Y-67746059D01*
X142319740Y-67582724D01*
X142319735Y-67582719D01*
X142319732Y-67582715D01*
X142224834Y-67496204D01*
X142168466Y-67444817D01*
X142168463Y-67444815D01*
X142168462Y-67444814D01*
X141994427Y-67337056D01*
X141994425Y-67337055D01*
X141938948Y-67315563D01*
X141803556Y-67263112D01*
X141803553Y-67263111D01*
X141803552Y-67263111D01*
X141602351Y-67225500D01*
X141602347Y-67225500D01*
X141397653Y-67225500D01*
X141397648Y-67225500D01*
X141196447Y-67263111D01*
X141005574Y-67337055D01*
X140831533Y-67444817D01*
X140680266Y-67582717D01*
X140680259Y-67582724D01*
X140556915Y-67746059D01*
X140556912Y-67746065D01*
X140465672Y-67929298D01*
X140409655Y-68126174D01*
X140409653Y-68126186D01*
X140390768Y-68329995D01*
X140390768Y-68330004D01*
X128005000Y-68330004D01*
X128005000Y-65790004D01*
X140390768Y-65790004D01*
X140409653Y-65993813D01*
X140409655Y-65993825D01*
X140465671Y-66190701D01*
X140465672Y-66190701D01*
X140556912Y-66373935D01*
X140556913Y-66373936D01*
X140556915Y-66373940D01*
X140680259Y-66537275D01*
X140680264Y-66537280D01*
X140680268Y-66537285D01*
X140782870Y-66630819D01*
X140831533Y-66675182D01*
X140831534Y-66675183D01*
X140831538Y-66675186D01*
X141005573Y-66782944D01*
X141196444Y-66856888D01*
X141397653Y-66894500D01*
X141397656Y-66894500D01*
X141602344Y-66894500D01*
X141602347Y-66894500D01*
X141803556Y-66856888D01*
X141994427Y-66782944D01*
X142168462Y-66675186D01*
X142319732Y-66537285D01*
X142443088Y-66373935D01*
X142534328Y-66190701D01*
X142590345Y-65993821D01*
X142603659Y-65850141D01*
X142609232Y-65790004D01*
X142930768Y-65790004D01*
X142949653Y-65993813D01*
X142949655Y-65993825D01*
X143005672Y-66190701D01*
X143096912Y-66373935D01*
X143096913Y-66373936D01*
X143096915Y-66373940D01*
X143220259Y-66537275D01*
X143220264Y-66537280D01*
X143220268Y-66537285D01*
X143322870Y-66630819D01*
X143371533Y-66675182D01*
X143371534Y-66675183D01*
X143371538Y-66675186D01*
X143545573Y-66782944D01*
X143736444Y-66856888D01*
X143937653Y-66894500D01*
X143937656Y-66894500D01*
X144142344Y-66894500D01*
X144142347Y-66894500D01*
X144343556Y-66856888D01*
X144534427Y-66782944D01*
X144708462Y-66675186D01*
X144859732Y-66537285D01*
X144983088Y-66373935D01*
X145074328Y-66190701D01*
X145130345Y-65993821D01*
X145143659Y-65850141D01*
X145149232Y-65790004D01*
X145149232Y-65789995D01*
X145130346Y-65586186D01*
X145130344Y-65586174D01*
X145091560Y-65449864D01*
X145074328Y-65389299D01*
X144983088Y-65206065D01*
X144983085Y-65206061D01*
X144983084Y-65206059D01*
X144859740Y-65042724D01*
X144859735Y-65042719D01*
X144859732Y-65042715D01*
X144764834Y-64956204D01*
X144708466Y-64904817D01*
X144708463Y-64904815D01*
X144708462Y-64904814D01*
X144534427Y-64797056D01*
X144534425Y-64797055D01*
X144478948Y-64775563D01*
X144343556Y-64723112D01*
X144343553Y-64723111D01*
X144343552Y-64723111D01*
X144142351Y-64685500D01*
X144142347Y-64685500D01*
X143937653Y-64685500D01*
X143937648Y-64685500D01*
X143736447Y-64723111D01*
X143545574Y-64797055D01*
X143371533Y-64904817D01*
X143220266Y-65042717D01*
X143220259Y-65042724D01*
X143096915Y-65206059D01*
X143096912Y-65206065D01*
X143005672Y-65389298D01*
X142949655Y-65586174D01*
X142949653Y-65586186D01*
X142930768Y-65789995D01*
X142930768Y-65790004D01*
X142609232Y-65790004D01*
X142609232Y-65789995D01*
X142590346Y-65586186D01*
X142590344Y-65586174D01*
X142551560Y-65449864D01*
X142534328Y-65389299D01*
X142443088Y-65206065D01*
X142443085Y-65206061D01*
X142443084Y-65206059D01*
X142319740Y-65042724D01*
X142319735Y-65042719D01*
X142319732Y-65042715D01*
X142224834Y-64956204D01*
X142168466Y-64904817D01*
X142168463Y-64904815D01*
X142168462Y-64904814D01*
X141994427Y-64797056D01*
X141994425Y-64797055D01*
X141938948Y-64775563D01*
X141803556Y-64723112D01*
X141803553Y-64723111D01*
X141803552Y-64723111D01*
X141602351Y-64685500D01*
X141602347Y-64685500D01*
X141397653Y-64685500D01*
X141397648Y-64685500D01*
X141196447Y-64723111D01*
X141005574Y-64797055D01*
X140831533Y-64904817D01*
X140680266Y-65042717D01*
X140680259Y-65042724D01*
X140556915Y-65206059D01*
X140556912Y-65206065D01*
X140465672Y-65389298D01*
X140409655Y-65586174D01*
X140409653Y-65586186D01*
X140390768Y-65789995D01*
X140390768Y-65790004D01*
X128005000Y-65790004D01*
X128005000Y-63250004D01*
X140390768Y-63250004D01*
X140409653Y-63453813D01*
X140409655Y-63453825D01*
X140465671Y-63650700D01*
X140465672Y-63650701D01*
X140556912Y-63833935D01*
X140556913Y-63833936D01*
X140556915Y-63833940D01*
X140680259Y-63997275D01*
X140680264Y-63997280D01*
X140680268Y-63997285D01*
X140782870Y-64090819D01*
X140831533Y-64135182D01*
X140831534Y-64135183D01*
X140831538Y-64135186D01*
X141005573Y-64242944D01*
X141196444Y-64316888D01*
X141397653Y-64354500D01*
X141397656Y-64354500D01*
X141602344Y-64354500D01*
X141602347Y-64354500D01*
X141803556Y-64316888D01*
X141994427Y-64242944D01*
X142168462Y-64135186D01*
X142319732Y-63997285D01*
X142443088Y-63833935D01*
X142534328Y-63650701D01*
X142590345Y-63453821D01*
X142609232Y-63250004D01*
X142930768Y-63250004D01*
X142949653Y-63453813D01*
X142949655Y-63453825D01*
X143005672Y-63650700D01*
X143005672Y-63650701D01*
X143096912Y-63833935D01*
X143096913Y-63833936D01*
X143096915Y-63833940D01*
X143220259Y-63997275D01*
X143220264Y-63997280D01*
X143220268Y-63997285D01*
X143322870Y-64090819D01*
X143371533Y-64135182D01*
X143371534Y-64135183D01*
X143371538Y-64135186D01*
X143545573Y-64242944D01*
X143736444Y-64316888D01*
X143937653Y-64354500D01*
X143937656Y-64354500D01*
X144142344Y-64354500D01*
X144142347Y-64354500D01*
X144343556Y-64316888D01*
X144534427Y-64242944D01*
X144708462Y-64135186D01*
X144859732Y-63997285D01*
X144983088Y-63833935D01*
X145074328Y-63650701D01*
X145130345Y-63453821D01*
X145149232Y-63250000D01*
X145130345Y-63046179D01*
X145074328Y-62849299D01*
X144983088Y-62666065D01*
X144983085Y-62666061D01*
X144983084Y-62666059D01*
X144859740Y-62502724D01*
X144859735Y-62502719D01*
X144859732Y-62502715D01*
X144764834Y-62416204D01*
X144708466Y-62364817D01*
X144708463Y-62364815D01*
X144708462Y-62364814D01*
X144534427Y-62257056D01*
X144534425Y-62257055D01*
X144478948Y-62235563D01*
X144343556Y-62183112D01*
X144343553Y-62183111D01*
X144343552Y-62183111D01*
X144142351Y-62145500D01*
X144142347Y-62145500D01*
X143937653Y-62145500D01*
X143937648Y-62145500D01*
X143736447Y-62183111D01*
X143545574Y-62257055D01*
X143371533Y-62364817D01*
X143220266Y-62502717D01*
X143220259Y-62502724D01*
X143096915Y-62666059D01*
X143096912Y-62666065D01*
X143005672Y-62849298D01*
X142949655Y-63046174D01*
X142949653Y-63046186D01*
X142930768Y-63249995D01*
X142930768Y-63250004D01*
X142609232Y-63250004D01*
X142609232Y-63250000D01*
X142590345Y-63046179D01*
X142534328Y-62849299D01*
X142443088Y-62666065D01*
X142443085Y-62666061D01*
X142443084Y-62666059D01*
X142319740Y-62502724D01*
X142319735Y-62502719D01*
X142319732Y-62502715D01*
X142224834Y-62416204D01*
X142168466Y-62364817D01*
X142168463Y-62364815D01*
X142168462Y-62364814D01*
X141994427Y-62257056D01*
X141994425Y-62257055D01*
X141938948Y-62235563D01*
X141803556Y-62183112D01*
X141803553Y-62183111D01*
X141803552Y-62183111D01*
X141602351Y-62145500D01*
X141602347Y-62145500D01*
X141397653Y-62145500D01*
X141397648Y-62145500D01*
X141196447Y-62183111D01*
X141005574Y-62257055D01*
X140831533Y-62364817D01*
X140680266Y-62502717D01*
X140680259Y-62502724D01*
X140556915Y-62666059D01*
X140556912Y-62666065D01*
X140465672Y-62849298D01*
X140409655Y-63046174D01*
X140409653Y-63046186D01*
X140390768Y-63249995D01*
X140390768Y-63250004D01*
X128005000Y-63250004D01*
X128005000Y-62182401D01*
X128005000Y-62182398D01*
X127989529Y-62040143D01*
X127989527Y-62040137D01*
X127928550Y-61859163D01*
X127830092Y-61695525D01*
X127823824Y-61688908D01*
X127698757Y-61556876D01*
X127540688Y-61449702D01*
X127540685Y-61449700D01*
X127540684Y-61449700D01*
X127363282Y-61379017D01*
X127363278Y-61379016D01*
X127363275Y-61379015D01*
X127174814Y-61348118D01*
X127174813Y-61348118D01*
X127174807Y-61348117D01*
X126984124Y-61358457D01*
X126984119Y-61358457D01*
X126984118Y-61358458D01*
X126910074Y-61379016D01*
X126800098Y-61409550D01*
X126800096Y-61409551D01*
X126631371Y-61499004D01*
X126485817Y-61622640D01*
X126370243Y-61774673D01*
X126290055Y-61947999D01*
X126290055Y-61948000D01*
X126269773Y-62040143D01*
X126249000Y-62134514D01*
X126249000Y-76163042D01*
X126248897Y-76165579D01*
X126244147Y-76223914D01*
X126248713Y-76257431D01*
X126248999Y-76261654D01*
X126249000Y-79025512D01*
X126249000Y-87423602D01*
X126264471Y-87565857D01*
X126264472Y-87565862D01*
X126325449Y-87746836D01*
X126423907Y-87910474D01*
X126423909Y-87910476D01*
X126555243Y-88049124D01*
X126713312Y-88156298D01*
X126713315Y-88156299D01*
X126814084Y-88196449D01*
X126890725Y-88226985D01*
X127079186Y-88257882D01*
X127269882Y-88247542D01*
X127453898Y-88196451D01*
X127622628Y-88106996D01*
X127768183Y-87983360D01*
X127883757Y-87831325D01*
X127963945Y-87658000D01*
X128005000Y-87471488D01*
X128005000Y-86480004D01*
X140390768Y-86480004D01*
X140409653Y-86683813D01*
X140409655Y-86683825D01*
X140465671Y-86880701D01*
X140465672Y-86880701D01*
X140556912Y-87063935D01*
X140556913Y-87063936D01*
X140556915Y-87063940D01*
X140680259Y-87227275D01*
X140680264Y-87227280D01*
X140680268Y-87227285D01*
X140782870Y-87320819D01*
X140831533Y-87365182D01*
X140831534Y-87365183D01*
X140831538Y-87365186D01*
X141005573Y-87472944D01*
X141196444Y-87546888D01*
X141397653Y-87584500D01*
X141397656Y-87584500D01*
X141602344Y-87584500D01*
X141602347Y-87584500D01*
X141803556Y-87546888D01*
X141994427Y-87472944D01*
X142168462Y-87365186D01*
X142319732Y-87227285D01*
X142443088Y-87063935D01*
X142534328Y-86880701D01*
X142590345Y-86683821D01*
X142609232Y-86480004D01*
X142930768Y-86480004D01*
X142949653Y-86683813D01*
X142949655Y-86683825D01*
X143005672Y-86880701D01*
X143096912Y-87063935D01*
X143096913Y-87063936D01*
X143096915Y-87063940D01*
X143220259Y-87227275D01*
X143220264Y-87227280D01*
X143220268Y-87227285D01*
X143322870Y-87320819D01*
X143371533Y-87365182D01*
X143371534Y-87365183D01*
X143371538Y-87365186D01*
X143545573Y-87472944D01*
X143736444Y-87546888D01*
X143937653Y-87584500D01*
X143937656Y-87584500D01*
X144142344Y-87584500D01*
X144142347Y-87584500D01*
X144343556Y-87546888D01*
X144534427Y-87472944D01*
X144708462Y-87365186D01*
X144859732Y-87227285D01*
X144983088Y-87063935D01*
X145074328Y-86880701D01*
X145130345Y-86683821D01*
X145149232Y-86480000D01*
X145130345Y-86276179D01*
X145074328Y-86079299D01*
X144983088Y-85896065D01*
X144983085Y-85896061D01*
X144983084Y-85896059D01*
X144859740Y-85732724D01*
X144859735Y-85732719D01*
X144859732Y-85732715D01*
X144764834Y-85646204D01*
X144708466Y-85594817D01*
X144708463Y-85594815D01*
X144708462Y-85594814D01*
X144534427Y-85487056D01*
X144534425Y-85487055D01*
X144478948Y-85465563D01*
X144343556Y-85413112D01*
X144343553Y-85413111D01*
X144343552Y-85413111D01*
X144142351Y-85375500D01*
X144142347Y-85375500D01*
X143937653Y-85375500D01*
X143937648Y-85375500D01*
X143736447Y-85413111D01*
X143545574Y-85487055D01*
X143371533Y-85594817D01*
X143220266Y-85732717D01*
X143220259Y-85732724D01*
X143096915Y-85896059D01*
X143096912Y-85896065D01*
X143005672Y-86079298D01*
X142949655Y-86276174D01*
X142949653Y-86276186D01*
X142930768Y-86479995D01*
X142930768Y-86480004D01*
X142609232Y-86480004D01*
X142609232Y-86480000D01*
X142590345Y-86276179D01*
X142534328Y-86079299D01*
X142443088Y-85896065D01*
X142443085Y-85896061D01*
X142443084Y-85896059D01*
X142319740Y-85732724D01*
X142319735Y-85732719D01*
X142319732Y-85732715D01*
X142224834Y-85646204D01*
X142168466Y-85594817D01*
X142168463Y-85594815D01*
X142168462Y-85594814D01*
X141994427Y-85487056D01*
X141994425Y-85487055D01*
X141938948Y-85465563D01*
X141803556Y-85413112D01*
X141803553Y-85413111D01*
X141803552Y-85413111D01*
X141602351Y-85375500D01*
X141602347Y-85375500D01*
X141397653Y-85375500D01*
X141397648Y-85375500D01*
X141196447Y-85413111D01*
X141005574Y-85487055D01*
X140831533Y-85594817D01*
X140680266Y-85732717D01*
X140680259Y-85732724D01*
X140556915Y-85896059D01*
X140556912Y-85896065D01*
X140465672Y-86079298D01*
X140409655Y-86276174D01*
X140409653Y-86276186D01*
X140390768Y-86479995D01*
X140390768Y-86480004D01*
X128005000Y-86480004D01*
X128005000Y-83940004D01*
X140390768Y-83940004D01*
X140409653Y-84143813D01*
X140409655Y-84143825D01*
X140465672Y-84340701D01*
X140556912Y-84523935D01*
X140556913Y-84523936D01*
X140556915Y-84523940D01*
X140680259Y-84687275D01*
X140680264Y-84687280D01*
X140680268Y-84687285D01*
X140782870Y-84780819D01*
X140831533Y-84825182D01*
X140831534Y-84825183D01*
X140831538Y-84825186D01*
X141005573Y-84932944D01*
X141196444Y-85006888D01*
X141397653Y-85044500D01*
X141397656Y-85044500D01*
X141602344Y-85044500D01*
X141602347Y-85044500D01*
X141803556Y-85006888D01*
X141994427Y-84932944D01*
X142168462Y-84825186D01*
X142319732Y-84687285D01*
X142443088Y-84523935D01*
X142534328Y-84340701D01*
X142590345Y-84143821D01*
X142609232Y-83940004D01*
X142930768Y-83940004D01*
X142949653Y-84143813D01*
X142949655Y-84143825D01*
X143005672Y-84340700D01*
X143005672Y-84340701D01*
X143096912Y-84523935D01*
X143096913Y-84523936D01*
X143096915Y-84523940D01*
X143220259Y-84687275D01*
X143220264Y-84687280D01*
X143220268Y-84687285D01*
X143322870Y-84780819D01*
X143371533Y-84825182D01*
X143371534Y-84825183D01*
X143371538Y-84825186D01*
X143545573Y-84932944D01*
X143736444Y-85006888D01*
X143937653Y-85044500D01*
X143937656Y-85044500D01*
X144142344Y-85044500D01*
X144142347Y-85044500D01*
X144343556Y-85006888D01*
X144534427Y-84932944D01*
X144708462Y-84825186D01*
X144859732Y-84687285D01*
X144983088Y-84523935D01*
X145074328Y-84340701D01*
X145130345Y-84143821D01*
X145149232Y-83940000D01*
X145130345Y-83736179D01*
X145074328Y-83539299D01*
X144983088Y-83356065D01*
X144983085Y-83356061D01*
X144983084Y-83356059D01*
X144859740Y-83192724D01*
X144859735Y-83192719D01*
X144859732Y-83192715D01*
X144764834Y-83106204D01*
X144708466Y-83054817D01*
X144708463Y-83054815D01*
X144708462Y-83054814D01*
X144534427Y-82947056D01*
X144534425Y-82947055D01*
X144478948Y-82925563D01*
X144343556Y-82873112D01*
X144343553Y-82873111D01*
X144343552Y-82873111D01*
X144142351Y-82835500D01*
X144142347Y-82835500D01*
X143937653Y-82835500D01*
X143937648Y-82835500D01*
X143736447Y-82873111D01*
X143545574Y-82947055D01*
X143371533Y-83054817D01*
X143220266Y-83192717D01*
X143220259Y-83192724D01*
X143096915Y-83356059D01*
X143096912Y-83356065D01*
X143005672Y-83539298D01*
X142949655Y-83736174D01*
X142949653Y-83736186D01*
X142930768Y-83939995D01*
X142930768Y-83940004D01*
X142609232Y-83940004D01*
X142609232Y-83940000D01*
X142590345Y-83736179D01*
X142534328Y-83539299D01*
X142443088Y-83356065D01*
X142443085Y-83356061D01*
X142443084Y-83356059D01*
X142319740Y-83192724D01*
X142319735Y-83192719D01*
X142319732Y-83192715D01*
X142224834Y-83106204D01*
X142168466Y-83054817D01*
X142168463Y-83054815D01*
X142168462Y-83054814D01*
X141994427Y-82947056D01*
X141994425Y-82947055D01*
X141938948Y-82925563D01*
X141803556Y-82873112D01*
X141803553Y-82873111D01*
X141803552Y-82873111D01*
X141602351Y-82835500D01*
X141602347Y-82835500D01*
X141397653Y-82835500D01*
X141397648Y-82835500D01*
X141196447Y-82873111D01*
X141005574Y-82947055D01*
X140831533Y-83054817D01*
X140680266Y-83192717D01*
X140680259Y-83192724D01*
X140556915Y-83356059D01*
X140556912Y-83356065D01*
X140465672Y-83539298D01*
X140409655Y-83736174D01*
X140409653Y-83736186D01*
X140390768Y-83939995D01*
X140390768Y-83940004D01*
X128005000Y-83940004D01*
X128005000Y-81400004D01*
X140390768Y-81400004D01*
X140409653Y-81603813D01*
X140409655Y-81603825D01*
X140465671Y-81800700D01*
X140465672Y-81800701D01*
X140556912Y-81983935D01*
X140556913Y-81983936D01*
X140556915Y-81983940D01*
X140680259Y-82147275D01*
X140680264Y-82147280D01*
X140680268Y-82147285D01*
X140782870Y-82240819D01*
X140831533Y-82285182D01*
X140831534Y-82285183D01*
X140831538Y-82285186D01*
X141005573Y-82392944D01*
X141196444Y-82466888D01*
X141397653Y-82504500D01*
X141397656Y-82504500D01*
X141602344Y-82504500D01*
X141602347Y-82504500D01*
X141803556Y-82466888D01*
X141994427Y-82392944D01*
X142168462Y-82285186D01*
X142319732Y-82147285D01*
X142443088Y-81983935D01*
X142534328Y-81800701D01*
X142590345Y-81603821D01*
X142602347Y-81474299D01*
X142609232Y-81400004D01*
X142930768Y-81400004D01*
X142949653Y-81603813D01*
X142949655Y-81603825D01*
X143005671Y-81800701D01*
X143005672Y-81800701D01*
X143096912Y-81983935D01*
X143096913Y-81983936D01*
X143096915Y-81983940D01*
X143220259Y-82147275D01*
X143220264Y-82147280D01*
X143220268Y-82147285D01*
X143322870Y-82240819D01*
X143371533Y-82285182D01*
X143371534Y-82285183D01*
X143371538Y-82285186D01*
X143545573Y-82392944D01*
X143736444Y-82466888D01*
X143937653Y-82504500D01*
X143937656Y-82504500D01*
X144142344Y-82504500D01*
X144142347Y-82504500D01*
X144343556Y-82466888D01*
X144534427Y-82392944D01*
X144708462Y-82285186D01*
X144859732Y-82147285D01*
X144983088Y-81983935D01*
X145074328Y-81800701D01*
X145130345Y-81603821D01*
X145142347Y-81474299D01*
X145149232Y-81400004D01*
X145149232Y-81399995D01*
X145130346Y-81196186D01*
X145130344Y-81196174D01*
X145108857Y-81120658D01*
X145074328Y-80999299D01*
X144983088Y-80816065D01*
X144983085Y-80816061D01*
X144983084Y-80816059D01*
X144859740Y-80652724D01*
X144859735Y-80652719D01*
X144859732Y-80652715D01*
X144740230Y-80543774D01*
X144708466Y-80514817D01*
X144708463Y-80514815D01*
X144708462Y-80514814D01*
X144534427Y-80407056D01*
X144534425Y-80407055D01*
X144478948Y-80385563D01*
X144343556Y-80333112D01*
X144343553Y-80333111D01*
X144343552Y-80333111D01*
X144142351Y-80295500D01*
X144142347Y-80295500D01*
X143937653Y-80295500D01*
X143937648Y-80295500D01*
X143736447Y-80333111D01*
X143545574Y-80407055D01*
X143371533Y-80514817D01*
X143220266Y-80652717D01*
X143220259Y-80652724D01*
X143096915Y-80816059D01*
X143096912Y-80816065D01*
X143005672Y-80999298D01*
X142949655Y-81196174D01*
X142949653Y-81196186D01*
X142930768Y-81399995D01*
X142930768Y-81400004D01*
X142609232Y-81400004D01*
X142609232Y-81399995D01*
X142590346Y-81196186D01*
X142590344Y-81196174D01*
X142568857Y-81120658D01*
X142534328Y-80999299D01*
X142443088Y-80816065D01*
X142443085Y-80816061D01*
X142443084Y-80816059D01*
X142319740Y-80652724D01*
X142319735Y-80652719D01*
X142319732Y-80652715D01*
X142200230Y-80543774D01*
X142168466Y-80514817D01*
X142168463Y-80514815D01*
X142168462Y-80514814D01*
X141994427Y-80407056D01*
X141994425Y-80407055D01*
X141938948Y-80385563D01*
X141803556Y-80333112D01*
X141803553Y-80333111D01*
X141803552Y-80333111D01*
X141602351Y-80295500D01*
X141602347Y-80295500D01*
X141397653Y-80295500D01*
X141397648Y-80295500D01*
X141196447Y-80333111D01*
X141005574Y-80407055D01*
X140831533Y-80514817D01*
X140680266Y-80652717D01*
X140680259Y-80652724D01*
X140556915Y-80816059D01*
X140556912Y-80816065D01*
X140465672Y-80999298D01*
X140409655Y-81196174D01*
X140409653Y-81196186D01*
X140390768Y-81399995D01*
X140390768Y-81400004D01*
X128005000Y-81400004D01*
X128005000Y-79073398D01*
X128005000Y-79073397D01*
X128005000Y-78987000D01*
X140530782Y-78987000D01*
X140537136Y-79051523D01*
X140593004Y-79235692D01*
X140683720Y-79405412D01*
X140683728Y-79405423D01*
X140805812Y-79554184D01*
X140805815Y-79554187D01*
X140954576Y-79676271D01*
X140954587Y-79676279D01*
X141124307Y-79766995D01*
X141308476Y-79822863D01*
X141373000Y-79829217D01*
X141373000Y-79346881D01*
X141464237Y-79360000D01*
X141535763Y-79360000D01*
X141627000Y-79346881D01*
X141627000Y-79829217D01*
X141691523Y-79822863D01*
X141875692Y-79766995D01*
X142045412Y-79676279D01*
X142045423Y-79676271D01*
X142194184Y-79554187D01*
X142194187Y-79554184D01*
X142316271Y-79405423D01*
X142316279Y-79405412D01*
X142406995Y-79235692D01*
X142462863Y-79051523D01*
X142469218Y-78987000D01*
X143070782Y-78987000D01*
X143077136Y-79051523D01*
X143133004Y-79235692D01*
X143223720Y-79405412D01*
X143223728Y-79405423D01*
X143345812Y-79554184D01*
X143345815Y-79554187D01*
X143494576Y-79676271D01*
X143494587Y-79676279D01*
X143664307Y-79766995D01*
X143848476Y-79822863D01*
X143913000Y-79829217D01*
X143913000Y-79346881D01*
X144004237Y-79360000D01*
X144075763Y-79360000D01*
X144167000Y-79346881D01*
X144167000Y-79829217D01*
X144231523Y-79822863D01*
X144415692Y-79766995D01*
X144585412Y-79676279D01*
X144585423Y-79676271D01*
X144734184Y-79554187D01*
X144734187Y-79554184D01*
X144856271Y-79405423D01*
X144856279Y-79405412D01*
X144946995Y-79235692D01*
X145002863Y-79051523D01*
X145009218Y-78987000D01*
X144523818Y-78987000D01*
X144540000Y-78931889D01*
X144540000Y-78788111D01*
X144523818Y-78733000D01*
X145009217Y-78733000D01*
X145002863Y-78668476D01*
X144946995Y-78484307D01*
X144856279Y-78314587D01*
X144856271Y-78314576D01*
X144734187Y-78165815D01*
X144734184Y-78165812D01*
X144585423Y-78043728D01*
X144585412Y-78043720D01*
X144415692Y-77953004D01*
X144231524Y-77897136D01*
X144167000Y-77890780D01*
X144167000Y-78373118D01*
X144075763Y-78360000D01*
X144004237Y-78360000D01*
X143913000Y-78373118D01*
X143913000Y-77890781D01*
X143912999Y-77890780D01*
X143848475Y-77897136D01*
X143664307Y-77953004D01*
X143494587Y-78043720D01*
X143494576Y-78043728D01*
X143345815Y-78165812D01*
X143345812Y-78165815D01*
X143223728Y-78314576D01*
X143223720Y-78314587D01*
X143133004Y-78484307D01*
X143077136Y-78668476D01*
X143070782Y-78733000D01*
X143556182Y-78733000D01*
X143540000Y-78788111D01*
X143540000Y-78931889D01*
X143556182Y-78987000D01*
X143070782Y-78987000D01*
X142469218Y-78987000D01*
X141983818Y-78987000D01*
X142000000Y-78931889D01*
X142000000Y-78788111D01*
X141983818Y-78733000D01*
X142469217Y-78733000D01*
X142462863Y-78668476D01*
X142406995Y-78484307D01*
X142316279Y-78314587D01*
X142316271Y-78314576D01*
X142194187Y-78165815D01*
X142194184Y-78165812D01*
X142045423Y-78043728D01*
X142045412Y-78043720D01*
X141875692Y-77953004D01*
X141691524Y-77897136D01*
X141627000Y-77890780D01*
X141627000Y-78373118D01*
X141535763Y-78360000D01*
X141464237Y-78360000D01*
X141373000Y-78373118D01*
X141373000Y-77890780D01*
X141372999Y-77890780D01*
X141308475Y-77897136D01*
X141124307Y-77953004D01*
X140954587Y-78043720D01*
X140954576Y-78043728D01*
X140805815Y-78165812D01*
X140805812Y-78165815D01*
X140683728Y-78314576D01*
X140683720Y-78314587D01*
X140593004Y-78484307D01*
X140537136Y-78668476D01*
X140530782Y-78733000D01*
X141016182Y-78733000D01*
X141000000Y-78788111D01*
X141000000Y-78931889D01*
X141016182Y-78987000D01*
X140530782Y-78987000D01*
X128005000Y-78987000D01*
X128005000Y-77260500D01*
X128023306Y-77216306D01*
X128067500Y-77198000D01*
X140344792Y-77198000D01*
X140388986Y-77216306D01*
X140406091Y-77248309D01*
X140410265Y-77269298D01*
X140410267Y-77269303D01*
X140466515Y-77353484D01*
X140550697Y-77409733D01*
X140550699Y-77409734D01*
X140624933Y-77424500D01*
X142375066Y-77424499D01*
X142449301Y-77409734D01*
X142533484Y-77353484D01*
X142589734Y-77269301D01*
X142593910Y-77248306D01*
X142620486Y-77208533D01*
X142655209Y-77198000D01*
X143342149Y-77198000D01*
X143375050Y-77207360D01*
X143545573Y-77312944D01*
X143736444Y-77386888D01*
X143937653Y-77424500D01*
X143937656Y-77424500D01*
X144142344Y-77424500D01*
X144142347Y-77424500D01*
X144343556Y-77386888D01*
X144534427Y-77312944D01*
X144704949Y-77207360D01*
X144737851Y-77198000D01*
X145385043Y-77198000D01*
X145387579Y-77198102D01*
X145445916Y-77202853D01*
X145528740Y-77191568D01*
X145611857Y-77182529D01*
X145617610Y-77180589D01*
X145629131Y-77177889D01*
X145635145Y-77177071D01*
X145713608Y-77148244D01*
X145792836Y-77121550D01*
X145798040Y-77118418D01*
X145808704Y-77113307D01*
X145814405Y-77111214D01*
X145884845Y-77066189D01*
X145956476Y-77023091D01*
X145960877Y-77018921D01*
X145970205Y-77011628D01*
X145975320Y-77008360D01*
X146034444Y-76949235D01*
X146095124Y-76891757D01*
X146098531Y-76886729D01*
X146106062Y-76877616D01*
X147152717Y-75830961D01*
X147154555Y-75829266D01*
X147199183Y-75791360D01*
X147249765Y-75724820D01*
X147302150Y-75659651D01*
X147304848Y-75654209D01*
X147311083Y-75644156D01*
X147314757Y-75639325D01*
X147349851Y-75563468D01*
X147381509Y-75499635D01*
X147417544Y-75468179D01*
X147465270Y-75471415D01*
X147496728Y-75507451D01*
X147500000Y-75527407D01*
X147500000Y-93720111D01*
X147481694Y-93764305D01*
X147264306Y-93981694D01*
X147220112Y-94000000D01*
X98779888Y-94000000D01*
X98735694Y-93981694D01*
X98518306Y-93764306D01*
X98500000Y-93720112D01*
X98500000Y-89762507D01*
X103162999Y-89762507D01*
X103170369Y-89799553D01*
X103170369Y-89799554D01*
X103198438Y-89841561D01*
X103240446Y-89869630D01*
X103277493Y-89877000D01*
X104013000Y-89877000D01*
X104013000Y-89386881D01*
X104104237Y-89400000D01*
X104175763Y-89400000D01*
X104266999Y-89386881D01*
X104267000Y-89877000D01*
X105002507Y-89877000D01*
X105039553Y-89869630D01*
X105039554Y-89869630D01*
X105081561Y-89841561D01*
X105109630Y-89799554D01*
X105109630Y-89799553D01*
X105117000Y-89762507D01*
X105117000Y-89027000D01*
X104623818Y-89027000D01*
X104625872Y-89020004D01*
X140390768Y-89020004D01*
X140409653Y-89223813D01*
X140409655Y-89223825D01*
X140438429Y-89324952D01*
X140465672Y-89420701D01*
X140556912Y-89603935D01*
X140556913Y-89603936D01*
X140556915Y-89603940D01*
X140680259Y-89767275D01*
X140680264Y-89767280D01*
X140680268Y-89767285D01*
X140761745Y-89841561D01*
X140831533Y-89905182D01*
X140831534Y-89905183D01*
X140831538Y-89905186D01*
X141005573Y-90012944D01*
X141196444Y-90086888D01*
X141397653Y-90124500D01*
X141397656Y-90124500D01*
X141602344Y-90124500D01*
X141602347Y-90124500D01*
X141803556Y-90086888D01*
X141994427Y-90012944D01*
X142168462Y-89905186D01*
X142319732Y-89767285D01*
X142323341Y-89762507D01*
X142443084Y-89603940D01*
X142443083Y-89603940D01*
X142443088Y-89603935D01*
X142534328Y-89420701D01*
X142590345Y-89223821D01*
X142600907Y-89109844D01*
X142609232Y-89020004D01*
X142930768Y-89020004D01*
X142949653Y-89223813D01*
X142949655Y-89223825D01*
X142978429Y-89324952D01*
X143005672Y-89420701D01*
X143096912Y-89603935D01*
X143096913Y-89603936D01*
X143096915Y-89603940D01*
X143220259Y-89767275D01*
X143220264Y-89767280D01*
X143220268Y-89767285D01*
X143301745Y-89841561D01*
X143371533Y-89905182D01*
X143371534Y-89905183D01*
X143371538Y-89905186D01*
X143545573Y-90012944D01*
X143736444Y-90086888D01*
X143937653Y-90124500D01*
X143937656Y-90124500D01*
X144142344Y-90124500D01*
X144142347Y-90124500D01*
X144343556Y-90086888D01*
X144534427Y-90012944D01*
X144708462Y-89905186D01*
X144859732Y-89767285D01*
X144863341Y-89762507D01*
X144983084Y-89603940D01*
X144983083Y-89603940D01*
X144983088Y-89603935D01*
X145074328Y-89420701D01*
X145130345Y-89223821D01*
X145140907Y-89109844D01*
X145149232Y-89020004D01*
X145149232Y-89019995D01*
X145130346Y-88816186D01*
X145130344Y-88816174D01*
X145094488Y-88690156D01*
X145074328Y-88619299D01*
X144983088Y-88436065D01*
X144983085Y-88436061D01*
X144983084Y-88436059D01*
X144859740Y-88272724D01*
X144859735Y-88272719D01*
X144859732Y-88272715D01*
X144732029Y-88156298D01*
X144708466Y-88134817D01*
X144708463Y-88134815D01*
X144708462Y-88134814D01*
X144534427Y-88027056D01*
X144534425Y-88027055D01*
X144465736Y-88000445D01*
X144343556Y-87953112D01*
X144343553Y-87953111D01*
X144343552Y-87953111D01*
X144142351Y-87915500D01*
X144142347Y-87915500D01*
X143937653Y-87915500D01*
X143937648Y-87915500D01*
X143736447Y-87953111D01*
X143545574Y-88027055D01*
X143371533Y-88134817D01*
X143220266Y-88272717D01*
X143220259Y-88272724D01*
X143096915Y-88436059D01*
X143096912Y-88436065D01*
X143005672Y-88619298D01*
X142949655Y-88816174D01*
X142949653Y-88816186D01*
X142930768Y-89019995D01*
X142930768Y-89020004D01*
X142609232Y-89020004D01*
X142609232Y-89019995D01*
X142590346Y-88816186D01*
X142590344Y-88816174D01*
X142554488Y-88690156D01*
X142534328Y-88619299D01*
X142443088Y-88436065D01*
X142443085Y-88436061D01*
X142443084Y-88436059D01*
X142319740Y-88272724D01*
X142319735Y-88272719D01*
X142319732Y-88272715D01*
X142192029Y-88156298D01*
X142168466Y-88134817D01*
X142168463Y-88134815D01*
X142168462Y-88134814D01*
X141994427Y-88027056D01*
X141994425Y-88027055D01*
X141925736Y-88000445D01*
X141803556Y-87953112D01*
X141803553Y-87953111D01*
X141803552Y-87953111D01*
X141602351Y-87915500D01*
X141602347Y-87915500D01*
X141397653Y-87915500D01*
X141397648Y-87915500D01*
X141196447Y-87953111D01*
X141005574Y-88027055D01*
X140831533Y-88134817D01*
X140680266Y-88272717D01*
X140680259Y-88272724D01*
X140556915Y-88436059D01*
X140556912Y-88436065D01*
X140465672Y-88619298D01*
X140409655Y-88816174D01*
X140409653Y-88816186D01*
X140390768Y-89019995D01*
X140390768Y-89020004D01*
X104625872Y-89020004D01*
X104640000Y-88971889D01*
X104640000Y-88828111D01*
X104623818Y-88773000D01*
X105117000Y-88773000D01*
X105117000Y-88037492D01*
X105109630Y-88000446D01*
X105109630Y-88000445D01*
X105081561Y-87958438D01*
X105039553Y-87930369D01*
X105002507Y-87923000D01*
X104267000Y-87923000D01*
X104266999Y-88413118D01*
X104175763Y-88400000D01*
X104104237Y-88400000D01*
X104013000Y-88413118D01*
X104013000Y-87923000D01*
X103277493Y-87923000D01*
X103240446Y-87930369D01*
X103240445Y-87930369D01*
X103198438Y-87958438D01*
X103170369Y-88000445D01*
X103170369Y-88000446D01*
X103163000Y-88037492D01*
X103163000Y-88773000D01*
X103656182Y-88773000D01*
X103640000Y-88828111D01*
X103640000Y-88971889D01*
X103656182Y-89027000D01*
X103163000Y-89027000D01*
X103163000Y-89762507D01*
X103162999Y-89762507D01*
X98500000Y-89762507D01*
X98500000Y-80734675D01*
X116322735Y-80734675D01*
X116322736Y-80734680D01*
X116358722Y-80922229D01*
X116367947Y-80943673D01*
X116434191Y-81097666D01*
X116434192Y-81097667D01*
X116545605Y-81252774D01*
X116687761Y-81380307D01*
X116687766Y-81380310D01*
X116722600Y-81400004D01*
X116854005Y-81474298D01*
X117036570Y-81530354D01*
X117226916Y-81545853D01*
X117416145Y-81520071D01*
X117595405Y-81454214D01*
X117756320Y-81351360D01*
X117815711Y-81291967D01*
X117817563Y-81290259D01*
X117862183Y-81252360D01*
X117904885Y-81196186D01*
X117912773Y-81185810D01*
X117965144Y-81120658D01*
X117965145Y-81120655D01*
X117965149Y-81120651D01*
X117967846Y-81115210D01*
X117974085Y-81105154D01*
X117977757Y-81100325D01*
X118012857Y-81024455D01*
X118050002Y-80949561D01*
X118051467Y-80943665D01*
X118055397Y-80932505D01*
X118057945Y-80927000D01*
X118075915Y-80845361D01*
X118096092Y-80764229D01*
X118096256Y-80758158D01*
X118097693Y-80746420D01*
X118099000Y-80740488D01*
X118099000Y-80656890D01*
X118101264Y-80573323D01*
X118100118Y-80567355D01*
X118098999Y-80555592D01*
X118098999Y-73795565D01*
X118117304Y-73751373D01*
X119212711Y-72655966D01*
X119214549Y-72654271D01*
X119259183Y-72616360D01*
X119309782Y-72549797D01*
X119362149Y-72484651D01*
X119364846Y-72479210D01*
X119371085Y-72469154D01*
X119374757Y-72464325D01*
X119409857Y-72388455D01*
X119447002Y-72313561D01*
X119448467Y-72307665D01*
X119452397Y-72296505D01*
X119454945Y-72291000D01*
X119472915Y-72209361D01*
X119493092Y-72128229D01*
X119493256Y-72122158D01*
X119494693Y-72110420D01*
X119496000Y-72104488D01*
X119496000Y-72020890D01*
X119498264Y-71937323D01*
X119497119Y-71931360D01*
X119496000Y-71919582D01*
X119496000Y-66076955D01*
X119496103Y-66074418D01*
X119500853Y-66016083D01*
X119489568Y-65933257D01*
X119480529Y-65850143D01*
X119478589Y-65844388D01*
X119475889Y-65832866D01*
X119475071Y-65826855D01*
X119446248Y-65748400D01*
X119419550Y-65669164D01*
X119416418Y-65663959D01*
X119411304Y-65653287D01*
X119409213Y-65647594D01*
X119364192Y-65577159D01*
X119321091Y-65505524D01*
X119321090Y-65505522D01*
X119316916Y-65501115D01*
X119309633Y-65491799D01*
X119306365Y-65486687D01*
X119306361Y-65486682D01*
X119306360Y-65486680D01*
X119247236Y-65427556D01*
X119189757Y-65366875D01*
X119184731Y-65363468D01*
X119175612Y-65355932D01*
X118244306Y-64424626D01*
X118226000Y-64380432D01*
X118226000Y-63820969D01*
X118225999Y-63820963D01*
X118225999Y-61110701D01*
X118225999Y-60710004D01*
X140390768Y-60710004D01*
X140409653Y-60913813D01*
X140409655Y-60913825D01*
X140465671Y-61110701D01*
X140465672Y-61110701D01*
X140556912Y-61293935D01*
X140556913Y-61293936D01*
X140556915Y-61293940D01*
X140680259Y-61457275D01*
X140680264Y-61457280D01*
X140680268Y-61457285D01*
X140726032Y-61499004D01*
X140831533Y-61595182D01*
X140831534Y-61595183D01*
X140831538Y-61595186D01*
X141005573Y-61702944D01*
X141196444Y-61776888D01*
X141397653Y-61814500D01*
X141397656Y-61814500D01*
X141602344Y-61814500D01*
X141602347Y-61814500D01*
X141803556Y-61776888D01*
X141994427Y-61702944D01*
X142168462Y-61595186D01*
X142319732Y-61457285D01*
X142325459Y-61449702D01*
X142443084Y-61293940D01*
X142443083Y-61293940D01*
X142443088Y-61293935D01*
X142534328Y-61110701D01*
X142590345Y-60913821D01*
X142609232Y-60710004D01*
X142930768Y-60710004D01*
X142949653Y-60913813D01*
X142949655Y-60913825D01*
X143005672Y-61110701D01*
X143096912Y-61293935D01*
X143096913Y-61293936D01*
X143096915Y-61293940D01*
X143220259Y-61457275D01*
X143220264Y-61457280D01*
X143220268Y-61457285D01*
X143266032Y-61499004D01*
X143371533Y-61595182D01*
X143371534Y-61595183D01*
X143371538Y-61595186D01*
X143545573Y-61702944D01*
X143736444Y-61776888D01*
X143937653Y-61814500D01*
X143937656Y-61814500D01*
X144142344Y-61814500D01*
X144142347Y-61814500D01*
X144343556Y-61776888D01*
X144534427Y-61702944D01*
X144708462Y-61595186D01*
X144859732Y-61457285D01*
X144865459Y-61449702D01*
X144983084Y-61293940D01*
X144983083Y-61293940D01*
X144983088Y-61293935D01*
X145074328Y-61110701D01*
X145130345Y-60913821D01*
X145149232Y-60710000D01*
X145130345Y-60506179D01*
X145074328Y-60309299D01*
X144983088Y-60126065D01*
X144983085Y-60126061D01*
X144983084Y-60126059D01*
X144859740Y-59962724D01*
X144859735Y-59962719D01*
X144859732Y-59962715D01*
X144764834Y-59876204D01*
X144708466Y-59824817D01*
X144708463Y-59824815D01*
X144708462Y-59824814D01*
X144534427Y-59717056D01*
X144534425Y-59717055D01*
X144478948Y-59695563D01*
X144343556Y-59643112D01*
X144343553Y-59643111D01*
X144343552Y-59643111D01*
X144142351Y-59605500D01*
X144142347Y-59605500D01*
X143937653Y-59605500D01*
X143937648Y-59605500D01*
X143736447Y-59643111D01*
X143545574Y-59717055D01*
X143371533Y-59824817D01*
X143220266Y-59962717D01*
X143220259Y-59962724D01*
X143096915Y-60126059D01*
X143096912Y-60126065D01*
X143005672Y-60309298D01*
X142949655Y-60506174D01*
X142949653Y-60506186D01*
X142930768Y-60709995D01*
X142930768Y-60710004D01*
X142609232Y-60710004D01*
X142609232Y-60710000D01*
X142590345Y-60506179D01*
X142534328Y-60309299D01*
X142443088Y-60126065D01*
X142443085Y-60126061D01*
X142443084Y-60126059D01*
X142319740Y-59962724D01*
X142319735Y-59962719D01*
X142319732Y-59962715D01*
X142224834Y-59876204D01*
X142168466Y-59824817D01*
X142168463Y-59824815D01*
X142168462Y-59824814D01*
X141994427Y-59717056D01*
X141994425Y-59717055D01*
X141938948Y-59695563D01*
X141803556Y-59643112D01*
X141803553Y-59643111D01*
X141803552Y-59643111D01*
X141602351Y-59605500D01*
X141602347Y-59605500D01*
X141397653Y-59605500D01*
X141397648Y-59605500D01*
X141196447Y-59643111D01*
X141005574Y-59717055D01*
X140831533Y-59824817D01*
X140680266Y-59962717D01*
X140680259Y-59962724D01*
X140556915Y-60126059D01*
X140556912Y-60126065D01*
X140465672Y-60309298D01*
X140409655Y-60506174D01*
X140409653Y-60506186D01*
X140390768Y-60709995D01*
X140390768Y-60710004D01*
X118225999Y-60710004D01*
X118225999Y-58297000D01*
X140530782Y-58297000D01*
X140537136Y-58361523D01*
X140593004Y-58545692D01*
X140683720Y-58715412D01*
X140683728Y-58715423D01*
X140805812Y-58864184D01*
X140805815Y-58864187D01*
X140954576Y-58986271D01*
X140954587Y-58986279D01*
X141124307Y-59076995D01*
X141308476Y-59132863D01*
X141373000Y-59139217D01*
X141373000Y-58656881D01*
X141464237Y-58670000D01*
X141535763Y-58670000D01*
X141627000Y-58656881D01*
X141627000Y-59139217D01*
X141691523Y-59132863D01*
X141875692Y-59076995D01*
X142045412Y-58986279D01*
X142045423Y-58986271D01*
X142194184Y-58864187D01*
X142194187Y-58864184D01*
X142316271Y-58715423D01*
X142316279Y-58715412D01*
X142406995Y-58545692D01*
X142462863Y-58361523D01*
X142469218Y-58297000D01*
X143070782Y-58297000D01*
X143077136Y-58361523D01*
X143133004Y-58545692D01*
X143223720Y-58715412D01*
X143223728Y-58715423D01*
X143345812Y-58864184D01*
X143345815Y-58864187D01*
X143494576Y-58986271D01*
X143494587Y-58986279D01*
X143664307Y-59076995D01*
X143848476Y-59132863D01*
X143913000Y-59139217D01*
X143913000Y-58656881D01*
X144004237Y-58670000D01*
X144075763Y-58670000D01*
X144167000Y-58656881D01*
X144167000Y-59139217D01*
X144231523Y-59132863D01*
X144415692Y-59076995D01*
X144585412Y-58986279D01*
X144585423Y-58986271D01*
X144734184Y-58864187D01*
X144734187Y-58864184D01*
X144856271Y-58715423D01*
X144856279Y-58715412D01*
X144946995Y-58545692D01*
X145002863Y-58361523D01*
X145009218Y-58297000D01*
X144523818Y-58297000D01*
X144540000Y-58241889D01*
X144540000Y-58098111D01*
X144523818Y-58043000D01*
X145009217Y-58043000D01*
X145002863Y-57978476D01*
X144946995Y-57794307D01*
X144856279Y-57624587D01*
X144856271Y-57624576D01*
X144734187Y-57475815D01*
X144734184Y-57475812D01*
X144585423Y-57353728D01*
X144585412Y-57353720D01*
X144415692Y-57263004D01*
X144231524Y-57207136D01*
X144167000Y-57200780D01*
X144167000Y-57683118D01*
X144075763Y-57670000D01*
X144004237Y-57670000D01*
X143913000Y-57683118D01*
X143913000Y-57200781D01*
X143912999Y-57200780D01*
X143848475Y-57207136D01*
X143664307Y-57263004D01*
X143494587Y-57353720D01*
X143494576Y-57353728D01*
X143345815Y-57475812D01*
X143345812Y-57475815D01*
X143223728Y-57624576D01*
X143223720Y-57624587D01*
X143133004Y-57794307D01*
X143077136Y-57978476D01*
X143070782Y-58043000D01*
X143556182Y-58043000D01*
X143540000Y-58098111D01*
X143540000Y-58241889D01*
X143556182Y-58297000D01*
X143070782Y-58297000D01*
X142469218Y-58297000D01*
X141983818Y-58297000D01*
X142000000Y-58241889D01*
X142000000Y-58098111D01*
X141983818Y-58043000D01*
X142469217Y-58043000D01*
X142462863Y-57978476D01*
X142406995Y-57794307D01*
X142316279Y-57624587D01*
X142316271Y-57624576D01*
X142194187Y-57475815D01*
X142194184Y-57475812D01*
X142045423Y-57353728D01*
X142045412Y-57353720D01*
X141875692Y-57263004D01*
X141691524Y-57207136D01*
X141627000Y-57200780D01*
X141627000Y-57683118D01*
X141535763Y-57670000D01*
X141464237Y-57670000D01*
X141373000Y-57683118D01*
X141373000Y-57200780D01*
X141372999Y-57200780D01*
X141308475Y-57207136D01*
X141124307Y-57263004D01*
X140954587Y-57353720D01*
X140954576Y-57353728D01*
X140805815Y-57475812D01*
X140805812Y-57475815D01*
X140683728Y-57624576D01*
X140683720Y-57624587D01*
X140593004Y-57794307D01*
X140537136Y-57978476D01*
X140530782Y-58043000D01*
X141016182Y-58043000D01*
X141000000Y-58098111D01*
X141000000Y-58241889D01*
X141016182Y-58297000D01*
X140530782Y-58297000D01*
X118225999Y-58297000D01*
X118225999Y-58047565D01*
X118244304Y-58003375D01*
X120614373Y-55633306D01*
X120658568Y-55615000D01*
X129333598Y-55615000D01*
X129333602Y-55615000D01*
X129475857Y-55599529D01*
X129656836Y-55538550D01*
X129820476Y-55440091D01*
X129959124Y-55308757D01*
X130066298Y-55150688D01*
X130136985Y-54973275D01*
X130167882Y-54784814D01*
X130167354Y-54775084D01*
X130162237Y-54680699D01*
X130157542Y-54594118D01*
X130106451Y-54410102D01*
X130016996Y-54241372D01*
X129893360Y-54095817D01*
X129811921Y-54033909D01*
X129741326Y-53980243D01*
X129666853Y-53945789D01*
X129568000Y-53900055D01*
X129568001Y-53900055D01*
X129521371Y-53889791D01*
X129381488Y-53859000D01*
X129381485Y-53859000D01*
X120305957Y-53859000D01*
X120303420Y-53858897D01*
X120245085Y-53854147D01*
X120245084Y-53854147D01*
X120210220Y-53858897D01*
X120162246Y-53865433D01*
X120079142Y-53874471D01*
X120079138Y-53874472D01*
X120073391Y-53876409D01*
X120061878Y-53879107D01*
X120055858Y-53879927D01*
X120055851Y-53879929D01*
X119977379Y-53908758D01*
X119898166Y-53935448D01*
X119898165Y-53935448D01*
X119892950Y-53938586D01*
X119882296Y-53943691D01*
X119876596Y-53945785D01*
X119876587Y-53945789D01*
X119806161Y-53990806D01*
X119734523Y-54033909D01*
X119734521Y-54033910D01*
X119730111Y-54038088D01*
X119720802Y-54045365D01*
X119715685Y-54048636D01*
X119715681Y-54048639D01*
X119656574Y-54107746D01*
X119595879Y-54165239D01*
X119595872Y-54165247D01*
X119592462Y-54170276D01*
X119584931Y-54179388D01*
X116753299Y-57011021D01*
X116751432Y-57012741D01*
X116706819Y-57050637D01*
X116706815Y-57050641D01*
X116656217Y-57117202D01*
X116603850Y-57182349D01*
X116601150Y-57187793D01*
X116594923Y-57197832D01*
X116591247Y-57202669D01*
X116591238Y-57202683D01*
X116556142Y-57278544D01*
X116518998Y-57353437D01*
X116517531Y-57359336D01*
X116513605Y-57370485D01*
X116511059Y-57375988D01*
X116511056Y-57375997D01*
X116511055Y-57376000D01*
X116493083Y-57457637D01*
X116493084Y-57457638D01*
X116472907Y-57538772D01*
X116472743Y-57544842D01*
X116471306Y-57556573D01*
X116470000Y-57562508D01*
X116470000Y-57646110D01*
X116467735Y-57729675D01*
X116468880Y-57735637D01*
X116470000Y-57747417D01*
X116470000Y-64733042D01*
X116469897Y-64735579D01*
X116465147Y-64793914D01*
X116476431Y-64876740D01*
X116485471Y-64959857D01*
X116485472Y-64959862D01*
X116487409Y-64965609D01*
X116490108Y-64977124D01*
X116490928Y-64983145D01*
X116519755Y-65061608D01*
X116546447Y-65140831D01*
X116546448Y-65140832D01*
X116549581Y-65146040D01*
X116554689Y-65156700D01*
X116556783Y-65162398D01*
X116556788Y-65162409D01*
X116601810Y-65232845D01*
X116644907Y-65304474D01*
X116649081Y-65308880D01*
X116656367Y-65318200D01*
X116659640Y-65323320D01*
X116718763Y-65382443D01*
X116776243Y-65443124D01*
X116776246Y-65443126D01*
X116781266Y-65446530D01*
X116790387Y-65454067D01*
X117721694Y-66385373D01*
X117740000Y-66429567D01*
X117739999Y-71619432D01*
X117721693Y-71663626D01*
X116626299Y-72759021D01*
X116624432Y-72760741D01*
X116579819Y-72798637D01*
X116579815Y-72798641D01*
X116529217Y-72865202D01*
X116476850Y-72930349D01*
X116474150Y-72935793D01*
X116467923Y-72945832D01*
X116464247Y-72950669D01*
X116464238Y-72950683D01*
X116429142Y-73026544D01*
X116391998Y-73101437D01*
X116390531Y-73107336D01*
X116386605Y-73118485D01*
X116384059Y-73123988D01*
X116384056Y-73123997D01*
X116366084Y-73205638D01*
X116345907Y-73286772D01*
X116345743Y-73292842D01*
X116344306Y-73304573D01*
X116343000Y-73310508D01*
X116343000Y-73394110D01*
X116340735Y-73477675D01*
X116341880Y-73483637D01*
X116343000Y-73495417D01*
X116343000Y-80475428D01*
X116341153Y-80490511D01*
X116327908Y-80543771D01*
X116327908Y-80543774D01*
X116322735Y-80734675D01*
X98500000Y-80734675D01*
X98500000Y-79615064D01*
X103035500Y-79615064D01*
X103035501Y-79615068D01*
X103050265Y-79689299D01*
X103050267Y-79689303D01*
X103106515Y-79773484D01*
X103190697Y-79829733D01*
X103190699Y-79829734D01*
X103264933Y-79844500D01*
X105015066Y-79844499D01*
X105089301Y-79829734D01*
X105173484Y-79773484D01*
X105229734Y-79689301D01*
X105244500Y-79615067D01*
X105244499Y-77864934D01*
X105229734Y-77790699D01*
X105229732Y-77790696D01*
X105173484Y-77706515D01*
X105089302Y-77650266D01*
X105089300Y-77650265D01*
X105015067Y-77635500D01*
X103264935Y-77635500D01*
X103264931Y-77635501D01*
X103190700Y-77650265D01*
X103190696Y-77650267D01*
X103106515Y-77706515D01*
X103050266Y-77790697D01*
X103050265Y-77790699D01*
X103035500Y-77864932D01*
X103035500Y-79615064D01*
X98500000Y-79615064D01*
X98500000Y-69442507D01*
X103162999Y-69442507D01*
X103170369Y-69479553D01*
X103170369Y-69479554D01*
X103198438Y-69521561D01*
X103240446Y-69549630D01*
X103277493Y-69557000D01*
X104013000Y-69557000D01*
X104013000Y-69066881D01*
X104104237Y-69080000D01*
X104175763Y-69080000D01*
X104266999Y-69066881D01*
X104267000Y-69557000D01*
X105002507Y-69557000D01*
X105039553Y-69549630D01*
X105039554Y-69549630D01*
X105081561Y-69521561D01*
X105109630Y-69479554D01*
X105109630Y-69479553D01*
X105117000Y-69442507D01*
X105117000Y-68707000D01*
X104623818Y-68707000D01*
X104640000Y-68651889D01*
X104640000Y-68508111D01*
X104623818Y-68453000D01*
X105117000Y-68453000D01*
X105117000Y-67717492D01*
X105109630Y-67680446D01*
X105109630Y-67680445D01*
X105081561Y-67638438D01*
X105039553Y-67610369D01*
X105002507Y-67603000D01*
X104267000Y-67603000D01*
X104266999Y-68093118D01*
X104175763Y-68080000D01*
X104104237Y-68080000D01*
X104013000Y-68093118D01*
X104013000Y-67603000D01*
X103277493Y-67603000D01*
X103240446Y-67610369D01*
X103240445Y-67610369D01*
X103198438Y-67638438D01*
X103170369Y-67680445D01*
X103170369Y-67680446D01*
X103163000Y-67717492D01*
X103163000Y-68453000D01*
X103656182Y-68453000D01*
X103640000Y-68508111D01*
X103640000Y-68651889D01*
X103656182Y-68707000D01*
X103163000Y-68707000D01*
X103163000Y-69442507D01*
X103162999Y-69442507D01*
X98500000Y-69442507D01*
X98500000Y-59295064D01*
X103035500Y-59295064D01*
X103035501Y-59295068D01*
X103050265Y-59369299D01*
X103050267Y-59369303D01*
X103106515Y-59453484D01*
X103190697Y-59509733D01*
X103190699Y-59509734D01*
X103264933Y-59524500D01*
X105015066Y-59524499D01*
X105089301Y-59509734D01*
X105173484Y-59453484D01*
X105229734Y-59369301D01*
X105244500Y-59295067D01*
X105244499Y-57544934D01*
X105229734Y-57470699D01*
X105190891Y-57412567D01*
X105173484Y-57386515D01*
X105089302Y-57330266D01*
X105089300Y-57330265D01*
X105015067Y-57315500D01*
X103264935Y-57315500D01*
X103264931Y-57315501D01*
X103190700Y-57330265D01*
X103190696Y-57330267D01*
X103106515Y-57386515D01*
X103050266Y-57470697D01*
X103050265Y-57470699D01*
X103035500Y-57544932D01*
X103035500Y-59295064D01*
X98500000Y-59295064D01*
X98500000Y-51279887D01*
X98518305Y-51235694D01*
X98735694Y-51018306D01*
X98779888Y-51000000D01*
X147220112Y-51000000D01*
X147264306Y-51018306D01*
G37*
G04 #@! TD.AperFunction*
G04 #@! TD*
M02*
